<svg width="256" height="148" viewBox="0 0 256 148" fill="none" xmlns="http://www.w3.org/2000/svg">
<path d="M16.7915 127.135C16.7915 131.426 18.9374 133.626 27.7353 134.27C36.5333 134.913 40.0203 136.845 37.5526 137.649C35.0849 138.454 25.053 137.757 22.7999 141.673C20.5467 145.535 29.5593 147.628 41.0396 147.628C52.5199 147.628 100.909 147.628 116.895 147.628C132.882 147.628 145.703 144.516 145.703 139.581C145.703 134.645 136.476 133.894 132.667 132.07C128.859 130.246 131.112 125.579 138.515 125.579C145.918 125.579 156.54 125.579 163.514 125.579C170.488 125.579 172.044 129.227 167.323 129.978C162.602 130.729 161.69 136.737 172.956 136.737C184.221 136.737 212.332 136.737 223.169 136.737C234.005 136.737 239.853 130.514 234.649 126.115C229.445 121.716 233.093 119.141 240.711 118.068C248.382 117.049 256 116.244 256 109.539C256 102.833 244.091 100.472 235.293 100.472C226.495 100.472 222.686 98.3803 222.686 95.537C222.686 92.6938 218.394 90.6016 204.929 90.6016C191.464 90.6016 125.479 90.6016 93.0229 90.6016C60.5669 90.6016 62.8736 90.6016 56.3825 90.6016C49.8913 90.6016 46.3506 96.2881 50.9642 98.5412C55.6314 100.794 60.8887 98.3803 62.069 102.511C63.2492 106.642 60.5669 107.339 51.1251 107.339C41.6834 107.339 32.9927 107.339 26.2332 107.339C6.1159 107.339 5.95496 118.068 18.8837 118.068C26.7161 118.068 16.7915 122.897 16.7915 127.135Z" fill="#6784CE"/>
<path d="M9.33445 144.034C14.4897 144.034 18.6689 142.689 18.6689 141.03C18.6689 139.37 14.4897 138.025 9.33445 138.025C4.17918 138.025 0 139.37 0 141.03C0 142.689 4.17918 144.034 9.33445 144.034Z" fill="#6784CE"/>
<path d="M154.554 136.147C158.228 136.147 161.207 135.186 161.207 134.001C161.207 132.816 158.228 131.855 154.554 131.855C150.881 131.855 147.902 132.816 147.902 134.001C147.902 135.186 150.881 136.147 154.554 136.147Z" fill="#6784CE"/>
<path d="M246.612 124.237C250.286 124.237 253.264 123.276 253.264 122.091C253.264 120.906 250.286 119.945 246.612 119.945C242.938 119.945 239.96 120.906 239.96 122.091C239.96 123.276 242.938 124.237 246.612 124.237Z" fill="#6784CE"/>
<path d="M120.007 49.2395C120.007 49.2395 116.091 42.2655 118.988 40.6024C121.884 38.9394 125.103 42.1582 125.103 42.1582C125.103 42.1582 121.831 34.5941 125.586 32.3409C129.341 30.0878 135.35 38.242 135.35 38.242L120.007 49.2395Z" fill="#82B195"/>
<path d="M135.349 39.7446C135.349 39.7446 130.146 31.4831 134.813 29.4445C137.871 28.1034 142.699 33.3071 142.699 33.3071C142.699 33.3071 140.66 28.4789 144.684 26.8159C148.707 25.1528 152.194 31.8586 152.194 31.8586L135.349 39.7446Z" fill="#4A765C"/>
<path d="M30.0416 89.9048C30.0416 89.9048 27.5738 84.3255 29.8806 83.3063C32.1874 82.287 34.4406 84.9156 34.4406 84.9156C34.4406 84.9156 32.5093 78.9609 35.5135 77.5125C38.5177 76.064 42.4875 82.6625 42.4875 82.6625L30.0416 89.9048Z" fill="#82B195"/>
<path d="M42.3267 83.95C42.3267 83.95 39.9127 76.2249 42.3804 75.5275C44.8481 74.8301 47.3695 79.6583 47.3695 79.6583C47.3695 79.6583 46.5648 74.1327 49.7299 73.1671C52.8951 72.2014 55.631 78.639 55.631 78.639L42.3267 83.95Z" fill="#4A765C"/>
<path d="M199.726 47.0412C199.726 47.0412 203.32 42.3739 205.305 43.876C207.236 45.3781 206.002 48.4896 206.002 48.4896C206.002 48.4896 210.187 44.0906 212.815 45.9682C215.444 47.8458 211.635 54.2834 211.635 54.2834L199.726 47.0412Z" fill="#82B195"/>
<path d="M210.562 54.2829C210.562 54.2829 216.034 48.7036 217.751 50.474C219.468 52.2443 216.571 56.6433 216.571 56.6433C216.571 56.6433 220.916 53.4245 223.223 55.6777C225.53 57.9308 221.292 63.2418 221.292 63.2418L210.562 54.2829Z" fill="#4A765C"/>
<path d="M240.925 112.812C240.121 113.08 239.423 113.187 238.833 113.187C238.726 113.187 238.619 113.187 238.511 113.187C236.741 112.919 235.883 111.095 234.059 107.286C231.537 102.083 225.851 98.4883 211.474 97.5227C197.096 96.557 173.653 113.456 147.796 113.402C147.152 113.402 146.562 113.402 145.918 113.402C145.435 113.402 145.006 113.402 144.523 113.402C143.772 113.402 143.021 113.402 142.216 113.348C141.626 113.348 140.982 113.295 140.392 113.295C139.802 113.295 139.212 113.241 138.622 113.241H138.676C137.495 113.187 136.315 113.134 135.189 113.134C134.008 113.08 132.882 113.026 131.702 112.973C130.575 112.919 129.449 112.866 128.322 112.758C127.785 112.705 127.249 112.705 126.713 112.651C124.781 112.544 122.85 112.383 121.026 112.222C120.597 112.168 120.114 112.168 119.685 112.114C119.095 112.061 118.451 112.007 117.861 111.954C117.271 111.9 116.681 111.846 116.091 111.793C114.052 111.578 112.013 111.363 110.082 111.149C109.814 111.095 109.546 111.095 109.278 111.042C107.078 110.773 105.039 110.505 103.055 110.237C102.625 110.183 102.196 110.13 101.767 110.076C100.265 109.861 98.7628 109.647 97.368 109.432C97.1535 109.379 96.9389 109.379 96.7243 109.325C95.8659 109.164 95.0076 109.057 94.2029 108.896C93.881 108.842 93.5592 108.788 93.2373 108.735C92.969 108.681 92.7008 108.627 92.3789 108.574C83.4737 107.018 78.27 105.677 78.27 105.677C78.27 105.677 60.2985 103.263 48.9791 103.907C40.9858 104.389 32.8852 105.892 28.3789 104.121C27.8961 103.907 27.4133 103.638 26.9841 103.37C26.9305 103.316 26.8232 103.263 26.7696 103.209C25.3211 102.029 24.5701 100.098 24.9456 97.0935C25.2138 94.8404 26.2331 92.8554 27.7888 91.0851C32.617 85.5059 42.3806 81.9653 49.5692 79.6585C59.0646 76.6006 72.4225 73.1136 72.4225 73.1136C72.4225 73.1136 108.312 58.8437 122.582 46.2368C139.266 31.4841 164.372 19.8965 184.382 32.9326C202.729 44.8957 222.793 61.0969 235.99 79.6048C241.676 87.5981 244.091 94.6258 244.627 100.205C245.432 107.501 243.071 112.168 240.925 112.812Z" fill="#F27811"/>
<path d="M238.833 113.24C238.726 113.24 238.619 113.24 238.511 113.24C236.741 112.972 235.883 111.148 234.059 107.339C231.537 102.136 225.851 98.5414 211.474 97.5758C197.096 96.6101 173.653 113.509 147.796 113.455C147.152 113.455 146.562 113.455 145.918 113.455C145.435 113.455 145.006 113.455 144.523 113.455C143.772 113.455 143.021 113.455 142.216 113.401C141.626 113.401 140.983 113.401 140.392 113.348C139.802 113.348 139.212 113.294 138.622 113.294H138.676C137.495 113.24 136.315 113.187 135.189 113.187C134.008 113.133 132.882 113.08 131.702 113.026C130.575 112.972 129.449 112.919 128.322 112.811C127.786 112.758 127.249 112.758 126.713 112.704C124.781 112.597 122.85 112.436 121.026 112.275C120.597 112.221 120.114 112.221 119.685 112.168C119.095 112.114 118.451 112.06 117.861 112.007C117.271 111.953 116.681 111.899 116.091 111.846C114.052 111.631 112.014 111.417 110.136 111.202C109.868 111.148 109.599 111.148 109.331 111.095C107.132 110.826 105.093 110.558 103.108 110.29C102.679 110.236 102.25 110.183 101.821 110.129C100.319 109.914 98.8165 109.7 97.4217 109.485C97.2071 109.432 96.9926 109.432 96.778 109.378C95.9196 109.217 95.0613 109.11 94.203 108.949C93.8811 108.895 93.5592 108.841 93.2373 108.788C92.9691 108.734 92.6472 108.681 92.379 108.627C83.4737 107.071 78.27 105.73 78.27 105.73C78.27 105.73 60.2985 103.316 48.9792 103.96C40.0739 104.496 31.0077 106.32 27.0378 103.423C26.9842 103.37 26.8769 103.316 26.8232 103.262C26.9842 102.726 27.1988 102.136 27.5206 101.599C31.1686 94.8398 45.6531 92.9086 63.2491 91.6747C80.845 90.4408 103.108 91.9429 118.076 88.0268C133.043 84.1642 148.493 72.5766 168.771 69.1969C189.05 65.8172 213.083 75.098 228.801 87.6512C242.857 98.8633 239.638 110.934 238.833 113.24Z" fill="#FFA254" fill-opacity="0.933333"/>
<path d="M238.512 113.187C236.741 112.919 235.883 111.095 234.059 107.286C232.557 104.228 229.982 101.707 225.154 99.9363C224.564 99.7217 223.92 99.5071 223.223 99.2926C220.165 98.3806 216.302 97.7905 211.474 97.4686C210.83 97.4149 210.24 97.4149 209.596 97.4149C209.006 97.4149 208.362 97.4686 207.772 97.5759C196.56 98.8097 181.003 107.608 163.568 111.524C162.87 111.685 162.173 111.846 161.476 111.953C157.077 112.811 152.57 113.348 147.957 113.348H147.796C147.152 113.348 146.562 113.348 145.918 113.348C145.435 113.348 145.006 113.348 144.523 113.348C143.772 113.348 143.021 113.348 142.217 113.294C141.627 113.294 140.983 113.294 140.393 113.241C139.803 113.241 139.212 113.187 138.622 113.187H138.676C137.496 113.133 136.316 113.08 135.189 113.08C134.545 113.026 133.901 113.026 133.204 112.972C132.721 112.972 132.185 112.919 131.702 112.919C131.541 112.919 131.434 112.919 131.273 112.919C130.307 112.865 129.288 112.811 128.322 112.758C127.786 112.704 127.249 112.704 126.713 112.65C124.782 112.543 122.85 112.382 121.026 112.221C120.597 112.168 120.114 112.168 119.685 112.114C119.095 112.06 118.451 112.007 117.861 111.953C117.271 111.899 116.681 111.846 116.091 111.792C114.052 111.578 112.014 111.363 110.136 111.148C109.868 111.095 109.6 111.095 109.331 111.041C107.132 110.773 105.093 110.505 103.109 110.236C102.679 110.183 102.25 110.129 101.821 110.075C100.319 109.861 98.8168 109.646 97.422 109.432C97.2074 109.378 96.9928 109.378 96.7782 109.324C95.9199 109.163 95.0616 109.056 94.2032 108.895C93.8813 108.842 93.5595 108.788 93.2376 108.734C93.023 108.681 92.7548 108.627 92.5402 108.627C92.4865 108.627 92.4329 108.627 92.3792 108.627C91.7891 108.52 91.199 108.412 90.6089 108.305C82.7766 106.91 78.2703 105.73 78.2703 105.73C78.2703 105.73 77.3046 105.623 75.6416 105.408C75.0515 105.355 74.4077 105.247 73.7103 105.194C70.4916 104.818 65.9853 104.389 61.2644 104.121C60.6207 104.067 59.9769 104.067 59.3331 104.013C55.7388 103.852 52.0909 103.799 48.9794 103.96C40.0741 104.496 31.0079 106.32 27.0381 103.423C27.4673 101.975 28.5402 100.419 30.7933 98.9707C36.3189 95.43 42.22 90.8701 59.2795 92.0503C59.9232 92.104 60.567 92.1576 61.2644 92.2112C64.8587 92.5331 68.9358 93.1232 73.5494 93.9816C74.1932 94.0889 74.8906 94.2498 75.588 94.3571C75.8025 94.4107 76.0171 94.4644 76.2854 94.518C79.987 95.2691 85.0297 96.0738 90.9308 96.8248C91.5746 96.8785 92.2183 96.9858 92.8621 97.0394C103.645 98.2733 117.164 99.2389 131.112 99.1316C131.756 99.1316 132.399 99.1316 133.043 99.1316C135.082 99.1316 137.12 99.078 139.105 98.9707C141.466 98.8634 143.719 98.7561 145.865 98.5951C146.508 98.5415 147.152 98.4879 147.796 98.4342C152.892 97.9514 157.559 97.254 161.851 96.4493C162.495 96.342 163.139 96.1811 163.782 96.0738C181.432 92.4795 193.127 87.0076 208.362 86.793C209.006 86.793 209.65 86.793 210.347 86.793C210.723 86.793 211.152 86.793 211.528 86.8466C217.268 87.0612 221.881 88.1341 225.583 89.7435C226.227 90.0117 226.87 90.3336 227.461 90.6555C235.937 95.2691 238.673 102.887 239.102 107.822C239.263 109.915 238.995 111.738 238.512 113.187Z" fill="#FFF1E6" fill-opacity="0.933333"/>
<path d="M161.047 41.462C156.97 41.0328 151.176 43.9297 151.391 48.2751C151.605 52.6204 158.526 52.1376 163.3 49.6162C168.128 47.0412 167.699 42.1057 161.047 41.462Z" fill="#FFA254" fill-opacity="0.933333"/>
<path d="M161.852 54.6041C160.457 55.1942 158.955 57.1792 159.652 58.3594C160.349 59.5396 163.568 58.0911 164.373 56.2672C164.856 55.1942 164.212 53.5849 161.852 54.6041Z" fill="#FFA254" fill-opacity="0.933333"/>
<path d="M148.064 40.4425C147.152 40.6571 146.079 41.6764 146.401 42.4274C146.723 43.1785 148.708 42.642 149.405 41.6227C149.727 41.0863 149.513 40.067 148.064 40.4425Z" fill="#FFA254" fill-opacity="0.933333"/>
<path d="M144.792 46.6657C143.504 46.9876 141.895 48.4897 142.378 49.6162C142.807 50.7428 145.811 49.9381 146.777 48.4897C147.26 47.6313 146.938 46.1292 144.792 46.6657Z" fill="#FFA254" fill-opacity="0.933333"/>
<path d="M200.208 51.2251C196.238 50.0986 190.069 51.9762 189.478 56.2679C188.888 60.5596 195.862 61.3107 200.959 59.6476C206.216 57.9309 206.699 53.0491 200.208 51.2251Z" fill="#FFA254" fill-opacity="0.933333"/>
<path d="M205.358 63.1888C203.426 63.4571 202.031 65.2274 202.568 66.8368C203.104 68.4462 206.538 67.8561 208.04 65.9248C208.845 64.8519 208.523 62.706 205.358 63.1888Z" fill="#FFA254" fill-opacity="0.933333"/>
<path d="M103.967 66.1928C101.285 68.4459 100.802 72.0939 102.894 74.0788C104.933 76.0637 111.102 72.2012 112.55 67.4803C113.731 63.5105 109.922 61.0964 103.967 66.1928Z" fill="#FFA254" fill-opacity="0.933333"/>
<path d="M117.003 74.3481C116.091 75.0991 115.93 76.333 116.628 77.0304C117.325 77.7278 119.417 76.3866 119.9 74.7772C120.329 73.4897 119.042 72.6314 117.003 74.3481Z" fill="#FFA254" fill-opacity="0.933333"/>
<path d="M117.701 65.3894C116.95 65.9259 116.735 66.8915 117.218 67.4816C117.701 68.0717 119.471 67.1597 119.954 65.9259C120.383 64.9066 119.417 64.1555 117.701 65.3894Z" fill="#FFA254" fill-opacity="0.933333"/>
<path d="M104.933 77.7798C103.216 79.0137 102.787 81.1596 103.913 82.4471C105.04 83.7346 108.902 81.7497 109.975 79.0137C110.887 76.7069 108.741 75.0439 104.933 77.7798Z" fill="#FFA254" fill-opacity="0.933333"/>
<path d="M238.833 113.24C238.726 113.24 238.619 113.24 238.511 113.24C236.741 112.972 235.883 111.148 234.059 107.339C231.537 102.136 225.851 98.5413 211.474 97.5757C197.096 96.6101 173.653 113.509 147.796 113.455C147.152 113.455 146.562 113.455 145.918 113.455C145.435 113.455 145.006 113.455 144.523 113.455C143.772 113.455 143.021 113.455 142.216 113.401C141.626 113.401 140.982 113.401 140.392 113.348C139.802 113.348 139.212 113.294 138.622 113.294H138.676C137.495 113.24 136.315 113.187 135.189 113.187C134.008 113.133 132.882 113.079 131.702 113.026C130.575 112.972 129.448 112.918 128.322 112.811C127.785 112.758 127.249 112.758 126.713 112.704C124.781 112.597 122.85 112.436 121.026 112.275C120.597 112.221 120.114 112.221 119.685 112.167C119.095 112.114 118.451 112.06 117.861 112.007C117.271 111.953 116.681 111.899 116.091 111.846C114.052 111.631 112.013 111.416 110.136 111.202C109.868 111.148 109.599 111.148 109.331 111.095C107.132 110.826 105.093 110.558 103.108 110.29C102.679 110.236 102.25 110.183 101.821 110.129C100.319 109.914 98.8165 109.7 97.4217 109.485C97.2071 109.431 96.9925 109.431 96.7779 109.378C95.9196 109.217 95.0612 109.11 94.2029 108.949C93.881 108.895 93.5591 108.841 93.2373 108.788C92.969 108.734 92.6471 108.68 92.3789 108.627C83.4736 107.071 78.2699 105.73 78.2699 105.73C78.2699 105.73 60.2984 103.316 48.9791 103.96C40.9858 104.442 32.8852 105.944 28.3789 104.174C32.1878 102.511 41.0394 100.526 53.3244 100.258C67.9699 99.9361 92.9154 106.052 116.252 107.983C139.588 109.914 159.383 110.719 183.363 102.028C207.343 93.3376 217.321 93.4986 227.943 98.4877C238.565 103.423 238.833 113.24 238.833 113.24Z" fill="#FFF8F3" fill-opacity="0.933333"/>
<path d="M113.515 128.53C96.1339 142.21 69.579 138.347 68.1305 132.875C66.8967 128.154 69.2034 129.549 79.9327 124.184C81.703 123.326 83.6343 122.253 85.8338 120.966C101.606 111.792 92.4323 94.2498 104.986 88.7779C112.55 85.4518 118.451 85.3982 122.528 87.9196C125.21 89.5826 127.088 92.3722 128.214 96.1811C130.467 104.282 130.897 114.85 113.515 128.53Z" fill="#F27811"/>
<path d="M113.516 128.53C96.1346 142.21 69.5797 138.347 68.1313 132.875C66.8974 128.155 88.5705 143.283 114.267 120.054C124.943 110.451 123.602 93.2845 122.475 87.9199C125.157 89.583 127.035 92.3726 128.161 96.1814C130.468 104.282 130.897 114.85 113.516 128.53Z" fill="#FFA254" fill-opacity="0.933333"/>
<path d="M84.493 138.777C73.2273 138.777 67.809 133.788 67.5408 133.519C67.4871 133.466 67.4871 133.466 67.4335 133.412C67.2726 133.198 66.0387 131.481 66.5215 129.764C66.6824 129.121 67.2189 128.262 68.5601 127.779C68.9356 127.618 69.5793 127.457 70.4377 127.243C74.5148 126.224 84.1175 123.863 89.6431 116.567C94.042 110.72 94.9004 106.482 95.7587 102.351C96.1879 100.205 96.6171 98.2203 97.4754 96.128C100.05 89.9051 104.074 87.9202 104.235 87.8129C104.664 87.5983 105.147 87.7592 105.361 88.1884C105.576 88.6176 105.415 89.1004 104.986 89.315C104.932 89.315 101.392 91.1926 99.0312 96.7718C98.2265 98.7031 97.8509 100.634 97.4218 102.673C96.5634 106.75 95.6514 111.417 90.9842 117.587C85.0831 125.419 75.1049 127.833 70.8669 128.906C70.0622 129.12 69.472 129.228 69.1502 129.389C68.2918 129.711 68.1845 130.14 68.1309 130.301C67.9163 130.998 68.4528 132.017 68.721 132.393C69.5257 133.09 79.7721 141.459 100.748 134.11C126.927 124.882 128.429 104.926 128.483 102.673C128.751 95.2697 124.245 89.0467 119.9 87.9202C119.47 87.8129 119.202 87.3301 119.309 86.9009C119.417 86.4717 119.9 86.2035 120.329 86.3108C125.264 87.5983 130.468 94.3041 130.146 102.78C130.039 105.141 128.537 126.17 101.284 135.719C94.6858 137.918 89.1066 138.777 84.493 138.777Z" fill="#FFC899" fill-opacity="0.933333"/>
<path d="M29.9882 111.147C24.1944 111.791 16.6303 118.711 21.9412 126.436C27.2522 134.161 44.9555 136.092 52.1977 135.288C59.44 134.483 62.1759 132.552 63.3025 129.011C64.4291 125.471 57.2405 126.007 48.0133 118.389C40.4492 112.113 35.2455 110.557 29.9882 111.147Z" fill="#F27811"/>
<path d="M27.5744 120.911C30.2567 123.969 40.5568 129.709 49.3011 130.46C61.4788 131.533 64.483 129.387 54.2366 125.954C43.9901 122.52 41.1469 121.286 36.1578 117.424C29.7739 112.488 23.0144 115.653 27.5744 120.911Z" fill="#FFA254" fill-opacity="0.933333"/>
<path d="M47.7453 136.2C39.8593 136.2 29.291 134.322 22.8534 128.421C20.2248 126.007 18.9909 123.432 19.2055 120.696C19.6347 115.6 24.9993 112.005 25.2675 111.844C25.6431 111.576 26.1795 111.683 26.4478 112.059C26.716 112.434 26.6087 112.971 26.2332 113.239C26.1795 113.293 21.2977 116.512 20.9222 120.857C20.7612 123.056 21.7805 125.149 24.0337 127.187C32.4561 134.859 48.2818 135.341 54.8803 133.893C59.3866 132.927 61.747 130.996 62.4444 129.601C62.7663 128.957 62.8199 128.367 62.5517 127.831C61.8006 126.168 58.9574 125.739 57.9381 125.685C57.4553 125.685 57.1334 125.256 57.1334 124.827C57.1334 124.344 57.5089 123.968 57.9918 124.022C58.2063 124.022 62.7663 124.237 64.1074 127.187C64.5366 128.206 64.483 129.279 63.9465 130.406C62.7663 132.713 59.5475 134.644 55.2558 135.61C53.2709 135.931 50.6959 136.2 47.7453 136.2Z" fill="#FFC899" fill-opacity="0.933333"/>
<path d="M210.454 91.4591C210.347 95.0534 209.811 96.7701 209.542 97.4675C208.952 97.4675 208.308 97.5212 207.718 97.6285C207.611 97.3066 207.611 96.9311 207.772 96.6092C207.826 96.5555 208.416 95.2144 208.523 91.4055C208.63 88.8841 208.362 87.2211 208.255 86.7383C208.899 86.7383 209.542 86.7383 210.24 86.7383C210.401 87.5966 210.562 89.206 210.454 91.4591Z" fill="#FFA254" fill-opacity="0.933333"/>
<path d="M227.406 90.6013C227.406 91.406 227.299 92.9081 226.923 94.893C226.28 97.8972 225.528 99.3457 225.153 99.9358C224.563 99.7212 223.919 99.5066 223.222 99.292C223.222 99.1847 223.329 99.0238 223.436 98.8628C223.49 98.8092 224.402 97.3071 225.046 94.1956C225.582 91.6742 225.475 90.1185 225.475 90.0648C225.475 89.9039 225.475 89.743 225.528 89.582C226.172 89.9576 226.816 90.2794 227.406 90.6013Z" fill="#FFA254" fill-opacity="0.933333"/>
<path d="M148.332 105.677C148.278 109.271 148.01 112.275 147.849 113.402H147.795C147.152 113.402 146.562 113.402 145.918 113.402C145.971 112.812 146.347 109.486 146.401 105.623C146.454 101.492 145.918 99.0246 145.864 99.0246C145.811 98.8637 145.811 98.7027 145.811 98.5418C146.454 98.4882 147.098 98.4345 147.742 98.3809C147.903 98.9173 148.386 101.546 148.332 105.677Z" fill="#FFA254" fill-opacity="0.933333"/>
<path d="M164.05 103.691C163.997 107.768 163.729 110.182 163.46 111.577C162.763 111.738 162.066 111.899 161.368 112.006V111.953C161.368 111.899 162.012 109.807 162.119 103.691C162.173 99.7748 161.905 97.2534 161.797 96.3951C162.441 96.2878 163.085 96.1268 163.729 96.0195C163.836 97.0388 164.104 99.6675 164.05 103.691Z" fill="#FFA254" fill-opacity="0.933333"/>
<path d="M133.579 106.212C133.525 109.055 133.364 111.577 133.203 113.025C132.721 113.025 132.184 112.972 131.701 112.972C131.54 112.972 131.433 112.972 131.272 112.972C131.433 111.577 131.594 109.055 131.648 106.212C131.701 102.081 131.111 99.6137 131.111 99.6137C131.058 99.4528 131.058 99.2918 131.058 99.1309C131.701 99.1309 132.345 99.1309 132.989 99.1309C133.203 99.8819 133.633 102.403 133.579 106.212Z" fill="#FFA254" fill-opacity="0.933333"/>
<path d="M75.8555 100.044C75.8555 102.083 75.7483 103.907 75.641 105.355C75.0509 105.302 74.4071 105.194 73.7097 105.141C73.817 103.746 73.9243 101.976 73.9243 100.044C73.9779 97.0402 73.6561 94.9481 73.4951 93.9824C74.1389 94.0897 74.8363 94.2506 75.5337 94.3579C75.7483 95.6454 75.9092 97.5767 75.8555 100.044Z" fill="#FFA254" fill-opacity="0.933333"/>
<path d="M92.9151 101.708C92.8615 104.927 92.7005 107.126 92.4859 108.575C92.4323 108.575 92.3787 108.575 92.325 108.575C91.7349 108.467 91.1448 108.36 90.5547 108.253C90.7156 106.965 90.9302 104.873 90.9839 101.708C90.9839 99.6694 90.9302 98.06 90.8766 96.8262C91.5203 96.8798 92.1641 96.9871 92.8078 97.0408C92.9151 98.221 92.9151 99.8304 92.9151 101.708Z" fill="#FFA254" fill-opacity="0.933333"/>
<path d="M61.5861 97.8444C61.5325 100.312 61.4252 102.512 61.2642 104.014C60.6205 103.96 59.9767 103.96 59.3329 103.906C59.4402 102.458 59.6012 100.259 59.6548 97.7908C59.7085 95.0548 59.4402 93.0163 59.2793 91.9434C59.9231 91.997 60.5668 92.0507 61.2642 92.1043C61.4252 93.4455 61.5861 95.3767 61.5861 97.8444Z" fill="#F27811"/>
<path d="M221.345 118.98C221.238 122.145 211.313 125.257 199.243 121.984C187.172 118.712 173.278 112.06 162.656 91.0838C157.613 81.1056 158.793 73.9707 162.495 69.3034C166.572 64.1534 173.814 62.1148 179.072 62.8122C187.87 64.0461 192.859 67.1576 195.756 72.8441C198.652 78.5306 196.614 87.4359 202.3 96.9849C207.075 105.032 217.375 112.864 220.486 116.995C221.077 117.853 221.398 118.497 221.345 118.98Z" fill="#F27811"/>
<path d="M221.345 118.979C221.238 122.144 211.313 125.256 199.243 121.983C187.172 118.711 173.278 112.059 162.656 91.0831C157.613 81.1049 158.793 73.97 162.495 69.3027C163.353 75.7939 167.484 94.6238 186.421 107.284C205.197 119.784 216.678 119.73 220.486 117.048C221.077 117.853 221.398 118.496 221.345 118.979Z" fill="#FFA254" fill-opacity="0.933333"/>
<path d="M209.972 123.432C204.768 123.432 197.097 122.091 186.958 116.887C172.849 109.645 164.212 99.0226 161.315 85.3965C157.774 68.9807 168.074 63.6698 168.181 63.6161C168.611 63.4015 169.093 63.5625 169.308 63.9916C169.523 64.4208 169.362 64.9036 168.932 65.1182C168.557 65.3328 159.705 69.9464 162.978 85.0746C165.821 98.2179 174.136 108.411 187.762 115.438C204.768 124.183 214.425 121.715 216.946 120.749C218.77 120.052 219.521 119.247 219.628 118.925C219.789 118.496 220.272 118.282 220.701 118.443C221.13 118.604 221.345 119.086 221.184 119.516C220.808 120.535 219.467 121.554 217.536 122.251C216.356 122.681 213.834 123.432 209.972 123.432Z" fill="#FFC899" fill-opacity="0.933333"/>
<path d="M87.3363 124.614C85.8878 125.955 84.0102 127.135 81.6498 128.047C68.6137 132.983 49.0328 128.53 38.0353 123.112C29.9884 119.142 25.5894 114.582 24.3019 108.037C23.8191 105.623 23.7654 102.994 24.141 99.9901C25.4821 88.8317 32.6707 86.4176 40.0739 86.203C47.1016 86.0421 51.286 91.0312 51.9297 91.8359C51.9297 91.8359 48.6037 93.338 49.8375 96.7177C51.0714 100.097 58.2063 97.0396 63.8929 95.913C69.5794 94.8401 79.1284 95.4302 85.9951 102.672C91.628 108.627 93.8811 118.552 87.3363 124.614Z" fill="#F27811"/>
<path d="M87.3362 124.615C85.8877 125.956 84.0101 127.136 81.6497 128.048C74.8366 130.623 66.1996 130.677 57.9917 129.282C57.0797 129.121 56.2214 128.96 55.3094 128.799C50.5348 127.834 46.0286 126.439 42.1124 124.883C41.0931 124.507 40.1811 124.078 39.2691 123.649C38.84 123.435 38.4644 123.274 38.0889 123.059C30.042 119.089 25.643 114.529 24.3555 107.984C26.8768 110.238 31.2222 113.349 38.679 116.514C39.2691 116.782 39.9129 117.051 40.5566 117.265C43.3462 118.392 46.5114 119.518 50.1057 120.591C51.3395 120.967 52.5734 121.289 53.7536 121.611C54.3974 121.771 55.0411 121.932 55.6849 122.093C68.3991 125.205 79.4502 125.258 87.3362 124.615Z" fill="#FFF1E6" fill-opacity="0.933333"/>
<path d="M57.9922 129.28C57.0802 129.119 56.2218 128.958 55.3098 128.797C54.8807 127.992 54.4515 126.919 54.1296 125.578C53.7541 123.915 53.6468 122.574 53.7005 121.662C54.3442 121.823 54.988 121.984 55.6317 122.145C55.6317 122.789 55.739 123.701 55.9536 124.774C56.4901 127.134 57.6166 128.529 57.6703 128.529C57.8849 128.743 57.9922 129.012 57.9922 129.28Z" fill="#F27811"/>
<path d="M42.1128 124.881C41.0935 124.505 40.1815 124.076 39.2696 123.647C38.9477 122.788 38.6794 121.662 38.5722 120.267C38.4649 118.658 38.5185 117.477 38.6258 116.512C39.2159 116.78 39.8597 117.048 40.5034 117.263C40.4498 117.96 40.3961 118.819 40.5034 119.999C40.718 123.11 41.9519 124.559 41.9519 124.559C42.0592 124.72 42.1128 124.827 42.1128 124.881Z" fill="#F27811"/>
<path d="M34.7627 93.7675C32.7778 94.7868 30.5247 97.791 30.3101 99.8295C30.0419 101.814 30.5783 102.995 33.207 102.78C35.8893 102.619 38.0352 98.3274 38.0352 96.0206C38.0352 93.7138 36.7477 92.7482 34.7627 93.7675Z" fill="#FFA254" fill-opacity="0.933333"/>
<path d="M36.9619 103.907C35.889 104.39 34.6551 105.892 34.4942 106.911C34.3869 107.877 34.6015 108.467 36.1036 108.36C37.552 108.252 38.7859 106.16 38.7859 105.034C38.7859 103.907 38.0885 103.424 36.9619 103.907Z" fill="#FFA254" fill-opacity="0.933333"/>
<path d="M46.4037 105.569C45.6527 105.945 44.7943 107.071 44.687 107.822C44.5797 108.573 44.7943 109.003 45.8136 108.949C46.8329 108.895 47.6376 107.286 47.6376 106.427C47.6376 105.569 47.1548 105.194 46.4037 105.569Z" fill="#FFA254" fill-opacity="0.933333"/>
<path d="M82.6688 100.796C82.4543 100.796 82.2397 100.688 82.0787 100.527C82.0787 100.527 79.0209 97.6304 70.9203 96.6648C67.7015 96.2893 63.7317 97.1476 60.191 97.8987C55.6848 98.8643 51.8222 99.7226 49.8373 98.1132C48.979 97.4695 48.5498 96.3966 48.5498 95.0554C48.5498 94.0361 48.9253 93.1778 49.6764 92.4804C52.1441 90.1736 58.0452 90.6564 58.6889 90.7637C59.1718 90.8174 59.4936 91.1929 59.44 91.6757C59.3864 92.1585 59.0108 92.4804 58.528 92.4267C56.9186 92.2658 52.4123 92.2122 50.8029 93.7143C50.3738 94.0898 50.2128 94.519 50.2128 95.0554C50.2128 95.9138 50.4274 96.4502 50.8566 96.8257C52.2514 97.9523 55.953 97.1476 59.8155 96.2893C63.4635 95.4846 67.6479 94.5726 71.1349 95.0018C79.8792 96.0747 83.1516 99.2398 83.2589 99.3471C83.5808 99.669 83.5808 100.205 83.2589 100.527C83.098 100.688 82.8834 100.796 82.6688 100.796Z" fill="#FFC899" fill-opacity="0.933333"/>
<path d="M79.8791 119.945C74.2999 119.945 70.0618 118.175 69.8472 118.068C69.3644 117.853 69.1498 117.317 69.3644 116.887C69.579 116.405 70.1155 116.19 70.5446 116.405C70.5983 116.405 76.3384 118.765 82.8833 117.907C88.2479 117.209 89.3745 115.493 89.4281 115.439C89.6427 115.01 90.2328 114.849 90.662 115.063C91.0912 115.278 91.2521 115.868 91.0375 116.297C90.8766 116.565 89.4818 118.819 83.1515 119.677C82.025 119.892 80.8984 119.945 79.8791 119.945Z" fill="#1C3177"/>
<path d="M74.6216 109.698C71.9393 109.698 70.5981 107.874 70.2226 106.801C70.0616 106.319 70.3299 105.729 70.8127 105.568C71.2955 105.407 71.8856 105.675 72.0465 106.158C72.1002 106.372 72.7976 107.982 75.0507 107.713C77.1429 107.499 77.3039 106.158 77.3039 105.889C77.3039 105.353 77.733 104.924 78.2695 104.924C78.806 104.924 79.2351 105.353 79.2351 105.889C79.2351 107.016 78.3768 109.323 75.2117 109.645C75.0507 109.645 74.8362 109.698 74.6216 109.698Z" fill="#1C3177"/>
<path d="M86.1556 109.484C85.9947 109.484 85.7801 109.484 85.6192 109.431C82.9368 109.055 82.4004 106.641 82.3467 106.534C82.2394 105.997 82.5613 105.515 83.0978 105.407C83.6342 105.3 84.1171 105.622 84.2243 106.158C84.278 106.266 84.5462 107.392 85.8874 107.553C86.1556 107.607 86.5311 107.607 86.7457 107.446C86.9603 107.285 87.0139 106.963 87.0139 106.909C87.0676 106.373 87.5504 105.997 88.0869 106.051C88.6233 106.105 88.9989 106.587 88.9452 107.07C88.9452 107.178 88.8379 108.197 87.9796 108.894C87.5504 109.163 87.014 109.484 86.1556 109.484Z" fill="#1C3177"/>
<path d="M96.6709 89.4201C96.51 90.4931 96.2417 91.6733 95.8126 92.9072C94.2032 97.628 90.6625 102.51 86.6927 102.349C83.7422 102.188 79.5041 96.2332 78.4312 89.6347V89.5811C77.3046 82.9826 78.6994 75.6331 87.2292 75.6331C95.7053 75.5794 97.422 84.1092 96.6709 89.4201Z" fill="#8C9EE3"/>
<path d="M95.813 92.8534C94.2036 97.5743 90.663 102.456 86.6932 102.295C83.7426 102.134 79.5046 96.1795 78.4316 89.581V89.5273C79.6119 91.405 81.5431 93.3362 84.4937 94.731C89.2145 97.0378 93.3453 94.892 95.813 92.8534Z" fill="#6784CE"/>
<path d="M86.3704 76.8666C84.6001 75.2572 81.1668 77.2422 79.6647 80.7828C78.1089 84.3235 78.5381 87.6496 80.2548 88.0787C81.9715 88.5079 81.1668 84.5917 83.6345 82.3386C86.0486 80.0318 87.8189 78.1541 86.3704 76.8666Z" fill="#C7D4FF"/>
<path d="M56.9188 67.1032C58.3409 67.1032 59.4938 65.9503 59.4938 64.5281C59.4938 63.106 58.3409 61.9531 56.9188 61.9531C55.4966 61.9531 54.3438 63.106 54.3438 64.5281C54.3438 65.9503 55.4966 67.1032 56.9188 67.1032Z" fill="#8C9EE3"/>
<path d="M52.8419 57.2854C53.6715 57.2854 54.344 56.6129 54.344 55.7833C54.344 54.9538 53.6715 54.2812 52.8419 54.2812C52.0124 54.2812 51.3398 54.9538 51.3398 55.7833C51.3398 56.6129 52.0124 57.2854 52.8419 57.2854Z" fill="#8C9EE3"/>
<path d="M14.377 47.0404C12.9286 48.1133 14.5916 49.7227 14.4843 50.0982C14.377 50.4737 10.7827 50.2055 8.9051 51.0102C6.97383 51.8149 7.88582 54.0144 10.89 54.2826C13.8942 54.5508 22.0484 55.1409 24.0333 53.7461C26.0183 52.3513 24.7307 51.1175 23.6578 50.6346C22.5849 50.1518 20.439 50.2055 20.6536 49.5081C20.8682 48.8107 23.5505 48.8643 22.6922 47.4159C22.1557 46.4502 16.5765 45.4846 14.377 47.0404Z" fill="#8C9EE3"/>
<path d="M69.6864 29.9255C70.7057 32.9834 64.8583 32.4469 65.1802 33.3589C65.8239 35.0756 68.6672 33.5735 68.7745 36.524C68.8817 39.4746 65.8776 39.26 58.3671 39.5819C54.8801 39.7428 51.2858 38.6699 51.5004 36.2558C51.715 33.8417 57.2942 34.7 56.5968 33.4125C55.8994 32.125 55.5238 31.213 56.6504 29.8182C57.777 28.4234 60.5666 28.3698 63.9999 28.5844C67.3797 28.7989 69.3646 29.0672 69.6864 29.9255Z" fill="#8C9EE3"/>
<path d="M58.1522 3.58566C48.8178 4.01483 50.7491 3.47837 48.335 4.71223C45.9209 5.9461 49.3006 8.0383 47.8522 8.68205C46.4037 9.32581 41.5755 10.2378 41.7901 11.579C42.3802 15.6561 62.3367 15.5488 63.195 12.0081C63.7315 9.75498 60.1372 10.0232 60.5127 9.11123C60.8882 8.19924 67.3258 8.78935 68.1841 6.10703C69.0424 3.42472 62.6585 3.37107 58.1522 3.58566Z" fill="#8C9EE3"/>
<path d="M47.3158 62.9715C45.17 66.6731 39.5371 71.4476 37.3376 68.8726C37.284 68.7653 37.1767 68.7117 37.123 68.6044C35.5136 66.2976 36.6938 61.8449 37.0694 60.5574C37.123 60.3965 37.1767 60.2892 37.1767 60.2355C37.0157 60.5574 35.46 63.7226 34.6016 64.5272C33.4214 65.6002 31.1683 65.8684 30.4172 64.0981C30.3099 63.7762 30.2026 63.4543 30.2026 63.0252C30.0953 60.8793 31.5974 58.8408 34.4407 56.1048C37.2839 53.3688 41.3611 51.0621 42.7559 54.7636C44.0434 58.4116 41.3074 63.9371 41.1465 64.259C41.3074 63.9908 43.8824 59.9137 45.2236 59.2699C45.921 58.948 46.8866 58.948 47.5304 59.4309C48.2278 59.86 48.496 60.9866 47.3158 62.9715Z" fill="#1C3177"/>
<path d="M37.1228 60.5577C37.1765 60.3431 37.2301 60.1822 37.2301 60.1822C37.2301 60.1822 35.5671 63.6692 34.6551 64.4739C33.4749 65.5468 31.2218 65.815 30.4707 64.0447C31.1681 64.2056 32.1337 64.152 33.0994 63.2937C34.8697 61.7916 38.3567 56.5879 38.3567 56.5879C38.3567 56.5879 37.8202 58.5728 37.1228 60.5577Z" fill="#0C215B"/>
<path d="M47.3158 62.9722C45.17 66.6737 39.5371 71.4483 37.3376 68.8732C37.284 68.766 37.1767 68.7123 37.123 68.605C37.6059 68.605 38.8397 68.5514 40.6637 67.6394C43.1314 66.4592 45.2236 63.1331 46.5111 61.2555C46.994 60.5581 47.3158 59.9143 47.4768 59.3242C48.2278 59.8607 48.4961 60.9872 47.3158 62.9722Z" fill="#0C215B"/>
<path d="M44.7406 44.3034C42.4338 46.3956 37.1765 47.5221 34.4405 47.3075C32.241 47.093 30.3634 45.9127 30.739 43.8742C30.8462 43.3914 31.0072 42.8549 31.3827 42.3184C33.2067 39.3679 37.7666 36.3637 37.7666 36.3637L37.3911 36.5246C36.3182 36.9002 33.2603 37.9194 31.2218 37.4366C29.666 37.0611 28.6467 35.7736 28.8077 34.3251C28.915 33.5204 29.3978 32.6621 30.4707 31.9647C34.6015 29.2824 40.7172 28.4241 43.2385 28.7459C45.7599 29.0678 46.7792 30.7308 46.1354 33.5204C45.4917 36.2028 40.4489 40.1726 40.1271 40.4408C40.3953 40.3872 44.3115 39.207 45.3307 40.0117C45.7063 40.3335 46.0818 40.7627 46.1891 41.2455C46.4037 42.0502 46.1354 43.0158 44.7406 44.3034Z" fill="#1C3177"/>
<path d="M40.3416 34.0039L37.7666 36.418L37.3911 36.5789C36.3182 36.9545 33.2603 37.9737 31.2218 37.4909C29.666 37.1154 28.6467 35.8279 28.8077 34.3794C29.1832 34.8623 30.2561 35.6669 32.8312 35.3987C36.3182 34.9695 40.3416 34.0039 40.3416 34.0039Z" fill="#0C215B"/>
<path d="M44.7402 44.303C42.4334 46.3952 37.1761 47.5218 34.4401 47.3072C32.2406 47.0926 30.363 45.9124 30.7386 43.8738C31.436 44.464 32.9917 45.215 36.2105 44.9468C41.1996 44.464 45.2767 42.0499 46.2423 41.2988C46.4033 42.0499 46.135 43.0155 44.7402 44.303Z" fill="#0C215B"/>
<path d="M33.4215 19.4656C29.8808 22.6843 23.5506 26.8151 21.1901 27.4589C18.8833 28.049 16.1474 27.9417 15.7182 24.2937V24.2401C15.289 20.5385 18.4005 14.3155 18.4005 14.3155C18.4005 14.3155 18.4005 14.3155 18.3469 14.3692C17.864 14.852 13.4651 18.9291 10.9973 17.8562C9.97805 17.427 9.28064 16.8369 8.85147 16.1931C7.40302 14.0473 8.63689 10.9895 11.2119 8.57538C14.6453 5.41025 21.4584 1.27949 23.7651 0.421151C26.0719 -0.437189 28.1641 -0.383548 28.3787 4.49826C28.5933 8.89725 25.3209 15.3348 24.7308 16.4614C24.999 16.0322 25.8037 14.852 27.3594 13.7254C29.3444 12.3843 33.1532 9.80925 35.4064 11.6869C36.0501 12.2233 36.4257 12.9207 36.533 13.7254C36.6939 15.3348 35.7819 17.3734 33.4215 19.4656Z" fill="#1C3177"/>
<path d="M20.3319 10.1855L18.3469 14.37C17.8641 14.8528 13.4651 18.9299 10.9974 17.857C9.97813 17.4278 9.28073 16.8377 8.85156 16.1939C9.54896 16.1939 10.5682 16.033 11.8558 15.6575C14.9136 14.6918 20.3319 10.1855 20.3319 10.1855Z" fill="#0C215B"/>
<path d="M33.421 19.4658C29.8804 22.6846 23.5501 26.8153 21.1897 27.4591C18.8829 28.0492 16.1469 27.9419 15.7178 24.294C16.6834 25.045 18.4001 25.6351 21.4043 24.4549C26.1788 22.5236 34.2794 16.3007 36.5325 13.7793C36.6935 15.335 35.7815 17.3736 33.421 19.4658Z" fill="#0C215B"/>
</svg>
