<svg width="157" height="156" viewBox="0 0 157 156" fill="none" xmlns="http://www.w3.org/2000/svg">
<path d="M45.8947 131.576C45.8947 131.576 50.2822 139.418 57.7192 137.389C57.9992 137.312 58.2959 137.37 58.5345 137.532C60.6214 138.947 64.5587 140.09 69.9026 137.901C70.1909 137.783 70.5208 137.812 70.7801 137.984C75.0514 140.816 81.0508 141.793 86.3511 137.542C86.5108 137.414 86.7266 137.381 86.9174 137.457C89.7345 138.59 91.4128 138.522 94.8875 137.19C95.4912 136.957 95.9123 136.868 96.182 136.891C97.0305 136.962 98.8124 138.219 102.364 137.235C101.136 140.857 91.7302 143.687 91.7302 143.687L60.9242 146.153L44.623 139.648L45.8947 131.576Z" fill="#6784CE"/>
<path d="M18.8876 95.788C9.34087 96.064 8.35756 102.262 8.35549 103.783C8.35134 105.484 8.9716 107.034 10.4258 107.434C12.1995 107.924 13.0272 106.202 12.0999 105.571C10.6955 104.619 10.9486 103.764 11.6456 103.356C12.631 102.781 17.5993 103.186 15.6452 111.301C14.9482 114.199 13.7387 114.599 13.3591 115.873C13.494 119.335 15.1639 119.076 18.7652 119.076C25.1961 119.076 29.8284 113.579 29.8284 107.148C29.8242 100.719 25.3164 95.6034 18.8876 95.788Z" fill="#6784CE"/>
<path d="M140.67 133.386C144.335 125.845 141.541 117.275 135.156 111.842C131.019 108.324 132.747 104.509 134.747 104.169C135.915 103.97 137.318 105.629 135.863 106.922C135.463 107.277 135.969 108.229 137.463 107.528C138.544 107.019 140.11 103.91 137.5 101.47C135.052 99.1799 131.866 98.7753 128.501 99.991C122.597 102.126 120.769 107.806 121.78 114.832C122.524 120.018 123.863 141.182 123.863 141.182L134.814 140.995C137.423 138.835 139.311 136.182 140.67 133.386Z" fill="#6784CE"/>
<path d="M134.249 119.99C135.215 121.658 137.643 121.067 136.973 119.491C135.902 116.964 138.18 116.304 138.999 116.86C141.325 118.435 142.364 124.073 135.883 126.65C132.616 127.948 125.455 128.05 117.605 126.529C114.321 130.686 117.089 150.276 136.454 149.962C156.831 149.635 159.431 127.467 154.56 118.233C151.531 112.493 143.374 108.867 137.317 110.798C134.12 111.815 131.797 115.759 134.249 119.99Z" fill="#6784CE"/>
<path d="M98.2196 132.598C98.5162 132.518 98.7444 132.399 98.8295 132.229C99.0826 131.717 98.1325 131.248 97.7217 130.298C97.2404 129.19 97.6678 128.03 98.4706 127.622C99.5535 127.07 101.319 127.464 102.304 128.723C103.352 130.059 106.513 136.189 96.2592 141.483C104.414 144.081 110.413 134.588 110.532 132.119C110.922 124.018 105.177 120.566 100.344 120.749C95.8381 120.919 94.0416 124.348 94.1868 127.817C94.303 130.615 96.7467 133.005 98.2196 132.598Z" fill="#6784CE"/>
<path d="M36.8897 143.455C37.427 143.455 38.1053 143.451 38.8791 143.437L41.439 148.017C50.0501 153.506 56.1615 156.998 71.355 151.233C80.2897 147.843 82.4721 146.679 87.2122 146.264C89.4133 149.729 94.558 151.93 100.914 152.62L110.22 148.044C110.22 148.044 112.486 137.462 110.264 130.438C105.951 139.808 98.96 140.145 95.394 137.342C95.1471 137.147 94.7944 137.159 94.5704 137.381C88.7681 143.111 84.4387 141.159 82.4181 139.962C82.163 139.811 81.8477 139.808 81.5842 139.945C73.193 144.343 66.5069 140.839 64.474 139.52C64.1151 139.286 63.6442 139.342 63.3413 139.645C62.5883 140.393 60.937 141.624 58.1261 141.769C55.8234 141.889 51.9068 140.236 49.6249 136.72C44.3765 128.631 40.7379 116.35 43.6131 109.297C44.6586 106.733 46.7414 105.797 48.4155 105.831C50.5688 105.874 51.5168 107.526 49.8365 107.901C48.8449 108.123 48.9631 109.901 50.9484 109.872C53.3797 109.836 54.9023 107.432 54.9023 105.447C54.9023 99.2069 49.5626 95.6035 41.4245 95.6035C31.9317 95.6035 24.0508 104.389 24.0508 114.025C24.0487 123.659 27.399 143.455 36.8897 143.455Z" fill="#6784CE"/>
<path d="M50.9193 154.109C56.2238 155.846 62.2605 155.999 71.6122 152.63C78.1385 150.28 81.6692 147.164 87.2143 146.264C88.3013 147.973 90.104 149.373 92.415 150.44L104.486 148.485C104.486 148.485 110.874 138.375 106.92 141.926C103.35 145.131 98.5617 143.2 96.3109 142.451C95.9603 142.335 95.5765 142.397 95.2757 142.613C91.1517 145.571 87.2143 146.266 83.4325 144.635C82.9658 144.434 82.4492 144.39 82.0655 144.727C77.3377 148.859 72.4441 147.108 68.9755 144.926C68.5544 144.66 68.013 144.724 67.6437 145.056C60.7503 151.272 52.6287 146.679 50.521 144.357C50.2638 144.075 49.8779 143.953 49.5025 144.023C43.0052 145.216 40.0781 140.486 40.0781 140.486C37.7672 145.71 45.7954 151.083 50.9193 154.109Z" fill="#6784CE"/>
<path d="M101.661 144.348C98.1262 146.771 91.7119 148.548 89.1416 148.536C95.0207 154.562 110.905 155.243 119.363 153.044C131.195 149.965 134.726 142.862 134.72 135.104C134.701 113.774 114.846 112.285 113.288 106.609C112.571 103.991 113.728 102.902 114.778 102.381C115.983 101.784 117.433 102.458 117.456 103.032C117.485 103.817 116.068 103.819 116.707 105.115C117.033 105.779 117.942 105.877 118.91 105.468C120.489 104.802 121.352 103.093 121.08 101.402C120.302 96.5477 116.375 93.2617 110.94 93.2617C104.762 93.2617 99.2007 97.4833 97.7922 103.505C95.9314 111.459 104.238 117.263 107.652 125.043C111.685 134.695 105.642 141.618 101.661 144.348Z" fill="#6784CE"/>
<path d="M28.0946 142.858C43.2051 150.179 47.3229 158.301 62.8275 154.967C44.8667 153.712 40.195 138.45 42.6346 131.901C43.5266 129.503 45.6861 127.725 48.0759 127.294C49.0779 127.113 50.6504 127.13 51.4283 128.208C51.7768 128.694 51.5631 129.273 50.9428 129.578C50.4159 129.837 49.8869 130.136 49.9264 130.978C49.9844 132.233 52.1626 132.806 53.6957 131.138C55.125 129.584 54.2993 125.489 51.9967 123.555C49.0468 121.081 44.5493 120.462 40.3361 120.948C29.8932 122.149 22.1637 129.764 20.751 140.823C22.757 141.091 25.6779 141.688 28.0946 142.858Z" fill="#6784CE"/>
<path d="M12.2533 136.672C13.9855 135.574 13.8195 133.786 13.6847 133.313C13.33 132.066 11.5998 132.104 11.241 133.348C11.1372 133.709 10.8883 134.008 10.3967 134.134C8.70804 134.568 8.18112 130.369 10.4257 129.127C14.0353 127.129 18.8958 133.715 12.4753 141.003C19.0887 139.545 26.5983 141.652 32.6558 144.702C35.8401 141.204 38.0992 136.099 38.0992 130.867C38.0992 120.121 29.0628 111.512 19.6592 110.975C9.89878 110.417 -0.139595 116.852 0.00146962 126.513C0.146683 136.45 8.89473 138.8 12.2533 136.672Z" fill="#6784CE"/>
<path d="M82.2403 61.7188H62.79L63.1759 63.2414H82.5141L82.2403 61.7188Z" fill="white"/>
<path d="M62.2999 12.6346H35.3317C34.9874 12.6346 34.6617 12.4873 34.4148 12.2177C34.1244 11.9023 33.9792 11.4584 34.0165 11.0041C34.0787 10.249 34.6783 9.65776 35.3815 9.65776H36.3627C36.7631 9.65776 37.1697 9.62249 37.4311 9.35904C37.6821 9.10803 37.8024 8.65372 37.8003 7.97329C37.792 5.91541 38.3584 4.2994 39.4827 3.17296C41.0324 1.61711 43.2624 1.38477 44.4532 1.38477C45.812 1.38477 46.4467 2.29546 47.0587 3.17711C47.7433 4.16248 48.4528 5.17897 50.2306 5.17897H53.0145C54.8235 5.17897 55.9582 6.03573 56.9291 8.13303L56.956 8.19318C57.5244 9.42335 57.8439 10.0125 58.8645 10.0125H62.2397C62.6567 10.0125 63.0073 10.1556 63.2541 10.4232C63.4699 10.6597 63.5902 10.9771 63.5902 11.3194C63.5881 11.9729 63.1462 12.6346 62.2999 12.6346ZM35.3794 10.0727C34.8919 10.0727 34.4729 10.4958 34.4293 11.0373C34.4003 11.3775 34.5061 11.7053 34.7198 11.9376C34.8878 12.1202 35.1056 12.2197 35.3317 12.2197H62.2999C62.8994 12.2197 63.1732 11.753 63.1732 11.3215C63.1732 10.8776 62.8849 10.4295 62.2397 10.4295H58.8604C57.5286 10.4295 57.1095 9.52085 56.5764 8.36951L56.5494 8.30935C55.647 6.35727 54.6554 5.59594 53.0125 5.59594H50.2285C48.2349 5.59594 47.428 4.43839 46.7164 3.41567C46.1128 2.55062 45.5921 1.80173 44.4511 1.80173C43.3247 1.80173 41.2191 2.01748 39.7752 3.46753C38.7318 4.51514 38.2069 6.03158 38.2152 7.97536C38.2173 8.77196 38.0576 9.31962 37.7257 9.65569C37.3564 10.027 36.8295 10.0768 36.3627 10.0768H35.3794V10.0727Z" fill="black"/>
<path d="M137.619 78.0528H99.584C98.8559 78.0528 98.2481 77.7893 97.829 77.2894C97.4639 76.8558 97.2627 76.2625 97.2627 75.6215C97.2627 74.3395 98.1049 72.9766 99.667 72.9766H102.387C102.646 72.9766 102.833 72.906 102.959 72.7629C103.391 72.2671 103.202 70.9104 102.965 69.1927C102.899 68.7156 102.831 68.2198 102.768 67.695L102.758 67.5995C102.517 65.5831 102.015 61.3886 106.283 59.8597C107.919 59.2726 108.73 59.0486 110.201 58.6399C110.583 58.5341 111.01 58.4158 111.512 58.2748C112.832 57.9035 113.802 57.8931 114.659 58.2437C115.705 58.671 116.549 59.6522 117.246 61.2434C118.159 63.3303 118.908 63.9734 120.115 63.6995C128.345 61.8304 129.658 65.1994 130.929 68.4584C131.008 68.6575 131.085 68.8567 131.164 69.0558C131.981 71.0909 132.971 72.9745 134.674 72.9745H137.541C139.167 72.9745 140.02 74.2731 140.02 75.5572C140.016 76.7604 139.267 78.0528 137.619 78.0528ZM99.6691 73.3915C98.3622 73.3915 97.6797 74.5137 97.6797 75.6215C97.6797 76.165 97.8456 76.6629 98.1485 77.0239C98.4866 77.4263 98.9845 77.6379 99.5861 77.6379H137.622C138.982 77.6379 139.603 76.5613 139.603 75.5593C139.603 74.5158 138.958 73.3915 137.539 73.3915H134.672C132.722 73.3915 131.647 71.3834 130.776 69.2114C130.697 69.0123 130.618 68.811 130.539 68.6119C129.276 65.3736 128.083 62.3159 120.204 64.1061C118.565 64.4795 117.711 63.351 116.864 61.4114C115.504 58.2997 113.786 58.0673 111.622 58.6752C111.12 58.8162 110.693 58.9345 110.311 59.0403C108.801 59.4593 108.044 59.6688 106.421 60.2497C102.465 61.6686 102.941 65.6412 103.169 67.5498L103.181 67.6452C103.243 68.1659 103.312 68.6596 103.378 69.1347C103.64 71.0286 103.83 72.3957 103.275 73.0326C103.069 73.2691 102.77 73.3894 102.389 73.3894H99.6691V73.3915Z" fill="black"/>
<path d="M53.614 81.9162H19.3873C18.9143 81.9162 18.4559 81.7171 18.1322 81.3727C17.8045 81.0221 17.6406 80.5637 17.6717 80.0824C17.7298 79.1821 18.5057 78.4767 19.4392 78.4767H21.1236C21.8082 78.4767 22.3642 77.9208 22.3642 77.2362V74.4917C22.3642 72.7637 23.5425 71.2887 25.229 70.907L29.9816 69.8345C31.7325 69.4383 33.529 70.1332 34.56 71.6019C35.201 72.5168 36.2507 73.0624 37.3688 73.0624H42.1941C44.1088 73.0624 45.8348 74.2718 46.4903 76.0683C47.0151 77.508 48.3967 78.4767 49.9298 78.4767H53.5642C54.4978 78.4767 55.2736 79.1821 55.3317 80.0824C55.3628 80.5637 55.1989 81.0221 54.8712 81.3727C54.5455 81.7171 54.087 81.9162 53.614 81.9162ZM19.4392 78.8916C18.7235 78.8916 18.1302 79.4269 18.0866 80.1094C18.0638 80.4745 18.1862 80.823 18.4351 81.0885C18.6841 81.354 19.0222 81.5013 19.3873 81.5013H53.614C53.9791 81.5013 54.3173 81.354 54.5662 81.0885C54.8152 80.823 54.9396 80.4745 54.9147 80.1094C54.8712 79.4269 54.2758 78.8916 53.5622 78.8916H49.9277C48.2204 78.8916 46.6811 77.815 46.0982 76.2114C45.5028 74.5767 43.9325 73.4773 42.192 73.4773H37.3668C36.1138 73.4773 34.9375 72.8653 34.2177 71.8405C33.2842 70.5087 31.6557 69.8801 30.0708 70.239L25.3182 71.3115C23.8225 71.6497 22.777 72.9566 22.777 74.4917V77.2362C22.777 78.149 22.0343 78.8916 21.1216 78.8916H19.4392Z" fill="black"/>
<path d="M36.6758 138.725L36.2921 138.566C37.3376 136.07 37.8894 133.408 37.8894 130.867C37.8894 125.847 35.8875 121.007 32.2551 117.238C28.797 113.651 24.202 111.444 19.6465 111.182L19.6714 110.768C24.3286 111.035 29.0252 113.288 32.5539 116.95C36.263 120.798 38.3043 125.739 38.3043 130.867C38.3064 133.46 37.7421 136.178 36.6758 138.725Z" fill="white"/>
<path d="M42.5862 140.543C41.6361 137.394 41.58 134.137 42.4389 131.83C43.3433 129.403 45.5402 127.542 48.0379 127.09L48.1126 127.499C45.756 127.924 43.6836 129.681 42.8289 131.975C42.0012 134.201 42.0593 137.358 42.9845 140.425L42.5862 140.543Z" fill="white"/>
<path d="M50.0544 122.522C47.5194 121.211 44.0758 120.726 40.3542 121.153C39.6074 121.238 38.8626 121.36 38.1407 121.512L38.0557 121.105C38.79 120.95 39.5472 120.827 40.3086 120.74C44.109 120.302 47.6377 120.804 50.2453 122.153L50.0544 122.522Z" fill="white"/>
<path d="M63.59 147.752L63.4531 147.36C64.8949 146.854 66.2578 146.026 67.5067 144.9C67.9485 144.501 68.5978 144.439 69.0874 144.748C70.191 145.443 71.276 145.987 72.309 146.358L72.168 146.748C71.1059 146.364 69.996 145.81 68.8654 145.099C68.5314 144.889 68.0875 144.935 67.7846 145.209C66.4943 146.373 65.0837 147.229 63.59 147.752Z" fill="white"/>
<path d="M78.6816 146.97L78.5488 146.578C79.723 146.18 80.8598 145.506 81.9302 144.57C82.3306 144.221 82.8928 144.176 83.5151 144.445C84.403 144.827 85.3116 145.084 86.2182 145.205L86.1642 145.615C85.2203 145.489 84.2723 145.223 83.3512 144.827C83.0214 144.684 82.5526 144.578 82.204 144.883C81.0921 145.852 79.9055 146.555 78.6816 146.97Z" fill="white"/>
<path d="M91.5439 144.91L91.3945 144.522C92.6205 144.051 93.8839 143.352 95.1535 142.441C95.5082 142.186 95.9667 142.115 96.3733 142.252C96.5143 142.3 96.6637 142.35 96.8234 142.406C97.7217 142.713 98.9518 143.134 100.282 143.354L100.213 143.762C98.8502 143.536 97.5993 143.109 96.6886 142.798C96.5309 142.744 96.3816 142.692 96.2405 142.646C95.9584 142.551 95.641 142.601 95.392 142.779C94.0976 143.711 92.8031 144.428 91.5439 144.91Z" fill="white"/>
<path d="M54.604 147.278C52.5648 146.42 51.0795 145.277 50.3679 144.494C50.1626 144.268 49.8535 144.167 49.5402 144.225C48.2686 144.457 47.0363 144.482 45.8809 144.297L45.9472 143.889C47.055 144.065 48.2395 144.042 49.4655 143.818C49.9199 143.733 50.3742 143.885 50.677 144.219C51.3595 144.97 52.7909 146.067 54.7658 146.899L54.604 147.278Z" fill="white"/>
<path d="M56.8519 154.145C52.3109 152.832 48.5 150.306 45.8281 146.837L46.1559 146.584C48.7718 149.982 52.51 152.457 56.966 153.747L56.8519 154.145Z" fill="white"/>
<path d="M95.102 147.552L94.9775 147.156C97.6246 146.322 99.9563 145.264 101.545 144.175C102.744 143.353 105.719 141.032 107.476 137.204C109.225 133.394 109.221 129.328 107.462 125.121L107.845 124.961C109.65 129.28 109.652 133.458 107.854 137.379C106.055 141.302 103.008 143.679 101.782 144.519C100.157 145.629 97.7864 146.706 95.102 147.552Z" fill="white"/>
<path d="M131.645 145.953L131.313 145.702C133.438 142.885 134.514 139.319 134.51 135.101C134.5 123.771 128.785 118.3 124.486 115.172L124.731 114.836C127.828 117.091 130.131 119.551 131.77 122.362C133.859 125.941 134.921 130.229 134.925 135.101C134.929 139.41 133.826 143.061 131.645 145.953Z" fill="white"/>
<path d="M134.069 120.094C132.637 117.625 132.658 115.009 134.125 112.918L134.465 113.157C133.096 115.111 133.081 117.563 134.428 119.886L134.069 120.094Z" fill="white"/>
<path d="M135.962 126.84L135.809 126.455C139.607 124.944 140.414 122.528 140.555 121.221C140.738 119.542 140.051 117.818 138.885 117.03C138.676 116.889 138.335 116.846 137.999 116.916C137.775 116.964 137.362 117.103 137.105 117.511L136.755 117.292C137.006 116.893 137.416 116.617 137.914 116.512C138.366 116.416 138.817 116.483 139.119 116.688C140.408 117.559 141.169 119.443 140.97 121.268C140.816 122.664 139.964 125.249 135.962 126.84Z" fill="white"/>
<path d="M24.7853 109.73L24.3828 109.63C25.0508 106.929 26.3349 104.336 28.1003 102.133L28.4239 102.392C26.6958 104.547 25.4366 107.085 24.7853 109.73Z" fill="white"/>
<path d="M57.8901 141.979C56.6143 141.979 55.0107 141.496 53.542 140.662L53.7474 140.301C55.2472 141.153 56.8798 141.624 58.1162 141.558C59.3879 141.492 60.5496 141.193 61.564 140.668L61.7548 141.037C60.6865 141.589 59.4708 141.904 58.139 141.973C58.056 141.977 57.9731 141.979 57.8901 141.979Z" fill="white"/>
<path d="M69.94 141.954C68.4941 141.654 67.0917 141.164 65.7744 140.5L65.9611 140.129C67.2473 140.776 68.6144 141.253 70.0229 141.548L69.94 141.954Z" fill="white"/>
<path d="M86.7957 141.476C85.5801 141.476 84.379 141.19 83.1924 140.613L83.3729 140.24C86.1713 141.599 89.0818 141.263 92.0234 139.242L92.2578 139.584C90.424 140.846 88.5964 141.476 86.7957 141.476Z" fill="white"/>
<path d="M99.97 139.09C99.5115 139.09 99.0531 139.051 98.5967 138.972L98.6672 138.563C101.229 139.011 103.88 138.117 106.131 136.047L106.411 136.352C104.463 138.144 102.219 139.09 99.97 139.09Z" fill="white"/>
<path d="M92.3304 27.844L90.6542 26.3255L83.1633 28.5016L81.2009 27.3212L72.2142 30.0035L70.1584 28.8231L65.9141 30.7835L67.7064 30.8063L69.9302 30.1736L71.567 32.0303L80.5121 29.348L80.5225 29.3583L82.2464 31.2046L89.6274 29.0389L90.8036 30.7067L99.1409 28.3688C99.3276 28.3688 99.4147 28.1365 99.2737 28.0141L98.3526 27.2113C98.2634 27.1324 98.2593 26.9934 98.3485 26.9125L99.3048 26.0184C99.4396 25.894 99.3504 25.6699 99.1679 25.6699L92.3304 27.844Z" fill="black"/>
<path d="M90.2933 32.0298L89.2146 29.8495L81.8772 32.2683L80.4064 29.9055L71.0651 32.7413L69.6171 31.0029L65.8312 30.9967L65.7959 31.9302L69.3868 32.6044L71.1024 35.2742L80.0164 32.6127L81.7071 35.3551L88.5798 33.1894L89.8266 35.3551L98.0934 32.9757C98.2801 32.9757 98.3672 32.7434 98.2261 32.621L97.2781 31.6356C97.1889 31.5568 97.1847 31.4178 97.2739 31.3369L98.2593 29.8661C98.3942 29.7416 98.305 29.5176 98.1224 29.5176L90.2933 32.0298Z" fill="black"/>
<path d="M69.5836 81.0391H78.3939V114.731H60.6468C58.8088 114.731 57.3193 113.241 57.3193 111.403V108.688C57.3193 106.767 57.7467 104.869 58.5702 103.132L69.5836 81.0391Z" fill="black"/>
<path d="M97.1409 113.392C97.1409 113.392 94.0582 111.354 92.7451 110.491C91.0648 109.384 90.5544 107.938 90.2931 106.492L78.0412 38.3724H49.5442L49.8761 35.1777H33.7056L31.5979 48.2656C31.1167 51.2507 33.4214 53.9559 36.446 53.9559H56.1784C58.9084 53.9559 61.2899 55.8084 61.962 58.4533L76.168 114.796H96.7716C97.5579 114.798 97.6844 113.688 97.1409 113.392Z" fill="#F16E00" fill-opacity="0.933333"/>
<path d="M68.8654 39.5574H61.7334V29.3613H63.8763L68.8654 39.5574Z" fill="#EC8C92"/>
<path d="M60.3066 28.7168V34.9236C60.3066 35.4173 60.707 35.8198 61.2028 35.8198C63.6507 35.8198 65.5302 33.8407 65.553 30.727L65.609 30.6896L60.3066 28.7168Z" fill="#F2BDBA"/>
<path d="M47.2622 37.3893L45.5654 47.9453L45.9751 48.0112L47.6718 37.4551L47.2622 37.3893Z" fill="black"/>
<path d="M66.9241 28.3075L61.1446 23.9428C60.8002 23.6856 60.3086 23.9304 60.3086 24.3619V28.7183L65.6109 30.689L66.8556 29.8758C67.1834 29.6621 67.3742 29.2742 67.2954 28.8904C67.2477 28.6664 67.1232 28.4569 66.9241 28.3075Z" fill="#6784CE"/>
<path d="M65.553 30.7259L60.3066 29.3423V27.8652L65.9139 30.4894L65.553 30.7259Z" fill="black"/>
<path d="M71.7181 38.3744H49.5441L49.8739 35.1797H47.2414L46.7539 38.3744L70.5108 53.2629L71.7181 38.3744Z" fill="#6784CE"/>
<path d="M71.0566 46.536L71.7184 38.375H58.0352L71.0566 46.536Z" fill="white"/>
<path d="M51.4298 38.2784L47.5381 40.3218C45.8909 41.1868 43.8559 40.5043 43.0634 38.8199L41.1777 34.8161L50.0627 31.7708C51.1207 31.4078 52.2264 32.1733 52.2637 33.2893L52.3716 36.6603C52.3923 37.3366 52.0272 37.9652 51.4298 38.2784Z" fill="#EC8C92"/>
<path d="M49.1787 28.1172V33.4693L61.4181 31.26C61.638 31.2123 61.7936 31.0173 61.7936 30.7912C61.7936 30.5671 61.638 30.3721 61.4181 30.3224L49.1787 28.1172Z" fill="#F16E00" fill-opacity="0.933333"/>
<path d="M47.2624 38.2898C46.6795 38.3271 45.2274 38.4246 45.1091 37.3749C44.2275 38.5512 41.3191 38.7669 41.0286 37.3895C40.3959 38.5138 37.7281 39.0076 36.722 37.3749C35.4276 38.3479 34.1912 38.3458 33.3095 38.2898C32.0856 38.211 31.0898 37.2961 31.0898 36.0701V29.6247C31.0898 25.5276 34.4111 23.9199 38.5081 23.9199H44.8747C48.1026 23.9199 50.7206 24.8244 50.7206 28.0523V34.8316C50.7185 36.7422 49.1689 38.1695 47.2624 38.2898Z" fill="#F2BDBA"/>
<path d="M30.3489 36.3076C28.9901 36.513 26.1377 36.8594 26.1377 36.8594V24.6719C26.1377 24.6719 28.9922 24.9851 30.3489 25.2237C32.3134 25.5722 33.9626 26.8418 33.9626 28.8374V32.6918C33.9626 34.6895 32.3217 36.0089 30.3489 36.3076Z" fill="#F16E00" fill-opacity="0.933333"/>
<path d="M10.0255 18.2031L9.92383 43.0885L22.2607 40.3315C25.4243 39.6283 27.6772 36.8236 27.6772 33.5812V27.698C27.6772 24.4556 25.4264 21.6509 22.2607 20.9476L10.0255 18.2031Z" fill="#6784CE"/>
<path d="M9.81999 43.0936C12.0575 43.0936 13.8714 37.5182 13.8714 30.6406C13.8714 23.7629 12.0575 18.1875 9.81999 18.1875C7.58244 18.1875 5.76855 23.7629 5.76855 30.6406C5.76855 37.5182 7.58244 43.0936 9.81999 43.0936Z" fill="#F16E00" fill-opacity="0.933333"/>
<path d="M93.4421 14.8244H74.3984V2.86719H90.9901C92.3447 2.86719 93.4421 3.96458 93.4421 5.31922V14.8244Z" fill="#4A765C"/>
<path d="M93.4237 7.09219V5.89937C93.4237 5.63176 93.208 5.41602 92.9404 5.41602C92.6728 5.41602 92.457 5.63176 92.457 5.89937V16.5954C92.457 18.7258 94.183 20.4518 96.3135 20.4518H116.129C117.21 20.4518 117.674 19.0826 116.82 18.423L111.231 14.1143C110.851 13.8218 110.814 13.2596 111.154 12.9215L114.405 9.67283C114.874 9.204 114.542 8.40533 113.88 8.40533H94.7369C94.0129 8.40533 93.4237 7.81826 93.4237 7.09219Z" fill="#4A765C"/>
<path d="M77.1095 114.8L74.6513 1.58984H73.668V114.8H77.1095Z" fill="#FFF3A1"/>
<path d="M73.668 133.074V144C74.9811 144.144 76.3565 143.93 77.7443 143.303L77.5203 133.076H73.668V133.074Z" fill="#FFF3A1"/>
<path d="M74.1285 2.3566C73.4771 2.3566 72.9502 1.82968 72.9502 1.1783C72.9502 0.526914 73.4771 0 74.1285 0C74.7799 0 75.3068 0.526914 75.3068 1.1783C75.3068 1.82761 74.7799 2.3566 74.1285 2.3566Z" fill="#FFF3A1"/>
<path d="M67.5507 47.3537L66.7437 47.1235C65.7542 46.8413 65.1816 45.8103 65.4617 44.8208L66.2956 41.8937C66.6732 40.5702 68.0506 39.8047 69.3741 40.1823L69.5774 40.2404C70.5669 40.5225 71.1416 41.5535 70.8594 42.543L69.8533 46.0717C69.5712 47.0612 68.5402 47.6359 67.5507 47.3537Z" fill="#EC8C92"/>
<path d="M71.0148 53.6868H95.116C96.8669 53.6868 98.2879 52.2657 98.2879 50.5149V45.31C98.2879 40.4454 94.3443 36.5039 89.4817 36.5039H74.4273C70.3344 36.5039 67.5089 39.0638 68.0815 42.2377C67.1625 43.0883 67.2206 45.1379 68.067 46.144C67.3824 47.2995 67.6376 49.4051 68.7412 49.9237C68.1769 51.048 68.8864 53.6868 71.0148 53.6868Z" fill="#F2BDBA"/>
<path d="M89.4816 36.5039H78.9121C81.2355 36.5039 83.1212 38.3875 83.1212 40.713V50.936C83.1212 52.4566 81.889 53.6888 80.3684 53.6888H95.1179C96.8708 53.6888 98.2898 52.2678 98.2898 50.517V45.3121C98.2877 40.4454 94.3441 36.5039 89.4816 36.5039Z" fill="#F16E00" fill-opacity="0.933333"/>
<path d="M9.75346 41.2887C11.4365 41.2887 12.8009 36.5213 12.8009 30.6405C12.8009 24.7596 11.4365 19.9922 9.75346 19.9922C8.07042 19.9922 6.70605 24.7596 6.70605 30.6405C6.70605 36.5213 8.07042 41.2887 9.75346 41.2887Z" fill="black"/>
<path d="M63.9452 31.6651C63.8539 31.5552 63.7502 31.4722 63.632 31.412C63.3478 31.2647 63.0034 31.2627 62.6425 31.2606H62.6113L62.6155 30.8457H62.6445C63.0387 30.8499 63.4473 30.8519 63.8207 31.0449C63.9888 31.1299 64.1361 31.2502 64.2626 31.4017L63.9452 31.6651Z" fill="black"/>
<path d="M61.5238 33.7866C61.4616 33.7866 61.3993 33.7866 61.3392 33.7866H61.2334L61.2355 33.3717H61.3413C61.8599 33.3759 62.447 33.38 62.727 33.0605L63.0403 33.3344C62.6751 33.7493 62.0819 33.7866 61.5238 33.7866Z" fill="black"/>
<path d="M66.8219 38.166H60.1504V38.5809H66.8219V38.166Z" fill="black"/>
<path d="M66.2229 39.9316H63.0635V40.3465H66.2229V39.9316Z" fill="black"/>
<path d="M74.1289 2.56348C73.3655 2.56348 72.7432 1.94114 72.7432 1.17773H73.1581C73.1581 1.71295 73.5937 2.14859 74.1289 2.14859C74.6641 2.14859 75.0998 1.71295 75.0998 1.17773H75.5147C75.5147 1.94114 74.8944 2.56348 74.1289 2.56348Z" fill="black"/>
<path d="M73.8758 135.199H73.4609V142.084H73.8758V135.199Z" fill="black"/>
<path d="M93.2948 115.598C93.2429 115.594 93.1932 115.592 93.1413 115.592H58.3171C58.2653 115.592 58.2134 115.594 58.1636 115.598C56.9708 115.685 56.2427 116.841 56.6741 117.853C57.4811 119.745 60.1717 126.022 61.8935 129.655C62.1134 130.119 63.0241 131.837 63.3021 132.175C64.4991 133.638 65.945 133.833 66.7976 133.833H74.2512H77.2114H84.665C85.5176 133.833 86.9635 133.638 88.1605 132.175C88.4364 131.837 89.3471 130.119 89.5691 129.655C91.2909 126.022 93.9815 119.745 94.7884 117.853C95.2158 116.841 94.4876 115.687 93.2948 115.598Z" fill="#6784CE"/>
<path d="M84.6633 133.627H66.7959V134.042H84.6633V133.627Z" fill="black"/>
<path d="M88.2829 130.63H85.3413V130.215H88.2829V130.63ZM84.8538 130.63H81.0534V130.215H84.5406L87.9925 118.117L88.3908 118.231L84.8538 130.63ZM78.6595 130.63H75.0872V130.215H78.3006L80.039 117.899L80.4497 117.957L78.6595 130.63ZM72.9194 130.63H69.121V130.215H72.4319L70.4611 117.955L70.8698 117.889L72.9194 130.63ZM66.7271 130.63H63.1735V130.215H66.1649L62.6279 118.648L63.0242 118.526L66.7271 130.63Z" fill="black"/>
<path d="M9.69161 29.8132C9.69161 32.5308 10.0049 34.7339 9.22693 34.7339C8.44901 34.7339 7.81836 32.5308 7.81836 29.8132C7.81836 27.0957 8.44901 24.8926 9.22693 24.8926C10.0049 24.8905 9.69161 27.0957 9.69161 29.8132Z" fill="#4A765C"/>
<path d="M92.6639 6.36719H92.249V17.1503H92.6639V6.36719Z" fill="black"/>
<path d="M68.7663 41.6944L68.5381 41.348C69.9446 40.4186 71.4486 39.5162 71.4631 39.5059L71.6768 39.8606C71.6602 39.873 70.1666 40.7713 68.7663 41.6944Z" fill="black"/>
<path d="M68.9737 45.5738L68.7559 45.2212C70.208 44.3291 71.8157 43.3853 71.8323 43.377L72.0418 43.7338C72.0273 43.7421 70.4217 44.6839 68.9737 45.5738Z" fill="black"/>
<path d="M69.5314 49.5356L69.3281 49.1747C70.4525 48.5378 71.8279 47.7972 71.8403 47.791L72.0374 48.1561C72.0229 48.1644 70.6516 48.9029 69.5314 49.5356Z" fill="black"/>
<path d="M45.3911 37.0028L45.0322 36.7975C45.2791 36.366 45.4098 35.8743 45.4098 35.3764V32.1465H45.8247V35.3764C45.8226 35.9448 45.6732 36.5091 45.3911 37.0028Z" fill="black"/>
<path d="M41.381 36.7866L40.9951 36.6351C41.1237 36.3032 41.1901 35.9526 41.1901 35.5938V32.1211H41.605V35.5938C41.605 36.0066 41.5283 36.407 41.381 36.7866Z" fill="black"/>
<path d="M37.0058 36.8533L36.6387 36.6583C36.8565 36.2475 36.9706 35.7849 36.9706 35.3181V32.25H37.3855V35.3181C37.3876 35.8534 37.2569 36.3844 37.0058 36.8533Z" fill="black"/>
<path d="M73.8358 8.32031H73.4209V34.5209H73.8358V8.32031Z" fill="black"/>
<path d="M73.8358 54.2637H73.4209V80.4643H73.8358V54.2637Z" fill="black"/>
</svg>
