<svg
            width="24"
            height="24"
            viewBox="0 0 24 24"
            fill="none"
            xmlns="http://www.w3.org/2000/svg"
          >
            <path
              d="M22 18.605C22 18.8039 21.921 18.9947 21.7803 19.1353C21.6397 19.276 21.4489 19.355 21.25 19.355H16.15C15.983 19.9779 15.6151 20.5282 15.1034 20.9208C14.5918 21.3133 13.9649 21.5261 13.32 21.5261C12.6751 21.5261 12.0482 21.3133 11.5366 20.9208C11.0249 20.5282 10.657 19.9779 10.49 19.355H2.75C2.55109 19.355 2.36032 19.276 2.21967 19.1353C2.07902 18.9947 2 18.8039 2 18.605C2 18.4061 2.07902 18.2153 2.21967 18.0747C2.36032 17.934 2.55109 17.855 2.75 17.855H10.49C10.657 17.2321 11.0249 16.6818 11.5366 16.2892C12.0482 15.8967 12.6751 15.6839 13.32 15.6839C13.9649 15.6839 14.5918 15.8967 15.1034 16.2892C15.6151 16.6818 15.983 17.2321 16.15 17.855H21.25C21.4489 17.855 21.6397 17.934 21.7803 18.0747C21.921 18.2153 22 18.4061 22 18.605ZM22 5.395C22 5.59391 21.921 5.78468 21.7803 5.92533C21.6397 6.06598 21.4489 6.145 21.25 6.145H18.8C18.633 6.76788 18.2651 7.31824 17.7534 7.71077C17.2418 8.1033 16.6149 8.31605 15.97 8.31605C15.3251 8.31605 14.6982 8.1033 14.1866 7.71077C13.6749 7.31824 13.307 6.76788 13.14 6.145H2.75C2.65151 6.145 2.55398 6.1256 2.46299 6.08791C2.37199 6.05022 2.28931 5.99497 2.21967 5.92533C2.15003 5.85569 2.09478 5.77301 2.05709 5.68201C2.0194 5.59102 2 5.49349 2 5.395C2 5.29651 2.0194 5.19898 2.05709 5.10799C2.09478 5.01699 2.15003 4.93431 2.21967 4.86467C2.28931 4.79502 2.37199 4.73978 2.46299 4.70209C2.55398 4.6644 2.65151 4.645 2.75 4.645H13.14C13.307 4.02212 13.6749 3.47176 14.1866 3.07923C14.6982 2.6867 15.3251 2.47395 15.97 2.47395C16.6149 2.47395 17.2418 2.6867 17.7534 3.07923C18.2651 3.47176 18.633 4.02212 18.8 4.645H21.25C21.3489 4.64365 21.447 4.66213 21.5386 4.69935C21.6302 4.73656 21.7134 4.79176 21.7833 4.86167C21.8532 4.93159 21.9084 5.0148 21.9457 5.1064C21.9829 5.198 22.0013 5.29614 22 5.395ZM22 11.995C22.0013 12.0939 21.9829 12.192 21.9457 12.2836C21.9084 12.3752 21.8532 12.4584 21.7833 12.5283C21.7134 12.5982 21.6302 12.6534 21.5386 12.6906C21.447 12.7279 21.3489 12.7463 21.25 12.745H9.55C9.38296 13.3679 9.01509 13.9182 8.50342 14.3108C7.99176 14.7033 7.36489 14.9161 6.72 14.9161C6.07511 14.9161 5.44824 14.7033 4.93658 14.3108C4.42491 13.9182 4.05704 13.3679 3.89 12.745H2.75C2.55109 12.745 2.36032 12.666 2.21967 12.5253C2.07902 12.3847 2 12.1939 2 11.995C2 11.7961 2.07902 11.6053 2.21967 11.4647C2.36032 11.324 2.55109 11.245 2.75 11.245H3.89C4.05704 10.6221 4.42491 10.0718 4.93658 9.67923C5.44824 9.2867 6.07511 9.07395 6.72 9.07395C7.36489 9.07395 7.99176 9.2867 8.50342 9.67923C9.01509 10.0718 9.38296 10.6221 9.55 11.245H21.25C21.4489 11.245 21.6397 11.324 21.7803 11.4647C21.921 11.6053 22 11.7961 22 11.995Z"
              fill="black"
            />
          </svg>