<svg
            width="24"
            height="24"
            viewBox="0 0 24 24"
            fill="none"
            xmlns="http://www.w3.org/2000/svg"
          >
            <path
              d="M9.6397 15.3655C8.04103 15.3655 6.68637 14.8102 5.5757 13.6995C4.46503 12.5888 3.9097 11.2342 3.9097 9.6355C3.9097 8.03684 4.46503 6.68217 5.5757 5.5715C6.68637 4.46084 8.04103 3.90517 9.6397 3.9045C11.239 3.9045 12.594 4.46017 13.7047 5.5715C14.8154 6.68217 15.3707 8.03684 15.3707 9.6355C15.3707 10.3302 15.2477 11.0025 15.0017 11.6525C14.755 12.3025 14.4317 12.8585 14.0317 13.3205L19.9397 19.2275C20.033 19.3208 20.083 19.4358 20.0897 19.5725C20.0964 19.7078 20.0464 19.8288 19.9397 19.9355C19.833 20.0422 19.7154 20.0955 19.5867 20.0955C19.4567 20.0955 19.3387 20.0422 19.2327 19.9355L13.3247 14.0275C12.8247 14.4535 12.2497 14.7832 11.5997 15.0165C10.9497 15.2498 10.2964 15.3665 9.6397 15.3665M9.6397 14.3665C10.9664 14.3665 12.0867 13.9098 13.0007 12.9965C13.914 12.0832 14.3707 10.9628 14.3707 9.6355C14.3707 8.30884 13.914 7.18884 13.0007 6.2755C12.0874 5.36217 10.9674 4.9055 9.6407 4.9055C8.31403 4.9055 7.1937 5.36217 6.2797 6.2755C5.36636 7.18884 4.9097 8.30884 4.9097 9.6355C4.9097 10.9622 5.36636 12.0822 6.2797 12.9955C7.19303 13.9088 8.31303 14.3655 9.6397 14.3655"
              fill="black"
            />
          </svg>