<svg width="26" height="25" viewBox="0 0 26 25" fill="none" xmlns="http://www.w3.org/2000/svg">
<g clip-path="url(#clip0_287_552)">
<path d="M7.19097 17.8134L10.8615 9.93679L18.8091 6.42267L15.1386 14.2993L7.19097 17.8134ZM11.9825 11.1104L10.2355 14.8433L14.0022 13.1705L15.7492 9.43758L11.9825 11.1104Z" fill="black"/>
<path d="M13.1186 0.118607C6.49113 0.0530988 1.06604 5.37199 1.00053 11.9994C0.935026 18.6268 6.25391 24.0519 12.8813 24.1174C19.5088 24.1829 24.9339 18.8641 24.9994 12.2366C25.0308 9.05418 23.7968 5.98959 21.5687 3.71702C19.3406 1.44445 16.301 0.150063 13.1186 0.118607ZM13.6465 22.5874L13.661 21.125L12.161 21.1102L12.1466 22.5726C9.633 22.3652 7.27806 21.26 5.51236 19.459C3.74667 17.6581 2.68822 15.2818 2.53055 12.7646L3.99297 12.779L4.0078 11.2791L2.54537 11.2646C2.75277 8.75107 3.85799 6.39613 5.65894 4.63044C7.45988 2.86475 9.83621 1.80629 12.3534 1.64862L12.3389 3.11105L13.8389 3.12587L13.8533 1.66344C16.3669 1.87084 18.7218 2.97606 20.4875 4.77701C22.2532 6.57796 23.3117 8.95428 23.4694 11.4715L22.0069 11.457L21.9921 12.9569L23.4545 12.9714C23.2471 15.485 22.1419 17.8399 20.341 19.6056C18.54 21.3713 16.1637 22.4298 13.6465 22.5874Z" fill="black"/>
</g>
<defs>
<clipPath id="clip0_287_552">
<rect width="24" height="24" fill="white" transform="translate(1.11914) rotate(0.566315)"/>
</clipPath>
</defs>
</svg>
