<svg width="438" height="105" viewBox="0 0 438 105" fill="none" xmlns="http://www.w3.org/2000/svg">
<g filter="url(#filter0_d_853_679)">
<path d="M388.507 83.3594C384.124 83.3405 380.062 82.4465 378.082 81.8235C378.082 81.8235 396.046 78.7598 397.54 66.2965C383.89 86.0769 369 62.1545 369 62.1545C372.104 62.973 380.994 65.4023 386.93 64.3775C390.991 63.6763 395.121 60.6996 394.95 60.7463C396.103 69.9211 389.469 59.8437 400.475 56.5942H400.48C401.406 56.2754 409.403 57.0778 409.45 56.2235C409.541 54.5961 415.362 56.7259 410.362 56.726C413.362 56.726 410.362 56.2235 410.362 56.2235C413.263 57.8622 410.958 53.6073 411.533 56.6706C414.132 55.5268 408.042 63.5505 411.45 53.7109C413.232 62.9314 419.892 54.9257 411.456 58.1551C415.109 59.742 431.01 51.7119 432.95 47.2364C434.839 55.3066 421.482 65.182 410.362 64.6572C412.494 65.2162 414.837 64.563 417.067 66.2129C420.058 68.4268 423.547 70.3335 426.798 72.3816C415.865 77.161 405.775 74.8011 405.065 69.8541C404.506 80.8334 396.029 83.3914 388.507 83.3594Z" fill="#528265"/>
<path d="M358.879 41.2062C354.173 41.2247 350.022 45.5101 348.49 47.3012C345.55 46.7724 342.574 46.5067 339.573 46.5321C337.283 46.5516 334.977 46.7425 332.662 47.1063C330.04 44.9948 327.203 43.381 324.166 42.7521C321.072 44.3582 321.998 46.8209 322.687 49.2337C326.654 48.906 330.7 50.1779 334.764 52.1119C335.656 52.7098 336.534 53.3283 337.397 53.9669C338.592 58.2092 339.177 62.4096 339.36 66.5949C336.434 67.2153 330.717 68.9793 329.052 73.4919L335.691 72.5427L328.568 76.1457C328.382 79.445 329.064 82.1517 330.007 84.6073L334.534 79.7932L331.128 87.2426C332.585 90.4379 334.118 93.3938 334.145 96.9997C335.982 95.1457 337.739 93.6246 339.339 92.1968L338.247 85.255L340.851 90.82C342.92 88.8808 344.628 86.9703 345.747 84.4418L341.496 77.8388L346.721 81.4275C346.746 81.3139 346.768 81.1975 346.791 81.0815C348.086 74.5052 343.079 68.4237 341.558 66.7569C341.418 63.2534 341.01 59.7215 340.21 56.1532C344.863 59.9491 349.36 64.5239 353.46 69.7305C352.502 73.1069 351.973 75.8893 351.801 78.2069L355.503 74.8538L351.893 82.1119C352.308 84.9329 353.53 86.7858 355.291 88.1847L358.261 82.7486L357.199 89.4399C359.153 90.5207 361.509 91.3541 364.043 92.3584C364.023 90.3844 364.077 88.9028 364.076 86.6647L366.134 93.2234C368.343 94.1756 370.642 95.3281 372.899 96.9407C373.189 93.5806 373.193 90.211 372.858 87.0253L366.567 84.5962L372.613 85.1042C372.147 82.0655 371.345 79.2431 370.156 76.8229L363.087 75.2218L368.606 74.2172C366.118 70.7526 362.502 68.5961 357.524 68.6004C356.862 68.6011 356.174 68.6428 355.463 68.722C349.698 61.3268 343.146 55.1421 336.401 50.5549C335.899 50.0339 335.385 49.5246 334.86 49.0273C339.42 48.5025 343.93 48.6874 348.366 49.5096C349.213 51.6341 351.152 55.6042 354.47 57.6805L353.679 51.3722L357.129 58.7994C357.477 58.8807 357.835 58.9438 358.206 58.9796C365.195 59.6592 369.759 53.5699 376.831 54.4233C374.67 53.3798 373.189 51.9043 371.825 50.2937L363.875 50.36L369.899 47.942C368.243 45.93 366.377 43.925 363.325 42.436L357.623 45.9138L360.656 41.4124C360.074 41.2736 359.477 41.2044 358.879 41.2062Z" fill="#528265"/>
<path d="M289.574 92.8557C288.555 92.4152 287.734 91.8463 287.008 91.2056C287.301 90.652 287.605 90.0973 287.91 89.5391C288.73 90.6073 289.352 91.7862 289.574 92.8557ZM280.302 91.1444C279.661 91.1326 278.999 91.0442 278.309 90.8393C279.481 89.6203 281.419 88.7865 283.252 88.5262C283.005 89.3106 282.775 90.0891 282.564 90.8605C281.833 91.0395 281.084 91.155 280.302 91.1444ZM284.737 91.0183C287.383 81.6704 292.926 70.9762 299.734 61.3892C307.059 51.0955 315.848 42.0738 323.816 37.1861H332.254C312.941 48.846 294.988 71.2943 284.737 91.0183ZM292.422 90.9477C290.863 90.2445 289.668 89.2847 288.648 88.2035C289.047 87.5027 289.445 86.7996 289.855 86.0953C291.109 87.6016 292.105 89.3695 292.422 90.9477ZM296.711 89.658C294.109 88.399 292.363 86.4827 290.863 84.404C291.344 83.6125 291.824 82.8246 292.328 82.0237C294.414 84.1437 296.219 87.1011 296.711 89.658ZM280.265 87.2789C279.408 87.2789 278.522 87.1812 277.596 86.9539C279.262 85.5252 282.127 84.5901 284.688 84.4228C284.38 85.2249 284.091 86.0222 283.818 86.8149C282.674 87.0893 281.5 87.2825 280.265 87.2789ZM300.73 86.1624C297.473 84.8904 295.398 82.5891 293.488 80.21C293.898 79.574 294.32 78.938 294.742 78.302C297.367 80.1628 299.934 83.3546 300.73 86.1624ZM304.023 83.1073C300.332 81.5291 298.094 78.9851 296.078 76.3233C296.582 75.5931 297.098 74.8629 297.613 74.1444C300.578 76.3469 303.355 80.0097 304.023 83.1073ZM281.881 82.907C280.287 82.8953 278.663 82.6479 277 82.0002C279.432 80.4691 283.323 79.786 286.492 80.0804C286.108 80.9402 285.742 81.7882 285.393 82.6362C284.338 82.7893 283.275 82.8953 282.2 82.907H281.881ZM307.422 78.9615C303.59 77.3244 301.328 74.6391 299.254 71.8714C299.758 71.1882 300.273 70.5051 300.789 69.8338C303.848 72.0009 306.73 75.7815 307.422 78.9615ZM285.707 78.5729C283.161 78.5611 280.613 78.2784 278.143 76.8769C280.905 75.6755 285.132 75.6638 288.121 76.606C287.805 77.2538 287.488 77.9133 287.184 78.5611C286.867 78.5729 286.539 78.5729 286.217 78.5729H285.707ZM311.383 75.7815C307.223 73.9207 304.621 70.9645 302.324 67.8552C303.027 66.9483 303.754 66.0414 304.492 65.1463C307.738 67.9494 310.645 72.1658 311.383 75.7815ZM288.59 73.8736C285.445 73.8853 282.252 73.6027 278.931 71.7654C282.011 70.2578 287.125 70.3167 290.781 71.5769C290.348 72.3425 289.938 73.0962 289.527 73.8618C289.211 73.8736 288.906 73.8736 288.59 73.8736ZM316.281 71.836C311.641 69.7514 308.945 66.3358 306.438 62.8261C307.117 62.037 307.797 61.2479 308.488 60.4706C312.086 63.2265 315.473 67.8905 316.281 71.836ZM290.465 69.5511C287.324 69.5511 284.124 69.2803 280.805 67.4429C284.045 65.8647 289.527 65.9943 293.195 67.4547C292.773 68.1378 292.363 68.8327 291.953 69.5276C291.461 69.5394 290.969 69.5511 290.465 69.5511ZM321.121 68.5618C316.023 66.2298 313.07 62.3903 310.316 58.4448C311.102 57.6086 311.887 56.7724 312.684 55.9479C316.598 59.0219 320.242 64.1805 321.121 68.5618ZM326.418 65.323C320.664 62.5905 317.605 58.2799 314.652 53.9575C315.438 53.1802 316.234 52.4028 317.031 51.6491C321.449 54.8408 325.645 60.6001 326.418 65.323ZM294.672 65.111C290.348 64.9343 285.993 64.5692 281.684 61.7897C285.707 60.1643 292.07 60.6354 296.406 62.4728C295.82 63.3443 295.234 64.2276 294.672 65.111ZM331.645 62.3903C325.668 59.2692 322.562 54.299 319.527 49.3642C320.395 48.5869 321.273 47.8213 322.164 47.0793C326.629 50.6597 330.859 57.0904 331.645 62.3903ZM298.41 59.6226C293.676 59.2339 288.895 58.8688 284.296 55.6064C288.73 54.0517 295.785 55.0646 299.969 57.479C299.441 58.1857 298.926 58.9041 298.41 59.6226ZM332.547 55.0175C328.691 52.0024 326.91 48.9402 324.531 45.1478C325.562 44.3351 326.594 43.546 327.637 42.7923C329.688 44.4882 330.941 46.6907 332.547 49.0698V55.0175ZM302.406 54.3462C297.473 53.2155 292.516 52.0024 288.227 47.9155C293.09 46.9851 300.133 48.8931 304.422 51.8846C303.742 52.6855 303.062 53.5099 302.406 54.3462ZM306.566 49.4113C301.68 47.7507 296.77 45.9487 292.645 41.1905C297.578 40.6252 304.586 43.3576 308.816 46.9733C308.055 47.7624 307.305 48.5869 306.566 49.4113ZM311.887 43.8876C306.836 42.6038 301.797 41.1669 297.414 37.1861H305.688C309.027 38.0694 312.273 39.5416 314.699 41.3083C313.762 42.1327 312.824 42.9925 311.887 43.8876ZM317.324 39.1294C315.496 38.5523 313.656 37.9516 311.863 37.1861H319.926C319.059 37.7985 318.191 38.4463 317.324 39.1294Z" fill="#528265"/>
<path d="M115.507 83.3594C111.124 83.3405 107.062 82.4465 105.082 81.8235C105.082 81.8235 123.046 78.7598 124.54 66.2965C110.89 86.0769 96 62.1545 96 62.1545C99.1044 62.973 107.994 65.4023 113.93 64.3775C117.991 63.6763 122.121 60.6996 121.95 60.7463C123.103 69.9211 116.469 59.8437 127.475 56.5942H127.48C128.406 56.2754 136.403 57.0778 136.45 56.2235C136.541 54.5961 142.363 56.7259 137.363 56.726C140.363 56.726 137.363 56.2235 137.363 56.2235C140.263 57.8622 137.959 53.6073 138.533 56.6706C141.132 55.5268 135.042 63.5505 138.45 53.7109C140.232 62.9314 146.892 54.9257 138.456 58.1551C142.109 59.742 158.01 51.7119 159.95 47.2364C161.839 55.3066 148.482 65.182 137.363 64.6572C139.494 65.2162 141.837 64.563 144.067 66.2129C147.058 68.4268 150.547 70.3335 153.798 72.3816C142.865 77.161 132.775 74.8011 132.065 69.8541C131.506 80.8334 123.029 83.3914 115.507 83.3594Z" fill="#528265"/>
<path d="M85.8794 41.2062C81.1727 41.2247 77.022 45.5101 75.49 47.3012C72.5498 46.7724 69.5744 46.5067 66.5728 46.5321C64.2827 46.5516 61.9769 46.7425 59.6622 47.1063C57.0396 44.9948 54.2029 43.381 51.1661 42.7521C48.0722 44.3582 48.9977 46.8209 49.6867 49.2337C53.6535 48.906 57.6996 50.1779 61.7644 52.1119C62.6562 52.7098 63.534 53.3283 64.3974 53.9669C65.5919 58.2092 66.1769 62.4096 66.3603 66.5949C63.4345 67.2153 57.7165 68.9793 56.0515 73.4919L62.691 72.5427L55.5681 76.1457C55.3818 79.445 56.0636 82.1517 57.0072 84.6073L61.5337 79.7932L58.1279 87.2426C59.5851 90.4379 61.1185 93.3938 61.1455 96.9997C62.9821 95.1457 64.7392 93.6246 66.3385 92.1968L65.2471 85.255L67.851 90.82C69.9202 88.8808 71.6282 86.9703 72.7471 84.4418L68.4956 77.8388L73.7214 81.4275C73.746 81.3139 73.7683 81.1975 73.791 81.0815C75.086 74.5052 70.0785 68.4237 68.5578 66.7569C68.4183 63.2534 68.0098 59.7215 67.2101 56.1532C71.8628 59.9491 76.3605 64.5239 80.4598 69.7305C79.5022 73.1069 78.9727 75.8893 78.8009 78.2069L82.5032 74.8538L78.8927 82.1119C79.3085 84.9329 80.5298 86.7858 82.2911 88.1847L85.2609 82.7486L84.1989 89.4399C86.1534 90.5207 88.5087 91.3541 91.0434 92.3584C91.0228 90.3844 91.0774 88.9028 91.0762 86.6647L93.1345 93.2234C95.3435 94.1756 97.6417 95.3281 99.8985 96.9407C100.189 93.5806 100.193 90.211 99.8581 87.0253L93.5665 84.5962L99.6127 85.1042C99.1475 82.0655 98.3455 79.2431 97.1556 76.8229L90.0871 75.2218L95.606 74.2172C93.1178 70.7526 89.5022 68.5961 84.5244 68.6004C83.8617 68.6011 83.1744 68.6428 82.4628 68.722C76.6975 61.3268 70.1458 55.1421 63.4014 50.5549C62.8993 50.0339 62.3853 49.5246 61.8598 49.0273C66.4196 48.5025 70.9297 48.6874 75.3657 49.5096C76.2126 51.6341 78.1524 55.6042 81.4705 57.6805L80.6794 51.3722L84.129 58.7994C84.4775 58.8807 84.8351 58.9438 85.2057 58.9796C92.1947 59.6592 96.7594 53.5699 103.831 54.4233C101.67 53.3798 100.189 51.9043 98.8252 50.2937L90.8747 50.36L96.8988 47.942C95.2429 45.93 93.3773 43.925 90.3253 42.436L84.6234 45.9138L87.6556 41.4124C87.0737 41.2736 86.4774 41.2044 85.8794 41.2062Z" fill="#528265"/>
<path d="M16.5742 92.8557C15.5547 92.4152 14.7344 91.8463 14.0078 91.2056C14.3008 90.652 14.6055 90.0973 14.9102 89.5391C15.7305 90.6073 16.3516 91.7862 16.5742 92.8557ZM7.30234 91.1444C6.66133 91.1326 5.99922 91.0442 5.30898 90.8393C6.48086 89.6203 8.41914 88.7865 10.252 88.5262C10.0047 89.3106 9.775 90.0891 9.56406 90.8605C8.83281 91.0395 8.08398 91.155 7.30234 91.1444ZM11.7367 91.0183C14.3828 81.6704 19.9258 70.9762 26.7344 61.3892C34.0586 51.0955 42.8477 42.0738 50.8164 37.1861H59.2539C39.9414 48.846 21.9883 71.2943 11.7367 91.0183ZM19.4219 90.9477C17.8633 90.2445 16.668 89.2847 15.6484 88.2035C16.0469 87.5027 16.4453 86.7996 16.8555 86.0953C18.1094 87.6016 19.1055 89.3695 19.4219 90.9477ZM23.7109 89.658C21.1094 88.399 19.3633 86.4827 17.8633 84.404C18.3438 83.6125 18.8242 82.8246 19.3281 82.0237C21.4141 84.1437 23.2188 87.1011 23.7109 89.658ZM7.26484 87.2789C6.4082 87.2789 5.52227 87.1812 4.59648 86.9539C6.26172 85.5252 9.12695 84.5901 11.6875 84.4228C11.3805 85.2249 11.091 86.0222 10.818 86.8149C9.67422 87.0893 8.5 87.2825 7.26484 87.2789ZM27.7305 86.1624C24.4727 84.8904 22.3984 82.5891 20.4883 80.21C20.8984 79.574 21.3203 78.938 21.7422 78.302C24.3672 80.1628 26.9336 83.3546 27.7305 86.1624ZM31.0234 83.1073C27.332 81.5291 25.0938 78.9851 23.0781 76.3233C23.582 75.5931 24.0977 74.8629 24.6133 74.1444C27.5781 76.3469 30.3555 80.0097 31.0234 83.1073ZM8.88086 82.907C7.28711 82.8953 5.66289 82.6479 4 82.0002C6.43164 80.4691 10.3234 79.786 13.4922 80.0804C13.1078 80.9402 12.7422 81.7882 12.393 82.6362C11.3383 82.7893 10.2754 82.8953 9.19961 82.907H8.88086ZM34.4219 78.9615C30.5898 77.3244 28.3281 74.6391 26.2539 71.8714C26.7578 71.1882 27.2734 70.5051 27.7891 69.8338C30.8477 72.0009 33.7305 75.7815 34.4219 78.9615ZM12.707 78.5729C10.1605 78.5611 7.61289 78.2784 5.14258 76.8769C7.90469 75.6755 12.1316 75.6638 15.1211 76.606C14.8047 77.2538 14.4883 77.9133 14.1836 78.5611C13.8672 78.5729 13.5391 78.5729 13.2168 78.5729H12.707ZM38.3828 75.7815C34.2227 73.9207 31.6211 70.9645 29.3242 67.8552C30.0273 66.9483 30.7539 66.0414 31.4922 65.1463C34.7383 67.9494 37.6445 72.1658 38.3828 75.7815ZM15.5898 73.8736C12.4445 73.8853 9.25234 73.6027 5.93125 71.7654C9.01094 70.2578 14.125 70.3167 17.7813 71.5769C17.3477 72.3425 16.9375 73.0962 16.5273 73.8618C16.2109 73.8736 15.9062 73.8736 15.5898 73.8736ZM43.2812 71.836C38.6406 69.7514 35.9453 66.3358 33.4375 62.8261C34.1172 62.037 34.7969 61.2479 35.4883 60.4706C39.0859 63.2265 42.4727 67.8905 43.2812 71.836ZM17.4648 69.5511C14.3242 69.5511 11.1238 69.2803 7.80508 67.4429C11.0453 65.8647 16.5273 65.9943 20.1953 67.4547C19.7734 68.1378 19.3633 68.8327 18.9531 69.5276C18.4609 69.5394 17.9687 69.5511 17.4648 69.5511ZM48.1211 68.5618C43.0234 66.2298 40.0703 62.3903 37.3164 58.4448C38.1016 57.6086 38.8867 56.7724 39.6836 55.9479C43.5977 59.0219 47.2422 64.1805 48.1211 68.5618ZM53.418 65.323C47.6641 62.5905 44.6055 58.2799 41.6523 53.9575C42.4375 53.1802 43.2344 52.4028 44.0312 51.6491C48.4492 54.8408 52.6445 60.6001 53.418 65.323ZM21.6719 65.111C17.3477 64.9343 12.993 64.5692 8.68398 61.7897C12.707 60.1643 19.0703 60.6354 23.4062 62.4728C22.8203 63.3443 22.2344 64.2276 21.6719 65.111ZM58.6445 62.3903C52.668 59.2692 49.5625 54.299 46.5273 49.3642C47.3945 48.5869 48.2734 47.8213 49.1641 47.0793C53.6289 50.6597 57.8594 57.0904 58.6445 62.3903ZM25.4102 59.6226C20.6758 59.2339 15.8945 58.8688 11.2961 55.6064C15.7305 54.0517 22.7852 55.0646 26.9688 57.479C26.4414 58.1857 25.9258 58.9041 25.4102 59.6226ZM59.5469 55.0175C55.6914 52.0024 53.9102 48.9402 51.5312 45.1478C52.5625 44.3351 53.5938 43.546 54.6367 42.7923C56.6875 44.4882 57.9414 46.6907 59.5469 49.0698V55.0175ZM29.4062 54.3462C24.4727 53.2155 19.5156 52.0024 15.2266 47.9155C20.0898 46.9851 27.1328 48.8931 31.4219 51.8846C30.7422 52.6855 30.0625 53.5099 29.4062 54.3462ZM33.5664 49.4113C28.6797 47.7507 23.7695 45.9487 19.6445 41.1905C24.5781 40.6252 31.5859 43.3576 35.8164 46.9733C35.0547 47.7624 34.3047 48.5869 33.5664 49.4113ZM38.8867 43.8876C33.8359 42.6038 28.7969 41.1669 24.4141 37.1861H32.6875C36.0273 38.0694 39.2734 39.5416 41.6992 41.3083C40.7617 42.1327 39.8242 42.9925 38.8867 43.8876ZM44.3242 39.1294C42.4961 38.5523 40.6562 37.9516 38.8633 37.1861H46.9258C46.0586 37.7985 45.1914 38.4463 44.3242 39.1294Z" fill="#528265"/>
<path d="M251.879 41.2065C247.173 41.225 243.022 45.5103 241.49 47.3015C238.55 46.7727 235.574 46.507 232.573 46.5324C230.283 46.5518 227.977 46.7427 225.662 47.1066C223.04 44.995 220.203 43.3813 217.166 42.7523C214.072 44.3585 214.998 46.8212 215.687 49.234C219.654 48.9063 223.7 50.1782 227.764 52.1122C228.656 52.7101 229.534 53.3286 230.397 53.9672C231.592 58.2095 232.177 62.4099 232.36 66.5952C229.434 67.2155 223.717 68.9796 222.052 73.4922L228.691 72.5429L221.568 76.146C221.382 79.4452 222.064 82.152 223.007 84.6075L227.534 79.7935L224.128 87.2429C225.585 90.4382 227.118 93.394 227.145 97C228.982 95.146 230.739 93.6249 232.339 92.1971L231.247 85.2553L233.851 90.8203C235.92 88.8811 237.628 86.9706 238.747 84.442L234.496 77.8391L239.721 81.4278C239.746 81.3141 239.768 81.1978 239.791 81.0817C241.086 74.5054 236.079 68.4239 234.558 66.7571C234.418 63.2536 234.01 59.7217 233.21 56.1535C237.863 59.9494 242.36 64.5242 246.46 69.7308C245.502 73.1072 244.973 75.8896 244.801 78.2072L248.503 74.8541L244.893 82.1122C245.308 84.9332 246.53 86.786 248.291 88.185L251.261 82.7489L250.199 89.4401C252.153 90.521 254.509 91.3544 257.043 92.3587C257.023 90.3847 257.077 88.9031 257.076 86.665L259.134 93.2237C261.343 94.1758 263.642 95.3284 265.899 96.941C266.189 93.5808 266.193 90.2112 265.858 87.0256L259.567 84.5965L265.613 85.1044C265.147 82.0658 264.345 79.2434 263.156 76.8232L256.087 75.2221L261.606 74.2175C259.118 70.7528 255.502 68.5963 250.524 68.6007C249.862 68.6014 249.174 68.6431 248.463 68.7223C242.698 61.327 236.146 55.1423 229.401 50.5552C228.899 50.0342 228.385 49.5248 227.86 49.0276C232.42 48.5028 236.93 48.6877 241.366 49.5099C242.213 51.6344 244.152 55.6045 247.47 57.6808L246.679 51.3724L250.129 58.7997C250.477 58.8809 250.835 58.9441 251.206 58.9799C258.195 59.6594 262.759 53.5701 269.831 54.4236C267.67 53.3801 266.189 51.9045 264.825 50.2939L256.875 50.3603L262.899 47.9423C261.243 45.9303 259.377 43.9253 256.325 42.4362L250.623 45.9141L253.656 41.4126C253.074 41.2739 252.477 41.2047 251.879 41.2065Z" fill="#528265"/>
<path d="M202.973 92.8557C203.992 92.4152 204.812 91.8463 205.539 91.2056C205.246 90.652 204.941 90.0973 204.637 89.5391C203.816 90.6073 203.195 91.7862 202.973 92.8557ZM212.245 91.1444C212.886 91.1326 213.548 91.0442 214.238 90.8393C213.066 89.6203 211.128 88.7865 209.295 88.5262C209.542 89.3106 209.772 90.0891 209.983 90.8605C210.714 91.0395 211.463 91.155 212.245 91.1444ZM207.81 91.0183C205.164 81.6704 199.621 70.9762 192.812 61.3892C185.488 51.0955 176.699 42.0738 168.73 37.1861H160.293C179.605 48.846 197.559 71.2943 207.81 91.0183ZM200.125 90.9477C201.684 90.2445 202.879 89.2847 203.898 88.2035C203.5 87.5027 203.102 86.7996 202.691 86.0953C201.438 87.6016 200.441 89.3695 200.125 90.9477ZM195.836 89.658C198.438 88.399 200.184 86.4827 201.684 84.404C201.203 83.6125 200.723 82.8246 200.219 82.0237C198.133 84.1437 196.328 87.1011 195.836 89.658ZM212.282 87.2789C213.139 87.2789 214.025 87.1812 214.95 86.9539C213.285 85.5252 210.42 84.5901 207.859 84.4228C208.166 85.2249 208.456 86.0222 208.729 86.8149C209.873 87.0893 211.047 87.2825 212.282 87.2789ZM191.816 86.1624C195.074 84.8904 197.148 82.5891 199.059 80.21C198.648 79.574 198.227 78.938 197.805 78.302C195.18 80.1628 192.613 83.3546 191.816 86.1624ZM188.523 83.1073C192.215 81.5291 194.453 78.9851 196.469 76.3233C195.965 75.5931 195.449 74.8629 194.934 74.1444C191.969 76.3469 189.191 80.0097 188.523 83.1073ZM210.666 82.907C212.26 82.8953 213.884 82.6479 215.547 82.0002C213.115 80.4691 209.223 79.786 206.055 80.0804C206.439 80.9402 206.805 81.7882 207.154 82.6362C208.209 82.7893 209.271 82.8953 210.347 82.907H210.666ZM185.125 78.9615C188.957 77.3244 191.219 74.6391 193.293 71.8714C192.789 71.1882 192.273 70.5051 191.758 69.8338C188.699 72.0009 185.816 75.7815 185.125 78.9615ZM206.84 78.5729C209.386 78.5611 211.934 78.2784 214.404 76.8769C211.642 75.6755 207.415 75.6638 204.426 76.606C204.742 77.2538 205.059 77.9133 205.363 78.5611C205.68 78.5729 206.008 78.5729 206.33 78.5729H206.84ZM181.164 75.7815C185.324 73.9207 187.926 70.9645 190.223 67.8552C189.52 66.9483 188.793 66.0414 188.055 65.1463C184.809 67.9494 181.902 72.1658 181.164 75.7815ZM203.957 73.8736C207.102 73.8853 210.295 73.6027 213.616 71.7654C210.536 70.2578 205.422 70.3167 201.766 71.5769C202.199 72.3425 202.609 73.0962 203.02 73.8618C203.336 73.8736 203.641 73.8736 203.957 73.8736ZM176.266 71.836C180.906 69.7514 183.602 66.3358 186.109 62.8261C185.43 62.037 184.75 61.2479 184.059 60.4706C180.461 63.2265 177.074 67.8905 176.266 71.836ZM202.082 69.5511C205.223 69.5511 208.423 69.2803 211.742 67.4429C208.502 65.8647 203.02 65.9943 199.352 67.4547C199.773 68.1378 200.184 68.8327 200.594 69.5276C201.086 69.5394 201.578 69.5511 202.082 69.5511ZM171.426 68.5618C176.523 66.2298 179.477 62.3903 182.23 58.4448C181.445 57.6086 180.66 56.7724 179.863 55.9479C175.949 59.0219 172.305 64.1805 171.426 68.5618ZM166.129 65.323C171.883 62.5905 174.941 58.2799 177.895 53.9575C177.109 53.1802 176.312 52.4028 175.516 51.6491C171.098 54.8408 166.902 60.6001 166.129 65.323ZM197.875 65.111C202.199 64.9343 206.554 64.5692 210.863 61.7897C206.84 60.1643 200.477 60.6354 196.141 62.4728C196.727 63.3443 197.312 64.2276 197.875 65.111ZM160.902 62.3903C166.879 59.2692 169.984 54.299 173.02 49.3642C172.152 48.5869 171.273 47.8213 170.383 47.0793C165.918 50.6597 161.688 57.0904 160.902 62.3903ZM194.137 59.6226C198.871 59.2339 203.652 58.8688 208.251 55.6064C203.816 54.0517 196.762 55.0646 192.578 57.479C193.105 58.1857 193.621 58.9041 194.137 59.6226ZM160 55.0175C163.855 52.0024 165.637 48.9402 168.016 45.1478C166.984 44.3351 165.953 43.546 164.91 42.7923C162.859 44.4882 161.605 46.6907 160 49.0698V55.0175ZM190.141 54.3462C195.074 53.2155 200.031 52.0024 204.32 47.9155C199.457 46.9851 192.414 48.8931 188.125 51.8846C188.805 52.6855 189.484 53.5099 190.141 54.3462ZM185.98 49.4113C190.867 47.7507 195.777 45.9487 199.902 41.1905C194.969 40.6252 187.961 43.3576 183.73 46.9733C184.492 47.7624 185.242 48.5869 185.98 49.4113ZM180.66 43.8876C185.711 42.6038 190.75 41.1669 195.133 37.1861H186.859C183.52 38.0694 180.273 39.5416 177.848 41.3083C178.785 42.1327 179.723 42.9925 180.66 43.8876ZM175.223 39.1294C177.051 38.5523 178.891 37.9516 180.684 37.1861H172.621C173.488 37.7985 174.355 38.4463 175.223 39.1294Z" fill="#528265"/>
<path d="M4 0H434V60.3017H4V0Z" fill="#528265"/>
</g>
<defs>
<filter id="filter0_d_853_679" x="0" y="0" width="438" height="105" filterUnits="userSpaceOnUse" color-interpolation-filters="sRGB">
<feFlood flood-opacity="0" result="BackgroundImageFix"/>
<feColorMatrix in="SourceAlpha" type="matrix" values="0 0 0 0 0 0 0 0 0 0 0 0 0 0 0 0 0 0 127 0" result="hardAlpha"/>
<feOffset dy="4"/>
<feGaussianBlur stdDeviation="2"/>
<feComposite in2="hardAlpha" operator="out"/>
<feColorMatrix type="matrix" values="0 0 0 0 0.290196 0 0 0 0 0.462745 0 0 0 0 0.360784 0 0 0 0.25 0"/>
<feBlend mode="normal" in2="BackgroundImageFix" result="effect1_dropShadow_853_679"/>
<feBlend mode="normal" in="SourceGraphic" in2="effect1_dropShadow_853_679" result="shape"/>
</filter>
</defs>
</svg>
