<svg width="24" height="24" viewBox="0 0 24 24" fill="none" xmlns="http://www.w3.org/2000/svg">
<path d="M12.3469 3.52124C11.7376 3.52124 11.2032 3.81655 10.7157 4.36312C10.2329 4.9078 9.82975 5.69999 9.56256 6.5953C9.15943 7.93124 9.07506 9.49218 9.33756 10.7578L12.4219 10.3172L15.3704 10.6641C15.6141 9.41718 15.5251 7.89843 15.1313 6.5953C14.8641 5.69999 14.461 4.9078 13.9782 4.36312C13.4907 3.81655 12.9563 3.52124 12.3469 3.52124ZM19.0969 5.16561C18.5532 5.16561 18.0704 5.4328 17.6297 5.93905C17.1938 6.4453 16.8235 7.18593 16.5797 8.0203C16.4907 8.32968 16.4157 8.64843 16.3594 8.97186C16.3782 9.5578 16.336 10.1344 16.2376 10.6781C16.2376 10.7062 16.2376 10.7344 16.2422 10.7672L17.6438 10.9312L14.7422 11.4422L12.4313 11.1703L4.53568 12.2953L8.45162 13.7016L13.5704 12.8297L8.60162 15.3656L3.17912 12.4922L1.82303 12.6844L2.21725 14.1562L0.845215 13.5984L2.62225 15.6703L2.84396 16.5L4.8985 17.4797L7.85631 16.7062L5.19381 18.6703L3.21709 17.8969L3.72615 19.8L4.85162 20.1281L2.88334 20.9344L7.4485 20.9531L4.9735 21.9797L9.99381 21.6234C13.4344 22.8328 14.2266 22.6734 18.1172 23.0344L14.9204 21.8391L16.0594 21.2484L13.3454 19.3922C16.9969 20.5219 18.4032 20.1656 21.9516 19.5L19.9735 19.2094L22.4016 17.9437L22.4204 17.3484L23.7094 14.6484L22.4766 15.5203L22.5235 14.1422L19.561 16.5562L14.2641 14.9437L19.711 15.3141L22.5282 13.9594L22.5516 13.2984L23.3063 11.3812L21.8719 12.2766L20.1329 12.075L16.5047 12.4828C16.5047 12.4828 17.5407 12.1594 18.5157 11.8641L19.5282 11.1516L21.8954 11.4281C22.036 10.35 21.9329 9.10312 21.6141 8.0203C21.3704 7.18593 21.0001 6.4453 20.5641 5.93905C20.1235 5.4328 19.6407 5.16561 19.0969 5.16561ZM6.54381 5.67186C5.97662 5.67186 5.48443 5.92968 5.03912 6.39374C4.59475 6.86249 4.22396 7.54686 3.9774 8.31561C3.64365 9.35155 3.54709 10.5422 3.70881 11.5594L8.49381 10.8797C8.24537 9.68905 8.29225 8.34374 8.56412 7.08749C8.40943 6.82499 8.236 6.59061 8.0485 6.39374C7.60318 5.92968 7.111 5.67186 6.54381 5.67186ZM9.74068 17.1281L13.1719 17.775L16.8282 17.3531L13.0969 18.7969L9.74068 17.1281Z" fill="black"/>
</svg>
