<svg width="430" height="105" viewBox="0 0 430 105" fill="none" xmlns="http://www.w3.org/2000/svg">
<g filter="url(#filter0_d_1005_2711)">
<path d="M384.507 83.3594C380.124 83.3405 376.062 82.4465 374.082 81.8235C374.082 81.8235 392.046 78.7598 393.54 66.2965C379.89 86.0769 365 62.1545 365 62.1545C368.104 62.973 376.994 65.4023 382.93 64.3775C386.991 63.6763 391.121 60.6996 390.95 60.7463C392.103 69.9211 385.469 59.8437 396.475 56.5942H396.48C397.406 56.2754 405.403 57.0778 405.45 56.2235C405.541 54.5961 411.362 56.7259 406.362 56.726C409.362 56.726 406.362 56.2235 406.362 56.2235C409.263 57.8622 406.958 53.6073 407.533 56.6706C410.132 55.5268 404.042 63.5505 407.45 53.7109C409.232 62.9314 415.892 54.9257 407.456 58.1551C411.109 59.742 427.01 51.7119 428.95 47.2364C430.839 55.3066 417.482 65.182 406.362 64.6572C408.494 65.2162 410.837 64.563 413.067 66.2129C416.058 68.4268 419.547 70.3335 422.798 72.3816C411.865 77.161 401.775 74.8011 401.065 69.8541C400.506 80.8334 392.029 83.3914 384.507 83.3594Z" fill="#528265"/>
<path d="M354.879 41.2062C350.173 41.2247 346.022 45.5101 344.49 47.3012C341.55 46.7724 338.574 46.5067 335.573 46.5321C333.283 46.5516 330.977 46.7425 328.662 47.1063C326.04 44.9948 323.203 43.381 320.166 42.7521C317.072 44.3582 317.998 46.8209 318.687 49.2337C322.654 48.906 326.7 50.1779 330.764 52.1119C331.656 52.7098 332.534 53.3283 333.397 53.9669C334.592 58.2092 335.177 62.4096 335.36 66.5949C332.434 67.2153 326.717 68.9793 325.052 73.4919L331.691 72.5427L324.568 76.1457C324.382 79.445 325.064 82.1517 326.007 84.6073L330.534 79.7932L327.128 87.2426C328.585 90.4379 330.118 93.3938 330.145 96.9997C331.982 95.1457 333.739 93.6246 335.339 92.1968L334.247 85.255L336.851 90.82C338.92 88.8808 340.628 86.9703 341.747 84.4418L337.496 77.8388L342.721 81.4275C342.746 81.3139 342.768 81.1975 342.791 81.0815C344.086 74.5052 339.079 68.4237 337.558 66.7569C337.418 63.2534 337.01 59.7215 336.21 56.1532C340.863 59.9491 345.36 64.5239 349.46 69.7305C348.502 73.1069 347.973 75.8893 347.801 78.2069L351.503 74.8538L347.893 82.1119C348.308 84.9329 349.53 86.7858 351.291 88.1847L354.261 82.7486L353.199 89.4399C355.153 90.5207 357.509 91.3541 360.043 92.3584C360.023 90.3844 360.077 88.9028 360.076 86.6647L362.134 93.2234C364.343 94.1756 366.642 95.3281 368.899 96.9407C369.189 93.5806 369.193 90.211 368.858 87.0253L362.567 84.5962L368.613 85.1042C368.147 82.0655 367.345 79.2431 366.156 76.8229L359.087 75.2218L364.606 74.2172C362.118 70.7526 358.502 68.5961 353.524 68.6004C352.862 68.6011 352.174 68.6428 351.463 68.722C345.698 61.3268 339.146 55.1421 332.401 50.5549C331.899 50.0339 331.385 49.5246 330.86 49.0273C335.42 48.5025 339.93 48.6874 344.366 49.5096C345.213 51.6341 347.152 55.6042 350.47 57.6805L349.679 51.3722L353.129 58.7994C353.477 58.8807 353.835 58.9438 354.206 58.9796C361.195 59.6592 365.759 53.5699 372.831 54.4233C370.67 53.3798 369.189 51.9043 367.825 50.2937L359.875 50.36L365.899 47.942C364.243 45.93 362.377 43.925 359.325 42.436L353.623 45.9138L356.656 41.4124C356.074 41.2736 355.477 41.2044 354.879 41.2062Z" fill="#528265"/>
<path d="M285.574 92.8557C284.555 92.4152 283.734 91.8463 283.008 91.2056C283.301 90.652 283.605 90.0973 283.91 89.5391C284.73 90.6073 285.352 91.7862 285.574 92.8557ZM276.302 91.1444C275.661 91.1326 274.999 91.0442 274.309 90.8393C275.481 89.6203 277.419 88.7865 279.252 88.5262C279.005 89.3106 278.775 90.0891 278.564 90.8605C277.833 91.0395 277.084 91.155 276.302 91.1444ZM280.737 91.0183C283.383 81.6704 288.926 70.9762 295.734 61.3892C303.059 51.0955 311.848 42.0738 319.816 37.1861H328.254C308.941 48.846 290.988 71.2943 280.737 91.0183ZM288.422 90.9477C286.863 90.2445 285.668 89.2847 284.648 88.2035C285.047 87.5027 285.445 86.7996 285.855 86.0953C287.109 87.6016 288.105 89.3695 288.422 90.9477ZM292.711 89.658C290.109 88.399 288.363 86.4827 286.863 84.404C287.344 83.6125 287.824 82.8246 288.328 82.0237C290.414 84.1437 292.219 87.1011 292.711 89.658ZM276.265 87.2789C275.408 87.2789 274.522 87.1812 273.596 86.9539C275.262 85.5252 278.127 84.5901 280.688 84.4228C280.38 85.2249 280.091 86.0222 279.818 86.8149C278.674 87.0893 277.5 87.2825 276.265 87.2789ZM296.73 86.1624C293.473 84.8904 291.398 82.5891 289.488 80.21C289.898 79.574 290.32 78.938 290.742 78.302C293.367 80.1628 295.934 83.3546 296.73 86.1624ZM300.023 83.1073C296.332 81.5291 294.094 78.9851 292.078 76.3233C292.582 75.5931 293.098 74.8629 293.613 74.1444C296.578 76.3469 299.355 80.0097 300.023 83.1073ZM277.881 82.907C276.287 82.8953 274.663 82.6479 273 82.0002C275.432 80.4691 279.323 79.786 282.492 80.0804C282.108 80.9402 281.742 81.7882 281.393 82.6362C280.338 82.7893 279.275 82.8953 278.2 82.907H277.881ZM303.422 78.9615C299.59 77.3244 297.328 74.6391 295.254 71.8714C295.758 71.1882 296.273 70.5051 296.789 69.8338C299.848 72.0009 302.73 75.7815 303.422 78.9615ZM281.707 78.5729C279.161 78.5611 276.613 78.2784 274.143 76.8769C276.905 75.6755 281.132 75.6638 284.121 76.606C283.805 77.2538 283.488 77.9133 283.184 78.5611C282.867 78.5729 282.539 78.5729 282.217 78.5729H281.707ZM307.383 75.7815C303.223 73.9207 300.621 70.9645 298.324 67.8552C299.027 66.9483 299.754 66.0414 300.492 65.1463C303.738 67.9494 306.645 72.1658 307.383 75.7815ZM284.59 73.8736C281.445 73.8853 278.252 73.6027 274.931 71.7654C278.011 70.2578 283.125 70.3167 286.781 71.5769C286.348 72.3425 285.938 73.0962 285.527 73.8618C285.211 73.8736 284.906 73.8736 284.59 73.8736ZM312.281 71.836C307.641 69.7514 304.945 66.3358 302.438 62.8261C303.117 62.037 303.797 61.2479 304.488 60.4706C308.086 63.2265 311.473 67.8905 312.281 71.836ZM286.465 69.5511C283.324 69.5511 280.124 69.2803 276.805 67.4429C280.045 65.8647 285.527 65.9943 289.195 67.4547C288.773 68.1378 288.363 68.8327 287.953 69.5276C287.461 69.5394 286.969 69.5511 286.465 69.5511ZM317.121 68.5618C312.023 66.2298 309.07 62.3903 306.316 58.4448C307.102 57.6086 307.887 56.7724 308.684 55.9479C312.598 59.0219 316.242 64.1805 317.121 68.5618ZM322.418 65.323C316.664 62.5905 313.605 58.2799 310.652 53.9575C311.438 53.1802 312.234 52.4028 313.031 51.6491C317.449 54.8408 321.645 60.6001 322.418 65.323ZM290.672 65.111C286.348 64.9343 281.993 64.5692 277.684 61.7897C281.707 60.1643 288.07 60.6354 292.406 62.4728C291.82 63.3443 291.234 64.2276 290.672 65.111ZM327.645 62.3903C321.668 59.2692 318.562 54.299 315.527 49.3642C316.395 48.5869 317.273 47.8213 318.164 47.0793C322.629 50.6597 326.859 57.0904 327.645 62.3903ZM294.41 59.6226C289.676 59.2339 284.895 58.8688 280.296 55.6064C284.73 54.0517 291.785 55.0646 295.969 57.479C295.441 58.1857 294.926 58.9041 294.41 59.6226ZM328.547 55.0175C324.691 52.0024 322.91 48.9402 320.531 45.1478C321.562 44.3351 322.594 43.546 323.637 42.7923C325.688 44.4882 326.941 46.6907 328.547 49.0698V55.0175ZM298.406 54.3462C293.473 53.2155 288.516 52.0024 284.227 47.9155C289.09 46.9851 296.133 48.8931 300.422 51.8846C299.742 52.6855 299.062 53.5099 298.406 54.3462ZM302.566 49.4113C297.68 47.7507 292.77 45.9487 288.645 41.1905C293.578 40.6252 300.586 43.3576 304.816 46.9733C304.055 47.7624 303.305 48.5869 302.566 49.4113ZM307.887 43.8876C302.836 42.6038 297.797 41.1669 293.414 37.1861H301.688C305.027 38.0694 308.273 39.5416 310.699 41.3083C309.762 42.1327 308.824 42.9925 307.887 43.8876ZM313.324 39.1294C311.496 38.5523 309.656 37.9516 307.863 37.1861H315.926C315.059 37.7985 314.191 38.4463 313.324 39.1294Z" fill="#528265"/>
<path d="M111.507 83.3594C107.124 83.3405 103.062 82.4465 101.082 81.8235C101.082 81.8235 119.046 78.7598 120.54 66.2965C106.89 86.0769 92 62.1545 92 62.1545C95.1044 62.973 103.994 65.4023 109.93 64.3775C113.991 63.6763 118.121 60.6996 117.95 60.7463C119.103 69.9211 112.469 59.8437 123.475 56.5942H123.48C124.406 56.2754 132.403 57.0778 132.45 56.2235C132.541 54.5961 138.363 56.7259 133.363 56.726C136.363 56.726 133.363 56.2235 133.363 56.2235C136.263 57.8622 133.959 53.6073 134.533 56.6706C137.132 55.5268 131.042 63.5505 134.45 53.7109C136.232 62.9314 142.892 54.9257 134.456 58.1551C138.109 59.742 154.01 51.7119 155.95 47.2364C157.839 55.3066 144.482 65.182 133.363 64.6572C135.494 65.2162 137.837 64.563 140.067 66.2129C143.058 68.4268 146.547 70.3335 149.798 72.3816C138.865 77.161 128.775 74.8011 128.065 69.8541C127.506 80.8334 119.029 83.3914 111.507 83.3594Z" fill="#528265"/>
<path d="M81.8794 41.2062C77.1727 41.2247 73.022 45.5101 71.49 47.3012C68.5498 46.7724 65.5744 46.5067 62.5728 46.5321C60.2827 46.5516 57.9769 46.7425 55.6622 47.1063C53.0396 44.9948 50.2029 43.381 47.1661 42.7521C44.0722 44.3582 44.9977 46.8209 45.6867 49.2337C49.6535 48.906 53.6996 50.1779 57.7644 52.1119C58.6562 52.7098 59.534 53.3283 60.3974 53.9669C61.5919 58.2092 62.1769 62.4096 62.3603 66.5949C59.4345 67.2153 53.7165 68.9793 52.0515 73.4919L58.691 72.5427L51.5681 76.1457C51.3818 79.445 52.0636 82.1517 53.0072 84.6073L57.5337 79.7932L54.1279 87.2426C55.5851 90.4379 57.1185 93.3938 57.1455 96.9997C58.9821 95.1457 60.7392 93.6246 62.3385 92.1968L61.2471 85.255L63.851 90.82C65.9202 88.8808 67.6282 86.9703 68.7471 84.4418L64.4956 77.8388L69.7214 81.4275C69.746 81.3139 69.7683 81.1975 69.791 81.0815C71.086 74.5052 66.0785 68.4237 64.5578 66.7569C64.4183 63.2534 64.0098 59.7215 63.2101 56.1532C67.8628 59.9491 72.3605 64.5239 76.4598 69.7305C75.5022 73.1069 74.9727 75.8893 74.8009 78.2069L78.5032 74.8538L74.8927 82.1119C75.3085 84.9329 76.5298 86.7858 78.2911 88.1847L81.2609 82.7486L80.1989 89.4399C82.1534 90.5207 84.5087 91.3541 87.0434 92.3584C87.0228 90.3844 87.0774 88.9028 87.0762 86.6647L89.1345 93.2234C91.3435 94.1756 93.6417 95.3281 95.8985 96.9407C96.1889 93.5806 96.1927 90.211 95.8581 87.0253L89.5665 84.5962L95.6127 85.1042C95.1475 82.0655 94.3455 79.2431 93.1556 76.8229L86.0871 75.2218L91.606 74.2172C89.1178 70.7526 85.5022 68.5961 80.5244 68.6004C79.8617 68.6011 79.1744 68.6428 78.4628 68.722C72.6975 61.3268 66.1458 55.1421 59.4014 50.5549C58.8993 50.0339 58.3853 49.5246 57.8598 49.0273C62.4196 48.5025 66.9297 48.6874 71.3657 49.5096C72.2126 51.6341 74.1524 55.6042 77.4705 57.6805L76.6794 51.3722L80.129 58.7994C80.4775 58.8807 80.8351 58.9438 81.2057 58.9796C88.1947 59.6592 92.7594 53.5699 99.8311 54.4233C97.6696 53.3798 96.1894 51.9043 94.8252 50.2937L86.8747 50.36L92.8988 47.942C91.2429 45.93 89.3773 43.925 86.3253 42.436L80.6234 45.9138L83.6556 41.4124C83.0737 41.2736 82.4774 41.2044 81.8794 41.2062Z" fill="#528265"/>
<path d="M12.5742 92.8557C11.5547 92.4152 10.7344 91.8463 10.0078 91.2056C10.3008 90.652 10.6055 90.0973 10.9102 89.5391C11.7305 90.6073 12.3516 91.7862 12.5742 92.8557ZM3.30234 91.1444C2.66133 91.1326 1.99922 91.0442 1.30898 90.8393C2.48086 89.6203 4.41914 88.7865 6.25195 88.5262C6.00469 89.3106 5.775 90.0891 5.56406 90.8605C4.83281 91.0395 4.08398 91.155 3.30234 91.1444ZM7.73672 91.0183C10.3828 81.6704 15.9258 70.9762 22.7344 61.3892C30.0586 51.0955 38.8477 42.0738 46.8164 37.1861H55.2539C35.9414 48.846 17.9883 71.2943 7.73672 91.0183ZM15.4219 90.9477C13.8633 90.2445 12.668 89.2847 11.6484 88.2035C12.0469 87.5027 12.4453 86.7996 12.8555 86.0953C14.1094 87.6016 15.1055 89.3695 15.4219 90.9477ZM19.7109 89.658C17.1094 88.399 15.3633 86.4827 13.8633 84.404C14.3438 83.6125 14.8242 82.8246 15.3281 82.0237C17.4141 84.1437 19.2188 87.1011 19.7109 89.658ZM3.26484 87.2789C2.4082 87.2789 1.52227 87.1812 0.596484 86.9539C2.26172 85.5252 5.12695 84.5901 7.6875 84.4228C7.38047 85.2249 7.09102 86.0222 6.81797 86.8149C5.67422 87.0893 4.5 87.2825 3.26484 87.2789ZM23.7305 86.1624C20.4727 84.8904 18.3984 82.5891 16.4883 80.21C16.8984 79.574 17.3203 78.938 17.7422 78.302C20.3672 80.1628 22.9336 83.3546 23.7305 86.1624ZM27.0234 83.1073C23.332 81.5291 21.0938 78.9851 19.0781 76.3233C19.582 75.5931 20.0977 74.8629 20.6133 74.1444C23.5781 76.3469 26.3555 80.0097 27.0234 83.1073ZM4.88086 82.907C3.28711 82.8953 1.66289 82.6479 0 82.0002C2.43164 80.4691 6.32344 79.786 9.49219 80.0804C9.10781 80.9402 8.74219 81.7882 8.39297 82.6362C7.33828 82.7893 6.27539 82.8953 5.19961 82.907H4.88086ZM30.4219 78.9615C26.5898 77.3244 24.3281 74.6391 22.2539 71.8714C22.7578 71.1882 23.2734 70.5051 23.7891 69.8338C26.8477 72.0009 29.7305 75.7815 30.4219 78.9615ZM8.70703 78.5729C6.16055 78.5611 3.61289 78.2784 1.14258 76.8769C3.90469 75.6755 8.13164 75.6638 11.1211 76.606C10.8047 77.2538 10.4883 77.9133 10.1836 78.5611C9.86719 78.5729 9.53906 78.5729 9.2168 78.5729H8.70703ZM34.3828 75.7815C30.2227 73.9207 27.6211 70.9645 25.3242 67.8552C26.0273 66.9483 26.7539 66.0414 27.4922 65.1463C30.7383 67.9494 33.6445 72.1658 34.3828 75.7815ZM11.5898 73.8736C8.44453 73.8853 5.25234 73.6027 1.93125 71.7654C5.01094 70.2578 10.125 70.3167 13.7813 71.5769C13.3477 72.3425 12.9375 73.0962 12.5273 73.8618C12.2109 73.8736 11.9062 73.8736 11.5898 73.8736ZM39.2812 71.836C34.6406 69.7514 31.9453 66.3358 29.4375 62.8261C30.1172 62.037 30.7969 61.2479 31.4883 60.4706C35.0859 63.2265 38.4727 67.8905 39.2812 71.836ZM13.4648 69.5511C10.3242 69.5511 7.12383 69.2803 3.80508 67.4429C7.04531 65.8647 12.5273 65.9943 16.1953 67.4547C15.7734 68.1378 15.3633 68.8327 14.9531 69.5276C14.4609 69.5394 13.9687 69.5511 13.4648 69.5511ZM44.1211 68.5618C39.0234 66.2298 36.0703 62.3903 33.3164 58.4448C34.1016 57.6086 34.8867 56.7724 35.6836 55.9479C39.5977 59.0219 43.2422 64.1805 44.1211 68.5618ZM49.418 65.323C43.6641 62.5905 40.6055 58.2799 37.6523 53.9575C38.4375 53.1802 39.2344 52.4028 40.0312 51.6491C44.4492 54.8408 48.6445 60.6001 49.418 65.323ZM17.6719 65.111C13.3477 64.9343 8.99297 64.5692 4.68398 61.7897C8.70703 60.1643 15.0703 60.6354 19.4062 62.4728C18.8203 63.3443 18.2344 64.2276 17.6719 65.111ZM54.6445 62.3903C48.668 59.2692 45.5625 54.299 42.5273 49.3642C43.3945 48.5869 44.2734 47.8213 45.1641 47.0793C49.6289 50.6597 53.8594 57.0904 54.6445 62.3903ZM21.4102 59.6226C16.6758 59.2339 11.8945 58.8688 7.29609 55.6064C11.7305 54.0517 18.7852 55.0646 22.9688 57.479C22.4414 58.1857 21.9258 58.9041 21.4102 59.6226ZM55.5469 55.0175C51.6914 52.0024 49.9102 48.9402 47.5312 45.1478C48.5625 44.3351 49.5938 43.546 50.6367 42.7923C52.6875 44.4882 53.9414 46.6907 55.5469 49.0698V55.0175ZM25.4062 54.3462C20.4727 53.2155 15.5156 52.0024 11.2266 47.9155C16.0898 46.9851 23.1328 48.8931 27.4219 51.8846C26.7422 52.6855 26.0625 53.5099 25.4062 54.3462ZM29.5664 49.4113C24.6797 47.7507 19.7695 45.9487 15.6445 41.1905C20.5781 40.6252 27.5859 43.3576 31.8164 46.9733C31.0547 47.7624 30.3047 48.5869 29.5664 49.4113ZM34.8867 43.8876C29.8359 42.6038 24.7969 41.1669 20.4141 37.1861H28.6875C32.0273 38.0694 35.2734 39.5416 37.6992 41.3083C36.7617 42.1327 35.8242 42.9925 34.8867 43.8876ZM40.3242 39.1294C38.4961 38.5523 36.6562 37.9516 34.8633 37.1861H42.9258C42.0586 37.7985 41.1914 38.4463 40.3242 39.1294Z" fill="#528265"/>
<path d="M247.879 41.2065C243.173 41.225 239.022 45.5103 237.49 47.3015C234.55 46.7727 231.574 46.507 228.573 46.5324C226.283 46.5518 223.977 46.7427 221.662 47.1066C219.04 44.995 216.203 43.3813 213.166 42.7523C210.072 44.3585 210.998 46.8212 211.687 49.234C215.654 48.9063 219.7 50.1782 223.764 52.1122C224.656 52.7101 225.534 53.3286 226.397 53.9672C227.592 58.2095 228.177 62.4099 228.36 66.5952C225.434 67.2155 219.717 68.9796 218.052 73.4922L224.691 72.5429L217.568 76.146C217.382 79.4452 218.064 82.152 219.007 84.6075L223.534 79.7935L220.128 87.2429C221.585 90.4382 223.118 93.394 223.145 97C224.982 95.146 226.739 93.6249 228.339 92.1971L227.247 85.2553L229.851 90.8203C231.92 88.8811 233.628 86.9706 234.747 84.442L230.496 77.8391L235.721 81.4278C235.746 81.3141 235.768 81.1978 235.791 81.0817C237.086 74.5054 232.079 68.4239 230.558 66.7571C230.418 63.2536 230.01 59.7217 229.21 56.1535C233.863 59.9494 238.36 64.5242 242.46 69.7308C241.502 73.1072 240.973 75.8896 240.801 78.2072L244.503 74.8541L240.893 82.1122C241.308 84.9332 242.53 86.786 244.291 88.185L247.261 82.7489L246.199 89.4401C248.153 90.521 250.509 91.3544 253.043 92.3587C253.023 90.3847 253.077 88.9031 253.076 86.665L255.134 93.2237C257.343 94.1758 259.642 95.3284 261.899 96.941C262.189 93.5808 262.193 90.2112 261.858 87.0256L255.567 84.5965L261.613 85.1044C261.147 82.0658 260.345 79.2434 259.156 76.8232L252.087 75.2221L257.606 74.2175C255.118 70.7528 251.502 68.5963 246.524 68.6007C245.862 68.6014 245.174 68.6431 244.463 68.7223C238.698 61.327 232.146 55.1423 225.401 50.5552C224.899 50.0342 224.385 49.5248 223.86 49.0276C228.42 48.5028 232.93 48.6877 237.366 49.5099C238.213 51.6344 240.152 55.6045 243.47 57.6808L242.679 51.3724L246.129 58.7997C246.477 58.8809 246.835 58.9441 247.206 58.9799C254.195 59.6594 258.759 53.5701 265.831 54.4236C263.67 53.3801 262.189 51.9045 260.825 50.2939L252.875 50.3603L258.899 47.9423C257.243 45.9303 255.377 43.9253 252.325 42.4362L246.623 45.9141L249.656 41.4126C249.074 41.2739 248.477 41.2047 247.879 41.2065Z" fill="#528265"/>
<path d="M198.973 92.8557C199.992 92.4152 200.812 91.8463 201.539 91.2056C201.246 90.652 200.941 90.0973 200.637 89.5391C199.816 90.6073 199.195 91.7862 198.973 92.8557ZM208.245 91.1444C208.886 91.1326 209.548 91.0442 210.238 90.8393C209.066 89.6203 207.128 88.7865 205.295 88.5262C205.542 89.3106 205.772 90.0891 205.983 90.8605C206.714 91.0395 207.463 91.155 208.245 91.1444ZM203.81 91.0183C201.164 81.6704 195.621 70.9762 188.812 61.3892C181.488 51.0955 172.699 42.0738 164.73 37.1861H156.293C175.605 48.846 193.559 71.2943 203.81 91.0183ZM196.125 90.9477C197.684 90.2445 198.879 89.2847 199.898 88.2035C199.5 87.5027 199.102 86.7996 198.691 86.0953C197.438 87.6016 196.441 89.3695 196.125 90.9477ZM191.836 89.658C194.438 88.399 196.184 86.4827 197.684 84.404C197.203 83.6125 196.723 82.8246 196.219 82.0237C194.133 84.1437 192.328 87.1011 191.836 89.658ZM208.282 87.2789C209.139 87.2789 210.025 87.1812 210.95 86.9539C209.285 85.5252 206.42 84.5901 203.859 84.4228C204.166 85.2249 204.456 86.0222 204.729 86.8149C205.873 87.0893 207.047 87.2825 208.282 87.2789ZM187.816 86.1624C191.074 84.8904 193.148 82.5891 195.059 80.21C194.648 79.574 194.227 78.938 193.805 78.302C191.18 80.1628 188.613 83.3546 187.816 86.1624ZM184.523 83.1073C188.215 81.5291 190.453 78.9851 192.469 76.3233C191.965 75.5931 191.449 74.8629 190.934 74.1444C187.969 76.3469 185.191 80.0097 184.523 83.1073ZM206.666 82.907C208.26 82.8953 209.884 82.6479 211.547 82.0002C209.115 80.4691 205.223 79.786 202.055 80.0804C202.439 80.9402 202.805 81.7882 203.154 82.6362C204.209 82.7893 205.271 82.8953 206.347 82.907H206.666ZM181.125 78.9615C184.957 77.3244 187.219 74.6391 189.293 71.8714C188.789 71.1882 188.273 70.5051 187.758 69.8338C184.699 72.0009 181.816 75.7815 181.125 78.9615ZM202.84 78.5729C205.386 78.5611 207.934 78.2784 210.404 76.8769C207.642 75.6755 203.415 75.6638 200.426 76.606C200.742 77.2538 201.059 77.9133 201.363 78.5611C201.68 78.5729 202.008 78.5729 202.33 78.5729H202.84ZM177.164 75.7815C181.324 73.9207 183.926 70.9645 186.223 67.8552C185.52 66.9483 184.793 66.0414 184.055 65.1463C180.809 67.9494 177.902 72.1658 177.164 75.7815ZM199.957 73.8736C203.102 73.8853 206.295 73.6027 209.616 71.7654C206.536 70.2578 201.422 70.3167 197.766 71.5769C198.199 72.3425 198.609 73.0962 199.02 73.8618C199.336 73.8736 199.641 73.8736 199.957 73.8736ZM172.266 71.836C176.906 69.7514 179.602 66.3358 182.109 62.8261C181.43 62.037 180.75 61.2479 180.059 60.4706C176.461 63.2265 173.074 67.8905 172.266 71.836ZM198.082 69.5511C201.223 69.5511 204.423 69.2803 207.742 67.4429C204.502 65.8647 199.02 65.9943 195.352 67.4547C195.773 68.1378 196.184 68.8327 196.594 69.5276C197.086 69.5394 197.578 69.5511 198.082 69.5511ZM167.426 68.5618C172.523 66.2298 175.477 62.3903 178.23 58.4448C177.445 57.6086 176.66 56.7724 175.863 55.9479C171.949 59.0219 168.305 64.1805 167.426 68.5618ZM162.129 65.323C167.883 62.5905 170.941 58.2799 173.895 53.9575C173.109 53.1802 172.312 52.4028 171.516 51.6491C167.098 54.8408 162.902 60.6001 162.129 65.323ZM193.875 65.111C198.199 64.9343 202.554 64.5692 206.863 61.7897C202.84 60.1643 196.477 60.6354 192.141 62.4728C192.727 63.3443 193.312 64.2276 193.875 65.111ZM156.902 62.3903C162.879 59.2692 165.984 54.299 169.02 49.3642C168.152 48.5869 167.273 47.8213 166.383 47.0793C161.918 50.6597 157.688 57.0904 156.902 62.3903ZM190.137 59.6226C194.871 59.2339 199.652 58.8688 204.251 55.6064C199.816 54.0517 192.762 55.0646 188.578 57.479C189.105 58.1857 189.621 58.9041 190.137 59.6226ZM156 55.0175C159.855 52.0024 161.637 48.9402 164.016 45.1478C162.984 44.3351 161.953 43.546 160.91 42.7923C158.859 44.4882 157.605 46.6907 156 49.0698V55.0175ZM186.141 54.3462C191.074 53.2155 196.031 52.0024 200.32 47.9155C195.457 46.9851 188.414 48.8931 184.125 51.8846C184.805 52.6855 185.484 53.5099 186.141 54.3462ZM181.98 49.4113C186.867 47.7507 191.777 45.9487 195.902 41.1905C190.969 40.6252 183.961 43.3576 179.73 46.9733C180.492 47.7624 181.242 48.5869 181.98 49.4113ZM176.66 43.8876C181.711 42.6038 186.75 41.1669 191.133 37.1861H182.859C179.52 38.0694 176.273 39.5416 173.848 41.3083C174.785 42.1327 175.723 42.9925 176.66 43.8876ZM171.223 39.1294C173.051 38.5523 174.891 37.9516 176.684 37.1861H168.621C169.488 37.7985 170.355 38.4463 171.223 39.1294Z" fill="#528265"/>
<path d="M0 0H430V60.3017H0V0Z" fill="#528265"/>
</g>
<defs>
<filter id="filter0_d_1005_2711" x="-4" y="0" width="438" height="105" filterUnits="userSpaceOnUse" color-interpolation-filters="sRGB">
<feFlood flood-opacity="0" result="BackgroundImageFix"/>
<feColorMatrix in="SourceAlpha" type="matrix" values="0 0 0 0 0 0 0 0 0 0 0 0 0 0 0 0 0 0 127 0" result="hardAlpha"/>
<feOffset dy="4"/>
<feGaussianBlur stdDeviation="2"/>
<feComposite in2="hardAlpha" operator="out"/>
<feColorMatrix type="matrix" values="0 0 0 0 0.290196 0 0 0 0 0.462745 0 0 0 0 0.360784 0 0 0 0.25 0"/>
<feBlend mode="normal" in2="BackgroundImageFix" result="effect1_dropShadow_1005_2711"/>
<feBlend mode="normal" in="SourceGraphic" in2="effect1_dropShadow_1005_2711" result="shape"/>
</filter>
</defs>
</svg>
