<svg width="398" height="266" viewBox="0 0 398 266" fill="none" xmlns="http://www.w3.org/2000/svg">
<path d="M36.5848 261.27C56.79 261.27 73.1696 244.891 73.1696 224.685C73.1696 204.48 56.79 188.101 36.5848 188.101C16.3796 188.101 0 204.48 0 224.685C0 244.891 16.3796 261.27 36.5848 261.27Z" fill="#CDFFE6"/>
<path fill-rule="evenodd" clip-rule="evenodd" d="M352.038 247.328C350.4 244.566 348.649 241.111 346.784 236.963L345.554 237.513C344.244 238.099 342.703 237.602 341.981 236.361C341.244 235.095 341.508 233.483 342.61 232.518L344.253 231.079C341.183 223.646 337.836 214.524 334.211 203.712L355.005 124.469C352.608 167.413 354.015 197.671 359.226 215.245C367.044 241.604 375.799 259.726 383.616 257.42C388.828 255.882 393.622 258.573 398 265.492C395.081 265.492 390.287 265.492 383.616 265.492C380.283 265.492 364.44 262.725 355.69 252.564L353.684 253.46C352.374 254.046 350.833 253.549 350.111 252.309C349.374 251.042 349.638 249.431 350.74 248.465L352.038 247.328ZM304.248 133.693L309.508 169.027C285.252 184.615 269.774 191.129 263.074 188.57C253.024 184.732 248.238 173.502 238.059 150.891C231.391 136.081 223.125 106.141 213.259 61.0703C212.947 59.6424 212.51 58.2447 211.953 56.8932C209.481 50.8898 210.678 48.5561 215.545 49.8921C223.519 52.081 255.231 147.391 267.715 150.962C276.039 153.343 288.216 147.587 304.248 133.693Z" fill="#196D30"/>
<mask id="mask0_822_5007" style="mask-type:alpha" maskUnits="userSpaceOnUse" x="131" y="13" width="237" height="252">
<path d="M154.383 81.9729C153.866 81.8156 153.374 81.7013 152.906 81.63C147.483 80.8028 141.736 80.9076 135.665 81.9445C134.153 82.2029 132.629 81.547 131.778 80.2705C131.109 79.2683 131.379 77.9138 132.382 77.2451C132.492 77.1718 132.608 77.1086 132.729 77.0564C140.135 73.8653 146.183 72.69 150.872 73.5305C158.646 74.9236 188.017 83.166 199.625 106.72C211.233 130.273 227.01 167.292 236.234 177.737C245.459 188.182 263.816 205.162 275.895 193.08C283.948 185.025 291.979 166.766 299.988 138.303L271.921 58.1186C266.709 43.2293 273.404 26.7896 287.535 19.7777C289.637 18.7351 291.56 17.8289 293.304 17.0594C298.182 14.9075 312.191 13.5701 335.333 13.0472C352.598 12.6571 366.91 26.3369 367.3 43.6019C367.341 45.4002 367.226 47.1987 366.957 48.9772L355.705 123.493C353.488 133.852 351.884 141.378 350.894 146.071C344.501 176.361 340.294 197.641 338.273 209.91C337.862 212.406 334.322 242.04 321.29 254.392C308.258 266.743 274.881 268.949 243.913 254.465C231.513 248.665 214.414 233.45 196.057 223.904C189.106 220.29 182.105 217.949 175.342 218.051C155.364 218.354 147.112 245.662 141.649 244.542C133.519 242.874 130.705 238.601 133.206 231.721C152.221 211.351 167.941 202.126 180.368 204.048C201.379 207.299 237.471 232.346 251.056 234.837C267.217 237.8 289.846 235.457 297.488 227.343C302.072 222.474 308.409 207.508 316.497 182.446L316.461 182.434C316.56 182.125 316.391 181.794 316.082 181.694C315.802 181.604 315.498 181.735 315.371 182C305.509 202.659 298.179 215.097 293.38 219.313C275.582 234.951 255.305 230.221 239.806 222.168C233.996 219.149 228.14 213.428 222.239 205.004L220.165 205.931C218.855 206.517 217.314 206.02 216.593 204.779C215.856 203.513 216.119 201.901 217.222 200.936L218.701 199.639C216.271 195.738 213.833 191.38 211.387 186.568L209.642 186.878C208.229 187.129 206.854 186.274 206.454 184.896C206.046 183.489 206.691 181.989 207.995 181.319L208.644 180.985C208.138 179.922 207.632 178.839 207.125 177.737L203.66 167.054L201.2 167.491C199.787 167.742 198.412 166.887 198.012 165.509C197.603 164.102 198.249 162.602 199.552 161.932L201.649 160.854L197.26 147.324L194.633 147.791C193.22 148.043 191.845 147.188 191.445 145.81C191.036 144.402 191.682 142.903 192.986 142.232L195.233 141.076L186.272 113.45C184.792 108.889 182.283 104.728 178.939 101.291C177.655 99.9721 176.409 98.7189 175.201 97.5318L173.013 99.126C171.853 99.9711 170.243 99.8057 169.279 98.7424C168.295 97.6565 168.218 96.0255 169.095 94.8517L170.455 93.0322C166.674 89.588 163.335 86.9179 160.438 85.0222L158.115 87.7993C157.194 88.9 155.591 89.1291 154.399 88.3305C153.181 87.515 152.712 85.951 153.279 84.5998L154.383 81.9729Z" fill="white"/>
</mask>
<g mask="url(#mask0_822_5007)">
<path d="M154.383 81.9729C153.866 81.8156 153.374 81.7013 152.906 81.63C147.483 80.8028 141.736 80.9076 135.665 81.9445C134.153 82.2029 132.629 81.547 131.778 80.2705C131.109 79.2683 131.379 77.9138 132.382 77.2451C132.492 77.1718 132.608 77.1086 132.729 77.0564C140.135 73.8653 146.183 72.69 150.872 73.5305C158.646 74.9236 188.017 83.166 199.625 106.72C211.233 130.273 227.01 167.292 236.234 177.737C245.459 188.182 263.816 205.162 275.895 193.08C283.948 185.025 291.979 166.766 299.988 138.303L271.921 58.1186C266.709 43.2293 273.404 26.7896 287.535 19.7777C289.637 18.7351 291.56 17.8289 293.304 17.0594C298.182 14.9075 312.191 13.5701 335.333 13.0472C352.598 12.6571 366.91 26.3369 367.3 43.6019C367.341 45.4002 367.226 47.1987 366.957 48.9772L355.705 123.493C353.488 133.852 351.884 141.378 350.894 146.071C344.501 176.361 340.294 197.641 338.273 209.91C337.862 212.406 334.322 242.04 321.29 254.392C308.258 266.743 274.881 268.949 243.913 254.465C231.513 248.665 214.414 233.449 196.057 223.904C189.106 220.29 182.105 217.949 175.342 218.051C155.364 218.354 147.112 245.662 141.649 244.542C133.519 242.874 130.705 238.601 133.206 231.721C152.221 211.351 167.941 202.126 180.368 204.048C201.379 207.299 237.471 232.346 251.056 234.837C267.217 237.8 289.846 235.457 297.488 227.343C302.073 222.474 308.409 207.508 316.497 182.446L316.461 182.434C316.56 182.125 316.391 181.794 316.082 181.694C315.802 181.604 315.498 181.735 315.371 182C305.509 202.659 298.179 215.097 293.38 219.313C275.582 234.951 255.305 230.221 239.806 222.168C233.996 219.149 228.14 213.428 222.239 205.004L220.165 205.931C218.855 206.517 217.314 206.02 216.593 204.779C215.856 203.513 216.119 201.901 217.222 200.936L218.701 199.639C216.271 195.738 213.833 191.38 211.387 186.568L209.642 186.878C208.229 187.129 206.854 186.274 206.454 184.896C206.046 183.489 206.691 181.989 207.995 181.319L208.644 180.985C208.138 179.922 207.632 178.839 207.125 177.737L203.66 167.054L201.2 167.491C199.787 167.742 198.412 166.887 198.012 165.509C197.603 164.102 198.249 162.602 199.552 161.932L201.649 160.854L197.26 147.324L194.633 147.791C193.22 148.043 191.845 147.188 191.445 145.81C191.036 144.402 191.682 142.903 192.986 142.232L195.233 141.076L186.272 113.45C184.792 108.889 182.283 104.728 178.939 101.291C177.655 99.9721 176.409 98.7189 175.201 97.5318L173.013 99.126C171.853 99.9711 170.243 99.8057 169.279 98.7424C168.295 97.6565 168.218 96.0255 169.095 94.8517L170.455 93.0322C166.674 89.588 163.335 86.9179 160.438 85.0222L158.115 87.7993C157.194 88.9 155.591 89.1291 154.399 88.3305C153.181 87.515 152.712 85.951 153.279 84.5998L154.383 81.9729Z" fill="#6BB67F"/>
<path fill-rule="evenodd" clip-rule="evenodd" d="M287.089 38.4485L288.066 41.0581C290.721 48.1446 298.618 51.7374 305.704 49.0828C308.241 48.1326 310.439 46.4517 312.021 44.2525L315.411 39.5389C315.916 38.8379 316.893 38.6784 317.594 39.1826C318.229 39.64 318.429 40.4973 318.06 41.1882L312.719 51.1912C309.42 57.37 311.754 65.0534 317.933 68.3526C319.994 69.453 322.319 69.9628 324.651 69.8256L332.73 69.3504C333.592 69.2997 334.331 69.9574 334.382 70.8194C334.425 71.5535 333.951 72.2184 333.243 72.4167L322.729 75.3605C316.21 77.1859 312.405 83.9503 314.231 90.4693C314.897 92.8498 316.268 94.9732 318.163 96.5607L331.012 107.325C331.674 107.879 331.761 108.866 331.207 109.527C330.83 109.977 330.233 110.178 329.661 110.048L321.602 108.208C315.712 106.864 309.847 110.549 308.502 116.439C308.263 117.489 308.179 118.568 308.255 119.642L308.985 130.012C309.046 130.873 308.397 131.62 307.536 131.681C306.895 131.726 306.292 131.375 306.015 130.795L299.895 117.981C298.817 115.722 296.11 114.765 293.851 115.844C292.275 116.596 291.271 118.188 291.271 119.934L269.696 71.1545V54.4256C273.975 57.7435 280.133 56.9642 283.451 52.6851C285.245 50.3715 285.911 47.3774 285.268 44.5215L284.1 39.3407C283.91 38.4984 284.439 37.6616 285.281 37.4717C286.043 37.2999 286.815 37.717 287.089 38.4485ZM200.38 230.627L142.219 239.851L128.461 223.279L145.19 208.895L176.146 196.074L264.95 234.066C257.327 234.718 248.363 234.04 238.059 232.034C227.754 230.028 215.195 229.559 200.38 230.627ZM327.7 92.1048C325.8 92.1048 324.26 90.5649 324.26 88.6652C324.26 86.7656 325.8 85.2256 327.7 85.2256C329.6 85.2256 331.14 86.7656 331.14 88.6652C331.14 90.5649 329.6 92.1048 327.7 92.1048ZM322.384 60.5231C320.485 60.5231 318.945 58.9831 318.945 57.0835C318.945 55.1838 320.485 53.6439 322.384 53.6439C324.284 53.6439 325.824 55.1838 325.824 57.0835C325.824 58.9831 324.284 60.5231 322.384 60.5231ZM300.496 42.387C298.596 42.387 297.056 40.847 297.056 38.9474C297.056 37.0478 298.596 35.5078 300.496 35.5078C302.395 35.5078 303.935 37.0478 303.935 38.9474C303.935 40.847 302.395 42.387 300.496 42.387ZM275.793 49.2662C273.894 49.2662 272.354 47.7262 272.354 45.8266C272.354 43.927 273.894 42.387 275.793 42.387C277.693 42.387 279.233 43.927 279.233 45.8266C279.233 47.7262 277.693 49.2662 275.793 49.2662Z" fill="#196D30"/>
</g>
<path d="M142.9 155.581H141.649C140.267 155.581 139.147 156.701 139.147 158.083V166.838C139.147 168.219 140.267 169.339 141.649 169.339H142.9C144.281 169.339 145.401 168.219 145.401 166.838V158.083C145.401 156.701 144.281 155.581 142.9 155.581Z" fill="#EA6078"/>
<path d="M136.489 154.487H134.301C132.919 154.487 131.799 155.607 131.799 156.989V168.558C131.799 169.94 132.919 171.06 134.301 171.06H136.489C137.871 171.06 138.991 169.94 138.991 168.558V156.989C138.991 155.607 137.871 154.487 136.489 154.487Z" fill="white" stroke="#979797"/>
<path fill-rule="evenodd" clip-rule="evenodd" d="M35.4904 205.925H37.3666C38.5755 205.925 39.5554 206.905 39.5554 208.114V213.742H33.3016V208.114C33.3016 206.905 34.2816 205.925 35.4904 205.925ZM29.5841 232.191L43.2643 232.223L47.2163 240.979C42.4912 241.337 38.8953 241.516 36.4285 241.516C33.9617 241.516 30.2616 241.337 25.328 240.979L29.5841 232.191Z" fill="#EA6078"/>
<path d="M232.435 10.0403C232.531 7.42775 232.53 5.49398 232.43 4.23902C232.367 3.44858 232.343 2.38883 232.358 1.05978C232.361 0.815749 232.506 0.595604 232.728 0.495944C233.044 0.354901 233.413 0.496142 233.555 0.811412L234.176 2.19961C234.27 2.41029 234.421 2.59078 234.611 2.72111C235.181 3.11118 235.959 2.96523 236.35 2.39513L237.802 0.272245C237.93 0.085597 238.148 -0.0175609 238.374 0.00246297C238.718 0.0330436 238.972 0.336727 238.941 0.680759L238.696 3.43268C238.681 3.60371 238.701 3.77605 238.756 3.93895C238.974 4.59427 239.683 4.94844 240.338 4.73L241.749 4.25957C241.946 4.19388 242.163 4.23033 242.328 4.35684C242.602 4.56719 242.653 4.95979 242.443 5.23373L237.496 11.6767L215.114 74.0927C214.296 76.374 212.973 78.4412 211.245 80.1402C204.903 86.3754 194.707 86.2888 188.472 79.9468L182.549 73.9222C182.49 73.862 182.43 73.8025 182.369 73.7437C178.094 69.5944 171.264 69.6967 167.115 73.9722L130.423 111.78L126.608 108.077L163.3 70.2701C169.494 63.8878 179.689 63.7351 186.071 69.9291C186.162 70.0168 186.251 70.1056 186.339 70.1955L192.262 76.22C196.439 80.4686 203.27 80.5266 207.518 76.3496C208.676 75.2114 209.562 73.8266 210.11 72.2984L232.435 10.0403V10.0403ZM91.0011 109.396C92.0628 108.383 93.7452 108.422 94.7589 109.483C95.7726 110.545 95.7336 112.227 94.672 113.241L73.0959 133.841C69.3458 137.422 69.2083 143.364 72.7888 147.115C72.9839 147.319 73.1881 147.514 73.4008 147.7C78.1247 151.829 85.1544 151.894 89.9534 147.852L130.367 113.82C131.49 112.874 133.167 113.018 134.112 114.141C135.058 115.263 134.914 116.94 133.791 117.886L93.3774 151.918C86.5715 157.65 76.602 157.558 69.9026 151.703C69.5695 151.412 69.2497 151.105 68.9441 150.785C63.3362 144.912 63.5516 135.604 69.4251 129.997L91.0011 109.396Z" fill="#BEA465"/>
<path d="M36.4285 176.219C40.8322 176.219 44.4021 179.789 44.4021 184.192V213.742C44.4021 215.123 43.2822 216.243 41.9006 216.243H30.9564C29.5749 216.243 28.4549 215.123 28.4549 213.742V184.192C28.4549 179.789 32.0248 176.219 36.4285 176.219ZM40.9625 184.192C40.9625 181.688 38.9326 179.658 36.4285 179.658C33.9245 179.658 31.8945 181.688 31.8945 184.192V212.804H40.9625V184.192ZM26.0883 240.27C29.6057 240.996 33.0525 241.359 36.4285 241.359C39.7917 241.359 43.1351 240.999 46.4585 240.278C46.7961 240.205 47.129 240.42 47.2022 240.757C47.2116 240.801 47.2163 240.845 47.2163 240.89V241.049C47.2164 241.415 46.9621 241.732 46.6047 241.812C43.2847 242.552 39.8927 242.922 36.4285 242.922C32.9555 242.922 29.4619 242.55 25.9478 241.806C25.5865 241.73 25.328 241.411 25.328 241.042V240.89C25.328 240.54 25.6112 240.257 25.9605 240.257C26.0034 240.257 26.0463 240.262 26.0883 240.27Z" fill="#EA6078"/>
<path fill-rule="evenodd" clip-rule="evenodd" d="M32.2071 212.491H40.6497C44.7944 212.491 48.1543 215.851 48.1543 219.996V227.648C48.1543 231.433 45.3345 234.626 41.5778 235.095C39.5481 235.348 37.8837 235.474 36.5848 235.474C35.2398 235.474 33.473 235.338 31.2843 235.067C27.5252 234.601 24.7025 231.407 24.7025 227.62V219.996C24.7025 215.851 28.0624 212.491 32.2071 212.491Z" fill="#196D30"/>
<path fill-rule="evenodd" clip-rule="evenodd" d="M30.7999 217.372C31.7497 217.372 32.5197 218.142 32.5197 219.092V228.785C32.5197 229.735 31.7497 230.505 30.7999 230.505C29.8501 230.505 29.0801 229.735 29.0801 228.785V219.092C29.0801 218.142 29.8501 217.372 30.7999 217.372ZM36.4283 216.624C37.3781 216.624 38.1481 217.394 38.1481 218.344V229.601C38.1481 230.551 37.3781 231.32 36.4283 231.32C35.4785 231.32 34.7085 230.551 34.7085 229.601V218.344C34.7085 217.394 35.4785 216.624 36.4283 216.624ZM42.0567 217.372C43.0066 217.372 43.7765 218.142 43.7765 219.092V228.785C43.7765 229.735 43.0066 230.505 42.0567 230.505C41.1069 230.505 40.3369 229.735 40.3369 228.785V219.092C40.3369 218.142 41.1069 217.372 42.0567 217.372Z" fill="#6BB67F"/>
<path fill-rule="evenodd" clip-rule="evenodd" d="M290.391 49.8916C302.124 59.8431 308.836 68.5984 310.526 76.1576C312.217 83.7168 309.979 94.9737 303.815 109.928C291.871 100.063 285.079 91.4643 283.439 84.1312C281.8 76.7982 284.117 65.385 290.391 49.8916Z" fill="white"/>
<path fill-rule="evenodd" clip-rule="evenodd" d="M290.579 71.8895L291.724 71.671C292.315 71.5582 292.886 71.9434 293.003 72.5334L296.787 91.6457C296.904 92.2386 296.519 92.8145 295.926 92.9319C295.923 92.9323 295.921 92.9328 295.918 92.9333L294.773 93.1518C294.182 93.2646 293.611 92.8794 293.494 92.2894L289.71 73.1771C289.593 72.5842 289.978 72.0083 290.571 71.8909C290.574 71.8905 290.576 71.89 290.579 71.8895Z" fill="#737373"/>
<path fill-rule="evenodd" clip-rule="evenodd" d="M211.749 48.599C218.606 45.694 222.947 45.9686 224.769 49.4226C225.503 50.813 228.91 56.7236 227.74 57.0835C226.67 57.4128 216.796 51.9241 214.763 51.9241C213.408 51.9241 213.096 55.3637 213.825 62.2429C211.688 57.3669 210.385 54.0837 209.917 52.3932C209.489 50.8478 210.273 49.2245 211.749 48.599V48.599Z" fill="#6BB67F"/>
<mask id="mask1_822_5007" style="mask-type:alpha" maskUnits="userSpaceOnUse" x="50" y="104" width="147" height="160">
<path d="M103.688 131.045L133.344 119.262L129.298 109.928L146.418 111.342C149.333 111.583 152.267 111.414 155.135 110.839L187.771 104.3L196.057 122.592L185.113 130.566C178.025 135.673 169.27 138.227 158.847 138.227C153.83 138.227 149.851 138.13 146.911 137.937L151.342 159.177L107.097 162.705L101.725 152.374C97.8886 156.043 94.6762 158.623 92.0875 160.115C85.6171 163.845 76.8976 166.648 74.8422 167.529C71.5384 168.944 67.2807 171.007 62.0692 173.717C54.1477 164.128 50.187 159.333 50.187 159.333C50.187 159.333 53.0012 157.04 58.6296 152.454L73.3261 142.604L83.7039 128.078C85.9812 124.89 88.8371 122.159 92.123 120.026L105.377 111.424L103.688 131.045ZM110.264 166.53L151.342 159.177C152.351 166.634 152.508 175.024 151.811 184.349C151.115 193.673 150.646 202.167 150.404 209.833C152.176 214.106 154.157 217.807 156.345 220.933C158.534 224.06 160.358 226.927 161.818 229.532L176.67 250.483L173.387 254.704L151.811 263.772L151.342 257.987L150.404 254.391L129.027 223.32C125.436 218.1 123.515 211.912 123.519 205.577L123.53 187.309L104.439 211.396C105.831 217.551 106.665 222.294 106.94 225.624C107.216 228.954 107.054 232.339 106.455 235.78L107.002 242.404V263.695H63.4763L63.4971 258.822C63.516 254.402 66.6178 250.595 70.9429 249.683L81.9075 247.372L80.9464 236.959C79.8137 233.377 79.0976 229.963 78.7981 226.718C78.5992 224.563 78.2934 219.332 77.8807 211.026C77.4117 201.586 81.2376 192.44 88.2886 186.146L110.264 166.53Z" fill="white"/>
</mask>
<g mask="url(#mask1_822_5007)">
<path d="M103.688 131.045L133.344 119.262L129.298 109.928L146.418 111.342C149.333 111.583 152.267 111.414 155.135 110.839L187.771 104.3L196.057 122.592L185.113 130.566C178.025 135.673 169.27 138.227 158.847 138.227C153.83 138.227 149.851 138.13 146.911 137.937L151.342 159.177L107.097 162.705L101.725 152.374C97.8886 156.043 94.6762 158.623 92.0875 160.115C85.6171 163.845 76.8976 166.648 74.8422 167.529C71.5384 168.944 67.2807 171.007 62.0692 173.717C54.1477 164.128 50.187 159.333 50.187 159.333C50.187 159.333 53.0012 157.04 58.6296 152.454L73.3261 142.604L83.7039 128.078C85.9812 124.89 88.8371 122.159 92.123 120.026L105.377 111.424L103.688 131.045ZM110.264 166.53L151.342 159.177C152.351 166.634 152.508 175.024 151.811 184.349C151.115 193.673 150.646 202.167 150.404 209.833C152.176 214.106 154.157 217.807 156.345 220.933C158.534 224.06 160.358 226.927 161.818 229.532L176.67 250.483L173.387 254.704L151.811 263.772L151.342 257.987L150.404 254.391L129.027 223.32C125.436 218.1 123.515 211.912 123.519 205.577L123.53 187.309L104.439 211.396C105.831 217.551 106.665 222.294 106.94 225.624C107.216 228.954 107.054 232.339 106.455 235.78L107.002 242.404V263.695H63.4763L63.4971 258.822C63.516 254.402 66.6178 250.595 70.9429 249.683L81.9075 247.372L80.9464 236.959C79.8137 233.377 79.0976 229.963 78.7981 226.718C78.5992 224.563 78.2934 219.332 77.8807 211.026C77.4117 201.586 81.2376 192.44 88.2886 186.146L110.264 166.53Z" fill="#E8E5DE"/>
<path fill-rule="evenodd" clip-rule="evenodd" d="M79.4234 236.88L108.504 235.473V264.71L67.0721 265.492L71.4498 248.763L81.1432 244.854L79.4234 236.88ZM162.755 227.969L184.018 257.674C160.358 262.99 148.32 265.648 147.903 265.648C147.486 265.648 144.776 256.632 139.773 238.6L162.755 227.969Z" fill="#737373"/>
</g>
<path fill-rule="evenodd" clip-rule="evenodd" d="M93.9634 104.925L88.9106 110.82C88.5656 111.223 88.5118 111.799 88.7763 112.258L90.7058 115.609C91.0408 116.191 91.7754 116.405 92.3701 116.093L97.872 113.211L93.9634 104.925Z" fill="#737373"/>
<path fill-rule="evenodd" clip-rule="evenodd" d="M194.942 126.351L185.776 103.509C187.919 101.602 189.59 100.479 190.79 100.142C193.214 99.4608 196.359 100.663 197.757 99.8782C201.413 97.8264 200.062 94.7918 209.015 90.5035C217.969 86.2151 219.239 85.8275 226.048 86.3283C231.178 86.7056 231.659 89.3592 226.735 93.1052C225.123 94.3312 216.721 98.1571 215.903 98.785C213.692 100.483 212.452 102.502 212.182 104.843L219.564 103.311C220.604 103.095 221.635 103.72 221.924 104.743C222.229 105.827 221.782 106.982 220.826 107.577C215.096 111.145 210.574 113.338 207.263 114.157C206.183 114.423 205.059 114.973 203.892 115.806C202.882 116.525 203.016 119.634 201.302 121.702C200.375 122.82 198.255 124.37 194.942 126.351ZM65.5087 172.153C63.7607 174.167 62.2493 175.522 60.9747 176.218C58.6174 177.506 57.1834 175.678 56.2843 176.531C55.2443 177.518 53.8248 179.401 53.4701 180.44C52.0109 184.713 48.9882 187.579 44.4021 189.039V184.192L44.1088 182.301C43.7035 180.868 43.0195 181.499 42.0569 184.192C41.6587 185.306 41.2752 186.85 40.9625 189.039C40.7182 190.749 34.5523 191.071 30.6437 189.664C28.4266 188.866 28.8717 185.786 28.4549 184.192C27.8982 182.063 27.2531 181.014 30.6369 176.456C34.5823 171.142 38.3658 168.055 41.9875 167.194C43.569 166.498 44.7387 165.702 45.4965 164.805C46.3411 163.806 46.5778 161.855 47.0599 160.897C47.62 159.783 49.1313 158.376 51.594 156.675L65.5087 172.153Z" fill="#737373"/>
<mask id="mask2_822_5007" style="mask-type:alpha" maskUnits="userSpaceOnUse" x="86" y="64" width="57" height="79">
<path d="M93.8135 118.167C90.0627 105.224 88.028 96.5367 87.7096 92.1047C87.675 91.6236 87.5656 91.0857 87.3813 90.4909C84.1441 80.0453 89.795 68.9181 100.139 65.3696C101.588 64.8725 103.089 64.5408 104.612 64.3806C115.783 63.2066 125.79 71.3102 126.964 82.4805L129.612 107.676L131.732 107.231C133.176 107.255 134.285 107.338 135.061 107.48C135.837 107.622 137.014 107.957 138.593 108.487C140.285 108.61 141.449 108.895 142.085 109.342C142.721 109.788 142.898 110.445 142.615 111.312L140.181 111.962C138.326 112.941 137.069 113.926 136.41 114.917C131.403 122.443 128.133 129.388 125.239 132.194C120.04 137.233 117.924 140.283 109.654 141.551C101.384 142.819 99.193 142.068 93.758 137.021C90.1347 133.656 88.2228 128.899 88.0223 122.748C90.5012 120.946 92.2837 119.565 93.37 118.606C93.5291 118.465 93.6769 118.319 93.8135 118.167Z" fill="white"/>
</mask>
<g mask="url(#mask2_822_5007)">
<path d="M93.8135 118.167C90.0627 105.224 88.028 96.5367 87.7096 92.1047C87.675 91.6236 87.5656 91.0857 87.3813 90.4909C84.1441 80.0453 89.795 68.9181 100.139 65.3696C101.588 64.8725 103.089 64.5408 104.612 64.3806C115.783 63.2066 125.79 71.3102 126.964 82.4805L129.612 107.676L131.732 107.231C133.176 107.255 134.285 107.338 135.061 107.48C135.837 107.622 137.014 107.957 138.593 108.487C140.285 108.61 141.449 108.895 142.085 109.342C142.721 109.788 142.898 110.445 142.615 111.312L140.181 111.962C138.326 112.941 137.069 113.926 136.41 114.917C131.403 122.443 128.133 129.388 125.239 132.194C120.04 137.233 117.924 140.283 109.654 141.551C101.384 142.819 99.193 142.068 93.758 137.021C90.1347 133.656 88.2228 128.899 88.0223 122.748C90.5012 120.946 92.2837 119.565 93.37 118.606C93.5291 118.465 93.6769 118.319 93.8135 118.167Z" fill="#EA6078"/>
<path fill-rule="evenodd" clip-rule="evenodd" d="M138.553 108.335C136.056 108.73 134.15 109.726 132.833 111.323C128.776 116.245 125.49 125.865 122.282 129.084C115.129 136.261 113.919 136.189 109.05 137.488C104.181 138.788 100.188 137.103 97.0727 134.187C94.996 132.243 93.1605 127.643 91.566 120.387L87.0843 123.217L89.2907 131.883C94.3622 139.211 96.898 142.876 96.898 142.876C96.898 142.876 103.482 142.827 116.651 142.73L122.332 137.195L146.429 109.107L138.553 108.335Z" fill="#EA6078"/>
</g>
<path fill-rule="evenodd" clip-rule="evenodd" d="M119.997 95.965C114.795 98.6514 108.373 96.4411 105.652 91.0281C102.931 85.6151 104.941 79.0492 110.143 76.3628C115.345 73.6764 121.767 75.8867 124.489 81.2997C127.21 86.7127 125.199 93.2786 119.997 95.965Z" fill="#737373"/>
<path d="M114.231 75.6709C113.345 75.7268 112.466 75.8927 111.618 76.1678L113.36 77.4335L114.05 75.9862C114.056 75.9739 114.062 75.9616 114.068 75.9494C114.117 75.8518 114.171 75.7589 114.231 75.6709ZM123.992 80.7724C123.983 80.7925 123.974 80.8125 123.964 80.8325L122.44 84.0283L125.424 86.1963C125.43 86.2001 125.435 86.2038 125.44 86.2076C125.473 84.3266 124.988 82.4397 123.992 80.7724ZM119.713 95.2043C119.494 95.1242 119.281 95.0126 119.083 94.8683L117.735 93.8895L116.642 96.1803C117.702 96.0146 118.739 95.6889 119.713 95.2043ZM106.433 91.9863C106.461 91.9056 106.494 91.8257 106.532 91.7468L108.656 87.2946L104.731 84.4439C104.679 84.406 104.629 84.3666 104.58 84.3257C104.159 86.9664 104.784 89.734 106.433 91.9863ZM110.584 76.5641C109.363 77.1077 108.229 77.8929 107.259 78.9172C106.07 80.1717 105.262 81.6417 104.829 83.19C104.937 83.3831 105.089 83.557 105.281 83.6966L109.062 86.4428L112.954 78.2852L110.584 76.5641ZM121.214 94.292C121.416 94.1448 121.613 93.9896 121.806 93.8263C121.812 93.8181 121.818 93.8097 121.825 93.8013L121.83 93.7941L124.694 89.8555C125.007 89.0839 125.222 88.283 125.338 87.4714C125.229 87.2698 125.073 87.0883 124.874 86.9437L122.033 84.8801L118.142 93.0377L119.633 94.121C120.111 94.4681 120.716 94.5136 121.214 94.292ZM123.258 79.703C122.91 79.2586 122.52 78.8361 122.09 78.4407C121.884 78.2513 121.672 78.0715 121.455 77.9014L117.653 76.008C116.987 75.831 116.308 75.7198 115.626 75.6738C115.327 75.8161 115.073 76.0541 114.915 76.3711C114.909 76.3825 114.909 76.3825 114.904 76.3941L114.138 77.9987L121.661 83.4631L123.111 80.4246C123.222 80.1922 123.268 79.9451 123.258 79.703ZM115.534 96.2948C115.551 96.2666 115.566 96.2378 115.581 96.2082C115.587 96.1967 115.587 96.1967 115.592 96.1852L116.957 93.3242L109.434 87.8599L107.385 92.1546C107.261 92.4153 107.217 92.6944 107.245 92.9641C107.423 93.1538 107.609 93.3385 107.804 93.5176C109.981 95.5165 112.786 96.4349 115.534 96.2948ZM121.255 84.3148L113.732 78.8505L109.84 87.0081L117.363 92.4724L121.255 84.3148ZM125.852 96.1595C120.245 102.108 110.811 102.419 104.782 96.8537C98.7534 91.2888 98.4121 81.9556 104.02 76.0074C109.628 70.0591 119.061 69.7483 125.09 75.3132C131.119 80.8781 131.46 90.2113 125.852 96.1595ZM86.6545 81.8613L89.9036 102.531C87.2981 101.063 85.5088 98.4954 85.0583 95.5779L84.0731 89.1982C83.6506 86.4625 84.6163 83.7179 86.6545 81.8613Z" fill="#BEA465"/>
<path fill-rule="evenodd" clip-rule="evenodd" d="M149.622 150.89L107.096 162.773L109.129 167.619L151.342 159.177C151.15 157.029 150.942 155.413 150.717 154.33C150.492 153.247 150.127 152.1 149.622 150.89Z" fill="#EA6078"/>
<path fill-rule="evenodd" clip-rule="evenodd" d="M143.838 221.872C145.705 222.008 146.653 222.52 146.684 223.409C146.857 228.406 146.794 231.751 146.496 233.442C144.619 244.073 143.838 244.073 139.773 245.011C131.986 246.808 129.38 243.16 131.955 234.067L143.838 221.872Z" fill="#6BB67F"/>
<path fill-rule="evenodd" clip-rule="evenodd" d="M135.994 151.946L138.127 151.454C139.473 151.143 140.816 151.983 141.127 153.329L143.237 162.469C143.548 163.815 142.709 165.158 141.363 165.469L139.23 165.962C137.884 166.272 136.54 165.433 136.23 164.087L134.119 154.947C133.809 153.6 134.648 152.257 135.994 151.946ZM122.118 155.434L124.242 154.904C125.582 154.57 126.94 155.386 127.274 156.726L129.544 165.829C129.878 167.169 129.062 168.527 127.722 168.861L125.598 169.39C124.257 169.725 122.9 168.909 122.566 167.568L120.296 158.466C119.962 157.126 120.778 155.768 122.118 155.434ZM108.835 158.694L110.99 158.314C112.351 158.074 113.648 158.983 113.888 160.344L115.517 169.582C115.757 170.942 114.849 172.24 113.488 172.48L111.333 172.86C109.972 173.1 108.675 172.191 108.435 170.831L106.806 161.592C106.566 160.232 107.474 158.934 108.835 158.694Z" fill="#EA6078"/>
<path fill-rule="evenodd" clip-rule="evenodd" d="M138.03 156.783C137.168 156.722 136.519 155.975 136.579 155.114C136.639 154.253 137.386 153.603 138.248 153.663C139.109 153.724 139.758 154.471 139.698 155.332C139.638 156.193 138.891 156.843 138.03 156.783ZM124.238 160.234C123.375 160.189 122.713 159.453 122.758 158.591C122.803 157.728 123.539 157.066 124.401 157.111C125.264 157.156 125.926 157.892 125.881 158.754C125.836 159.617 125.1 160.279 124.238 160.234ZM110.614 163.63C109.757 163.525 109.148 162.745 109.253 161.888C109.358 161.031 110.138 160.422 110.996 160.527C111.853 160.632 112.462 161.412 112.357 162.269C112.252 163.126 111.471 163.736 110.614 163.63Z" fill="#BEA465"/>
<path fill-rule="evenodd" clip-rule="evenodd" d="M97.872 126.814C96.6631 126.814 95.6832 125.834 95.6832 124.625C95.6832 123.416 96.6631 122.436 97.872 122.436C99.0809 122.436 100.061 123.416 100.061 124.625C100.061 125.834 99.0809 126.814 97.872 126.814ZM116.633 122.124C115.425 122.124 114.445 121.144 114.445 119.935C114.445 118.726 115.425 117.746 116.633 117.746C117.842 117.746 118.822 118.726 118.822 119.935C118.822 121.144 117.842 122.124 116.633 122.124ZM108.503 133.693C107.295 133.693 106.315 132.713 106.315 131.504C106.315 130.296 107.295 129.316 108.503 129.316C109.712 129.316 110.692 130.296 110.692 131.504C110.692 132.713 109.712 133.693 108.503 133.693Z" fill="#EA6078"/>
<path fill-rule="evenodd" clip-rule="evenodd" d="M74.5765 260.958H106.471C107.248 260.958 107.878 261.588 107.878 262.365C107.878 263.142 107.248 263.772 106.471 263.772H69.7298H63.476V253.515C63.476 252.199 64.3878 251.059 65.6715 250.769L74.5765 248.763V260.958ZM173.076 255.128C172.98 255.204 172.872 255.269 172.754 255.319L152.605 263.871C151.89 264.175 151.064 263.841 150.76 263.126C150.649 262.862 150.623 262.584 150.672 262.322L148.158 255.926C147.062 253.139 148.341 249.982 151.067 248.743L161.969 243.789C163.142 243.255 164.528 243.587 165.333 244.595L171.786 252.68C171.858 252.657 171.931 252.641 172.003 252.63L175.57 248.227C176.059 247.623 176.945 247.529 177.549 248.019C178.153 248.508 178.246 249.394 177.757 249.998L174.018 254.615C173.775 254.915 173.433 255.089 173.076 255.128Z" fill="#EA6078"/>
<path fill-rule="evenodd" clip-rule="evenodd" d="M233.893 109.929C232.166 109.929 230.766 108.529 230.766 106.802C230.766 105.075 232.166 103.675 233.893 103.675C235.62 103.675 237.019 105.075 237.019 106.802C237.019 108.529 235.62 109.929 233.893 109.929ZM242.023 131.817C240.296 131.817 238.896 130.417 238.896 128.69C238.896 126.963 240.296 125.563 242.023 125.563C243.749 125.563 245.149 126.963 245.149 128.69C245.149 130.417 243.749 131.817 242.023 131.817ZM250.778 152.455C249.051 152.455 247.651 151.055 247.651 149.328C247.651 147.601 249.051 146.201 250.778 146.201C252.505 146.201 253.905 147.601 253.905 149.328C253.905 151.055 252.505 152.455 250.778 152.455Z" fill="#6BB67F"/>
<path d="M176.827 213.742C178.295 213.742 179.484 212.552 179.484 211.084C179.484 209.616 178.295 208.426 176.827 208.426C175.359 208.426 174.169 209.616 174.169 211.084C174.169 212.552 175.359 213.742 176.827 213.742Z" fill="#6BB67F"/>
<path d="M199.341 220.62C200.808 220.62 201.998 219.43 201.998 217.963C201.998 216.495 200.808 215.305 199.341 215.305C197.873 215.305 196.683 216.495 196.683 217.963C196.683 219.43 197.873 220.62 199.341 220.62Z" fill="#6BB67F"/>
<path opacity="0.591634" d="M354.235 77.8301L356.252 78.1136L356.005 79.8711L357.518 80.0837L357.2 82.3433L355.687 82.1307L354.816 88.332L352.799 88.0485L347.911 81.0378L348.228 78.7781L353.988 79.5876L354.235 77.8301ZM353.371 85.9563L353.937 81.9309L350.84 81.4957L353.371 85.9563ZM358.893 72.7701C358.362 76.5493 356.458 78.1116 353.452 77.6891C350.459 77.2685 349.073 75.2437 349.604 71.4645C350.133 67.6989 352.039 66.123 355.019 66.5418C358.012 66.9625 359.422 69.0045 358.893 72.7701ZM356.878 72.3309C357.177 70.2038 356.318 69.0946 354.668 68.8628C353.031 68.6327 351.913 69.464 351.614 71.5911C351.315 73.7182 352.148 74.8239 353.798 75.0557C355.46 75.2893 356.579 74.458 356.878 72.3309ZM357.286 55.5724L359.303 55.8559L359.056 57.6134L360.569 57.826L360.252 60.0856L358.739 59.873L357.867 66.0743L355.85 65.7908L350.962 58.7801L351.28 56.5205L357.039 57.3299L357.286 55.5724ZM356.417 63.386L356.983 59.3606L353.886 58.9254L356.417 63.386Z" fill="#196D30"/>
</svg>
