<svg width="16" height="12" viewBox="0 0 16 12" fill="none" xmlns="http://www.w3.org/2000/svg">
<path d="M14.8627 6.72L11.7627 3.62667C11.6396 3.50106 11.4719 3.42917 11.296 3.42667C11.1179 3.42741 10.9474 3.49943 10.8227 3.62667L7.72268 6.72C7.59648 6.84518 7.52549 7.01558 7.52549 7.19333C7.52549 7.37109 7.59648 7.54149 7.72268 7.66667C7.84786 7.79288 8.01826 7.86387 8.19602 7.86387C8.37378 7.86387 8.54417 7.79288 8.66935 7.66667L10.6294 5.70667V11.3333C10.6294 11.7015 10.9278 12 11.296 12C11.6642 12 11.9627 11.7015 11.9627 11.3333V5.70667L13.916 7.66667C14.1774 7.92808 14.6013 7.92808 14.8627 7.66667C15.1241 7.40525 15.1241 6.98141 14.8627 6.72Z" fill="#F16E00" fill-opacity="0.933333"/>
<path d="M8.00269 4.19333C7.87751 4.06713 7.70711 3.99613 7.52935 3.99613C7.35159 3.99613 7.1812 4.06713 7.05602 4.19333L5.10269 6.15333V0.666667C5.10269 0.298477 4.80421 0 4.43602 0C4.06783 0 3.76935 0.298477 3.76935 0.666667V6.15333L1.80935 4.19333C1.54794 3.93192 1.1241 3.93192 0.862687 4.19333C0.601272 4.45475 0.601272 4.87859 0.862687 5.14L3.96269 8.23333C4.22271 8.49182 4.64266 8.49182 4.90269 8.23333L8.00269 5.14C8.12889 5.01482 8.19989 4.84443 8.19989 4.66667C8.19989 4.48891 8.12889 4.31851 8.00269 4.19333Z" fill="#F16E00" fill-opacity="0.933333"/>
</svg>
