<svg width="97" height="100" viewBox="0 0 97 100" fill="none" xmlns="http://www.w3.org/2000/svg">
<path d="M22.9814 7.00135C15.3337 7.11267 9.25581 12.0385 3.15159 14.4877C1.2702 19.3295 1.60066 24.642 4.84523 27.7865C7.05333 25.6771 19.151 19.0092 22.6997 19.0756C27.7694 21.9662 25.9856 33.9388 23.3945 37.5912C22.2491 39.1732 17.3109 38.9779 15.7524 37.3763C16.9917 34.2513 18.2497 31.1459 21.8548 28.5092C20.4653 23.2357 10.4763 29.017 6.18211 30.2474L5.91924 40.6185C-7.37259 44.4662 5.18696 58.5678 10.0594 62.6498C9.87355 69.1342 11.5972 74.7006 23.0753 76.3217C35.5991 81.8099 44.7808 90.306 58.6753 92.0443C68.195 92.2787 69.791 88.431 68.5893 81.1849C70.7486 77.2396 72.1756 73.1576 71.6123 68.7045C69.7346 72.3568 66.0732 75.8334 62.5621 78.1771C61.9237 77.9623 61.304 77.7084 60.6844 77.4545C62.5433 73.9779 64.0829 70.4037 64.0642 66.3998C61.5106 69.8178 58.8443 72.9818 55.5585 75.1498C54.0188 74.349 52.5542 73.4896 51.1648 72.5717C53.8123 69.9545 54.7886 66.6537 55.934 63.4506C53.3053 65.8724 49.6627 67.2982 45.7947 68.4896C44.931 67.7084 44.0673 66.8881 43.2224 66.0287L45.6821 59.9545L41.1757 63.8021C40.0867 62.5521 39.0164 61.2045 37.965 59.7787L39.7487 54.8373L36.3314 57.5131C34.4538 54.1342 31.75 51.6537 30.8487 50.8529C31.5246 46.6146 37.1388 41.7513 37.1388 41.7513C40.2932 41.1068 42.4713 42.2982 45.0624 43.2748L44.1987 47.806L48.4797 44.6029C49.0243 44.7982 49.5876 45.0131 50.1508 45.2474L49.1369 50.6185L53.8123 46.6537C55.5397 47.3178 57.2859 47.9623 59.0133 48.5678C58.1496 51.2826 56.3471 53.7826 54.6947 56.3021C58.1872 54.5834 61.9237 53.1381 64.3083 50.2474C66.0169 50.7357 67.7256 51.1654 69.4155 51.4974C68.702 54.974 67.3501 58.2357 65.51 61.3412C69.8285 58.8412 73.2458 55.9701 74.5977 52.2396C75.7994 52.3373 76.9823 52.3763 78.1465 52.3568C78.7661 56.4584 77.9587 60.5599 76.8321 64.6615C80.5123 60.6576 84.3427 56.6928 85.0562 51.4584C85.6946 51.3021 86.333 51.1263 86.9714 50.892C87.4033 46.3412 86.8587 46.8099 89.7128 43.8607C89.863 35.8138 83.9672 30.4623 75.0672 26.4388L51.5403 20.931C48.1605 17.4799 46.02 13.3197 35.693 11.6869C31.9002 9.05994 27.0371 6.93885 22.9814 7.00135ZM36.7069 19.5248C38.4907 23.9193 34.7542 33.392 34.5476 33.6459C30.567 33.0209 33.9844 22.2592 30.8299 19.5248C31.8626 16.8236 36.1624 17.6342 36.7069 19.5248ZM42.6403 22.2982C50.5076 23.8412 57.2296 28.6459 57.9243 32.5326C58.3374 34.7982 58.2059 36.5951 56.7414 37.5717C56.0466 36.0092 54.7323 35.2474 52.5542 35.5599C51.2962 30.9896 43.8232 34.0756 41.1757 34.8568C40.4059 29.681 41.3635 27.2396 42.6403 22.2982ZM64.5711 31.0092C65.7916 30.9506 66.8806 31.5756 67.1247 33.0209C67.2749 37.8842 60.9097 39.3881 61.1351 34.2513C61.3416 32.2396 63.0502 31.0678 64.5711 31.0092ZM74.5602 31.2435C74.5602 31.2435 81.6952 32.3763 84.1549 34.8178C85.7322 36.3607 86.671 41.0482 86.671 41.0482C86.1265 38.9584 75.3864 31.4974 74.5602 31.2435ZM21.2915 41.4974C24.8402 41.4584 28.3514 41.6732 31.4683 42.1224L25.704 48.1185C20.6531 47.7084 14.4024 44.5248 10.7523 42.2592C14.1151 41.7709 17.7427 41.517 21.2915 41.4974ZM14.4794 50.0717C16.0341 50.0131 17.6864 53.6459 16.0153 54.8178C14.8624 55.4818 12.9247 53.5873 12.9247 52.2201C13.2927 50.6771 13.8842 50.0912 14.4794 50.0717Z" fill="#5A3725"/>
</svg>
