<svg width="25" height="24" viewBox="0 0 25 24" fill="none" xmlns="http://www.w3.org/2000/svg">
<path d="M22.1 8.40001C22.101 6.89833 21.5388 5.45087 20.5245 4.34351C19.5102 3.23614 18.1175 2.54937 16.6215 2.41884C15.1255 2.28831 13.635 2.7235 12.4442 3.63847C11.2535 4.55343 10.4491 5.88165 10.19 7.36081C9.67759 9.15241 9.19039 10.0992 8.93599 10.5168L6.67519 12.7764C6.59147 12.8604 6.53452 12.9673 6.51151 13.0836C6.48851 13.1999 6.50049 13.3205 6.54594 13.43C6.59139 13.5395 6.66828 13.6331 6.76689 13.699C6.8655 13.7648 6.98141 13.8 7.09999 13.8H7.56679L5.16319 16.2036C4.67971 16.2312 4.21589 16.4044 3.83266 16.7005C3.44943 16.9965 3.16473 17.4016 3.01596 17.8624C2.86719 18.3233 2.86131 18.8183 2.9991 19.2826C3.13689 19.7468 3.4119 20.1585 3.78799 20.4636C3.87919 20.538 3.96199 20.6208 4.03639 20.712C4.34223 21.0887 4.75508 21.3639 5.22048 21.5012C5.68587 21.6385 6.18196 21.6315 6.64331 21.4811C7.10465 21.3308 7.50959 21.0441 7.8047 20.6589C8.09981 20.2738 8.27125 19.8082 8.29639 19.3236L10.7 16.9224V17.4024C10.7 17.5211 10.7353 17.6372 10.8013 17.7359C10.8673 17.8345 10.9611 17.9114 11.0708 17.9568C11.1805 18.0021 11.3012 18.0139 11.4176 17.9906C11.534 17.9674 11.6409 17.9101 11.7248 17.826L13.97 15.5796C14.384 15.3252 15.3548 14.8224 17.2208 14.2956C17.504 14.2428 17.7812 14.1696 18.0488 14.0772C18.206 14.0364 18.356 13.9812 18.4928 13.9044C19.5649 13.438 20.4774 12.6686 21.1182 11.6908C21.759 10.7129 22.1003 9.56915 22.1 8.40001ZM10.7 15.2244L7.35919 18.5664C7.19226 18.7349 7.09903 18.9628 7.09999 19.2C7.10011 19.4481 7.02335 19.6901 6.88026 19.8928C6.73717 20.0954 6.53479 20.2487 6.30097 20.3316C6.06715 20.4145 5.81339 20.4229 5.5746 20.3557C5.33582 20.2884 5.12375 20.1488 4.96759 19.956C4.84132 19.8006 4.69937 19.6587 4.54399 19.5324C4.35123 19.3762 4.21161 19.1642 4.14434 18.9254C4.07708 18.6866 4.08547 18.4328 4.16836 18.199C4.25126 17.9652 4.40458 17.7628 4.60724 17.6197C4.80989 17.4767 5.05191 17.3999 5.29999 17.4C5.41412 17.4005 5.52723 17.3785 5.63286 17.3353C5.73849 17.292 5.83456 17.2284 5.91559 17.148L9.26359 13.8H10.7V15.2244ZM16.1 3.60001C17.206 3.59956 18.2783 3.98107 19.1354 4.68005C19.9926 5.37902 20.5821 6.35256 20.8042 7.43605C21.0263 8.51954 20.8674 9.64649 20.3544 10.6264C19.8414 11.6062 19.0058 12.3788 17.9888 12.8136C17.9661 12.8234 17.9441 12.8346 17.9228 12.8472C17.8667 12.8783 17.8065 12.9013 17.744 12.9156L17.732 12.918C17.4684 13.0133 17.197 13.0852 16.9208 13.1328C14.8616 13.7112 13.7708 14.2824 13.2728 14.5992C13.2354 14.6229 13.2008 14.6506 13.1696 14.682L11.9 15.9516V13.2708C11.9001 13.192 11.8847 13.1139 11.8547 13.041C11.8246 12.9681 11.7805 12.9018 11.7248 12.846L11.6528 12.7752C11.5403 12.663 11.388 12.6 11.2292 12.6H8.54839L9.83239 11.316C9.8642 11.2845 9.89237 11.2494 9.91639 11.2116C10.232 10.7112 10.7888 9.64321 11.3528 7.65961C11.3588 7.63829 11.3636 7.61666 11.3672 7.59481C11.4242 7.25695 11.5176 6.92623 11.6456 6.60841C12.0033 5.71983 12.6185 4.95854 13.4123 4.42244C14.2061 3.88633 15.1421 3.59992 16.1 3.60001Z" fill="black"/>
</svg>
