<svg width="25" height="24" viewBox="0 0 25 24" fill="none" xmlns="http://www.w3.org/2000/svg">
<path d="M7.03902 1.79436C5.1298 1.82108 3.61245 3.00327 2.08855 3.59108C1.61886 4.75311 1.70136 6.02811 2.51136 6.7828C3.06261 6.27655 6.08277 4.67623 6.9687 4.69217C8.23433 5.38592 7.78902 8.25936 7.14214 9.13592C6.8562 9.51561 5.62339 9.46874 5.23433 9.08436C5.5437 8.33436 5.85777 7.58905 6.75777 6.95623C6.41089 5.69061 3.91714 7.07811 2.84511 7.37342L2.77948 9.86248C-0.538796 10.7859 2.59667 14.1703 3.81308 15.15C3.76667 16.7062 4.19698 18.0422 7.06245 18.4312C10.189 19.7484 12.4812 21.7875 15.95 22.2047C18.3265 22.2609 18.725 21.3375 18.425 19.5984C18.964 18.6515 19.3203 17.6719 19.1796 16.6031C18.7109 17.4797 17.7968 18.314 16.9203 18.8765C16.7609 18.825 16.6062 18.764 16.4515 18.7031C16.9156 17.8687 17.3 17.0109 17.2953 16.05C16.6578 16.8703 15.9921 17.6297 15.1718 18.15C14.7875 17.9578 14.4218 17.7515 14.075 17.5312C14.7359 16.9031 14.9796 16.1109 15.2656 15.3422C14.6093 15.9234 13.7 16.2656 12.7343 16.5515C12.5187 16.364 12.3031 16.1672 12.0921 15.9609L12.7062 14.5031L11.5812 15.4265C11.3093 15.1265 11.0421 14.8031 10.7796 14.4609L11.225 13.275L10.3718 13.9172C9.90308 13.1062 9.22808 12.5109 9.00308 12.3187C9.17183 11.3015 10.5734 10.1344 10.5734 10.1344C11.3609 9.97967 11.9046 10.2656 12.5515 10.5L12.3359 11.5875L13.4046 10.8187C13.5406 10.8656 13.6812 10.9172 13.8218 10.9734L13.5687 12.2625L14.7359 11.3109C15.1671 11.4703 15.6031 11.625 16.0343 11.7703C15.8187 12.4219 15.3687 13.0219 14.9562 13.6265C15.8281 13.214 16.7609 12.8672 17.3562 12.1734C17.7828 12.2906 18.2093 12.3937 18.6312 12.4734C18.4531 13.3078 18.1156 14.0906 17.6562 14.8359C18.7343 14.2359 19.5875 13.5469 19.925 12.6515C20.225 12.675 20.5203 12.6844 20.8109 12.6797C20.9656 13.664 20.764 14.6484 20.4828 15.6328C21.4015 14.6719 22.3578 13.7203 22.5359 12.464C22.6953 12.4265 22.8546 12.3844 23.014 12.3281C23.1218 11.2359 22.9859 11.3484 23.6984 10.6406C23.7359 8.70936 22.264 7.42499 20.0421 6.45936L14.1687 5.13749C13.325 4.3092 12.7906 3.31077 10.2125 2.91889C9.26558 2.28842 8.05152 1.77936 7.03902 1.79436ZM10.4656 4.79999C10.9109 5.85467 9.97808 8.12811 9.92652 8.18905C8.93277 8.03905 9.78589 5.45624 8.99839 4.79999C9.2562 4.1517 10.3296 4.34624 10.4656 4.79999ZM11.9468 5.46561C13.9109 5.83592 15.589 6.98905 15.7625 7.92186C15.8656 8.46561 15.8328 8.89686 15.4671 9.13124C15.2937 8.75624 14.9656 8.57342 14.4218 8.64842C14.1078 7.55155 12.2421 8.29217 11.5812 8.47967C11.389 7.23748 11.6281 6.65155 11.9468 5.46561ZM17.4218 7.55624C17.7265 7.54217 17.9984 7.69217 18.0593 8.03905C18.0968 9.20624 16.5078 9.56717 16.564 8.33436C16.6156 7.85155 17.0421 7.5703 17.4218 7.55624ZM19.9156 7.61248C19.9156 7.61248 21.6968 7.88436 22.3109 8.4703C22.7046 8.84061 22.939 9.96561 22.939 9.96561C22.8031 9.46405 20.1218 7.67342 19.9156 7.61248ZM6.61714 10.0734C7.50308 10.064 8.37964 10.1156 9.15777 10.2234L7.7187 11.6625C6.45777 11.564 4.8973 10.8 3.98605 10.2562C4.82558 10.139 5.7312 10.0781 6.61714 10.0734ZM4.91652 12.1312C5.30464 12.1172 5.71714 12.989 5.29995 13.2703C5.01214 13.4297 4.52839 12.975 4.52839 12.6469C4.62027 12.2765 4.76792 12.1359 4.91652 12.1312Z" fill="black"/>
</svg>
