<svg width="24" height="24" viewBox="0 0 24 24" fill="none" xmlns="http://www.w3.org/2000/svg">
<path d="M11.8 19.987C11.25 19.987 10.7794 19.7933 10.388 19.406C9.99671 19.0187 9.80072 18.55 9.80005 18C9.80005 17.45 9.99605 16.9793 10.388 16.588C10.78 16.1967 11.2507 16.0007 11.8 16L12.4 15.425C12.5334 15.2917 12.6877 15.1877 12.863 15.113C13.0384 15.0383 13.2174 15.0007 13.4 15C13.7834 15 14.1127 15.1417 14.388 15.425C14.6634 15.7083 14.8007 16.0417 14.8 16.425V16.85C14.8 17.1833 14.9084 17.4583 15.125 17.675C15.3417 17.8917 15.6167 18 15.95 18C16.2 18 16.425 17.925 16.625 17.775C16.825 17.625 16.9667 17.4333 17.05 17.2L17.35 16.375C17.5 15.975 17.7354 15.646 18.056 15.388C18.3767 15.13 18.7534 15.0007 19.1861 15C19.3701 14.5333 19.5161 14.05 19.6241 13.55C19.732 13.05 19.7864 12.5333 19.7871 12C19.7871 10.5167 19.4224 9.169 18.693 7.957C17.9637 6.745 16.9994 5.78867 15.8 5.088V6C15.8 6.55 15.6044 7.021 15.213 7.413C14.8217 7.805 14.3507 8.00067 13.8 8H12.8V10C12.8 10.2833 12.704 10.521 12.512 10.713C12.32 10.905 12.0827 11.0007 11.8 11H10.8V12.7C10.8 13.0667 10.675 13.375 10.425 13.625C10.175 13.875 9.86672 14 9.50005 14C9.26672 14 9.05405 13.95 8.86205 13.85C8.67005 13.75 8.51605 13.6083 8.40005 13.425L6.80005 11H5.80005V12C5.80005 12.5167 5.63105 12.9583 5.29305 13.325C4.95505 13.6917 4.54505 13.9083 4.06305 13.975C4.49638 15.7083 5.42772 17.1437 6.85705 18.281C8.28638 19.4183 9.93405 19.987 11.8 19.987ZM13.8 14C13.5167 14 13.2794 13.904 13.088 13.712C12.8967 13.52 12.8007 13.2827 12.8 13C12.8 12.7167 12.896 12.4793 13.088 12.288C13.28 12.0967 13.5174 12.0007 13.8 12H14.8C15.0834 12 15.321 12.096 15.513 12.288C15.705 12.48 15.8007 12.7173 15.8 13C15.8 13.2833 15.704 13.521 15.512 13.713C15.32 13.905 15.0827 14.0007 14.8 14H13.8ZM16.125 11C15.7917 11 15.529 10.871 15.337 10.613C15.145 10.355 15.0994 10.0673 15.2 9.75L15.575 8.65C15.6417 8.45 15.7584 8.29167 15.925 8.175C16.0917 8.05833 16.275 8 16.475 8C16.8084 8 17.071 8.12933 17.263 8.388C17.455 8.64667 17.5007 8.934 17.4 9.25L17.025 10.35C16.9584 10.55 16.8417 10.7083 16.675 10.825C16.5084 10.9417 16.325 11 16.125 11ZM11.803 21C10.559 21 9.38905 20.764 8.29305 20.292C7.19772 19.8193 6.24472 19.178 5.43405 18.368C4.62338 17.5587 3.98172 16.6067 3.50905 15.512C3.03638 14.4173 2.80005 13.2477 2.80005 12.003C2.80005 10.759 3.03605 9.589 3.50805 8.493C3.98072 7.39767 4.62205 6.44467 5.43205 5.634C6.24138 4.82333 7.19338 4.18167 8.28805 3.709C9.38272 3.23633 10.5524 3 11.797 3C13.041 3 14.211 3.236 15.307 3.708C16.4024 4.18067 17.3554 4.822 18.166 5.632C18.9767 6.44133 19.6184 7.39333 20.091 8.488C20.5637 9.58267 20.8 10.7523 20.8 11.997C20.8 13.241 20.564 14.411 20.092 15.507C19.6194 16.6023 18.978 17.5553 18.168 18.366C17.3587 19.1767 16.4067 19.8183 15.312 20.291C14.2174 20.7637 13.0477 21 11.803 21Z" fill="black"/>
</svg>
