<svg width="45" height="44" viewBox="0 0 45 44" fill="none" xmlns="http://www.w3.org/2000/svg">
<path d="M17.039 11.7944C15.1298 11.8211 13.6125 13.0033 12.0885 13.5911C11.6189 14.7531 11.7014 16.0281 12.5114 16.7828C13.0626 16.2766 16.0828 14.6763 16.9687 14.6922C18.2343 15.386 17.789 18.2594 17.1421 19.136C16.8562 19.5156 15.6234 19.4688 15.2343 19.0844C15.5437 18.3344 15.8578 17.5891 16.7578 16.9563C16.4109 15.6906 13.9171 17.0781 12.8451 17.3735L12.7795 19.8625C9.4612 20.786 12.5967 24.1703 13.8131 25.15C13.7667 26.7063 14.197 28.0422 17.0625 28.4313C20.189 29.7485 22.4812 31.7875 25.95 32.2047C28.3265 32.261 28.725 31.3375 28.425 29.5985C28.964 28.6516 29.3203 27.6719 29.1796 26.6031C28.7109 27.4797 27.7968 28.3141 26.9203 28.8766C26.7609 28.825 26.6062 28.7641 26.4515 28.7031C26.9156 27.8688 27.3 27.011 27.2953 26.05C26.6578 26.8703 25.9921 27.6297 25.1718 28.15C24.7875 27.9578 24.4218 27.7516 24.075 27.5313C24.7359 26.9031 24.9796 26.111 25.2656 25.3422C24.6093 25.9235 23.7 26.2656 22.7343 26.5516C22.5187 26.3641 22.3031 26.1672 22.0921 25.961L22.7062 24.5031L21.5812 25.4266C21.3093 25.1266 21.0421 24.8031 20.7796 24.461L21.225 23.275L20.3718 23.9172C19.9031 23.1063 19.2281 22.511 19.0031 22.3188C19.1718 21.3016 20.5734 20.1344 20.5734 20.1344C21.3609 19.9797 21.9046 20.2656 22.5515 20.5L22.3359 21.5875L23.4046 20.8188C23.5406 20.8656 23.6812 20.9172 23.8218 20.9735L23.5687 22.2625L24.7359 21.311C25.1671 21.4703 25.6031 21.625 26.0343 21.7703C25.8187 22.4219 25.3687 23.0219 24.9562 23.6266C25.8281 23.2141 26.7609 22.8672 27.3562 22.1735C27.7828 22.2906 28.2093 22.3938 28.6312 22.4735C28.4531 23.3078 28.1156 24.0906 27.6562 24.836C28.7343 24.236 29.5875 23.5469 29.925 22.6516C30.225 22.675 30.5203 22.6844 30.8109 22.6797C30.9656 23.6641 30.764 24.6485 30.4828 25.6328C31.4015 24.6719 32.3578 23.7203 32.5359 22.4641C32.6953 22.4266 32.8546 22.3844 33.014 22.3281C33.1218 21.236 32.9859 21.3485 33.6984 20.6406C33.7359 18.7094 32.264 17.425 30.0421 16.4594L24.1687 15.1375C23.325 14.3092 22.7906 13.3108 20.2125 12.9189C19.2656 12.2885 18.0515 11.7794 17.039 11.7944ZM20.4656 14.8C20.9109 15.8547 19.9781 18.1281 19.9265 18.1891C18.9328 18.0391 19.7859 15.4563 18.9984 14.8C19.2562 14.1517 20.3296 14.3463 20.4656 14.8ZM21.9468 15.4656C23.9109 15.836 25.589 16.9891 25.7625 17.9219C25.8656 18.4656 25.8328 18.8969 25.4671 19.1313C25.2937 18.7563 24.9656 18.5735 24.4218 18.6485C24.1078 17.5516 22.2421 18.2922 21.5812 18.4797C21.389 17.2375 21.6281 16.6516 21.9468 15.4656ZM27.4218 17.5563C27.7265 17.5422 27.9984 17.6922 28.0593 18.0391C28.0968 19.2063 26.5078 19.5672 26.564 18.3344C26.6156 17.8516 27.0421 17.5703 27.4218 17.5563ZM29.9156 17.6125C29.9156 17.6125 31.6968 17.8844 32.3109 18.4703C32.7046 18.8406 32.939 19.9656 32.939 19.9656C32.8031 19.4641 30.1218 17.6735 29.9156 17.6125ZM16.6171 20.0735C17.5031 20.0641 18.3796 20.1156 19.1578 20.2235L17.7187 21.6625C16.4578 21.5641 14.8973 20.8 13.986 20.2563C14.8256 20.1391 15.7312 20.0781 16.6171 20.0735ZM14.9165 22.1313C15.3046 22.1172 15.7171 22.9891 15.3 23.2703C15.0121 23.4297 14.5284 22.975 14.5284 22.6469C14.6203 22.2766 14.7679 22.136 14.9165 22.1313Z" fill="black"/>
</svg>

