<svg width="45" height="44" viewBox="0 0 45 44" fill="none" xmlns="http://www.w3.org/2000/svg">
<path d="M17.0391 11.7943C15.1299 11.821 13.6125 13.0032 12.0886 13.591C11.6189 14.753 11.7014 16.028 12.5114 16.7827C13.0627 16.2765 16.0828 14.6761 16.9688 14.6921C18.2344 15.3858 17.7891 18.2593 17.1422 19.1358C16.8563 19.5155 15.6235 19.4686 15.2344 19.0843C15.5438 18.3343 15.8578 17.589 16.7578 16.9561C16.411 15.6905 13.9172 17.078 12.8452 17.3733L12.7795 19.8624C9.46126 20.7858 12.5967 24.1702 13.8131 25.1499C13.7667 26.7061 14.197 28.0421 17.0625 28.4311C20.1891 29.7483 22.4813 31.7874 25.95 32.2046C28.3266 32.2608 28.725 31.3374 28.425 29.5983C28.9641 28.6515 29.3203 27.6718 29.1797 26.603C28.711 27.4796 27.7969 28.314 26.9203 28.8765C26.761 28.8249 26.6063 28.764 26.4516 28.703C26.9156 27.8686 27.3 27.0108 27.2953 26.0499C26.6578 26.8702 25.9922 27.6296 25.1719 28.1499C24.7875 27.9577 24.4219 27.7515 24.075 27.5311C24.736 26.903 24.9797 26.1108 25.2656 25.3421C24.6094 25.9233 23.7 26.2655 22.7344 26.5515C22.5188 26.364 22.3031 26.1671 22.0922 25.9608L22.7063 24.503L21.5813 25.4265C21.3094 25.1265 21.0422 24.803 20.7797 24.4608L21.225 23.2749L20.3719 23.9171C19.9031 23.1061 19.2281 22.5108 19.0031 22.3186C19.1719 21.3015 20.5735 20.1343 20.5735 20.1343C21.361 19.9796 21.9047 20.2655 22.5516 20.4999L22.336 21.5874L23.4047 20.8186C23.5406 20.8655 23.6813 20.9171 23.8219 20.9733L23.5688 22.2624L24.736 21.3108C25.1672 21.4702 25.6031 21.6249 26.0344 21.7702C25.8188 22.4218 25.3688 23.0218 24.9563 23.6265C25.8281 23.214 26.761 22.8671 27.3563 22.1733C27.7828 22.2905 28.2094 22.3936 28.6313 22.4733C28.4531 23.3077 28.1156 24.0905 27.6563 24.8358C28.7344 24.2358 29.5875 23.5468 29.925 22.6515C30.225 22.6749 30.5203 22.6843 30.811 22.6796C30.9656 23.664 30.7641 24.6483 30.4828 25.6327C31.4016 24.6718 32.3578 23.7202 32.536 22.464C32.6953 22.4265 32.8547 22.3843 33.0141 22.328C33.1219 21.2358 32.986 21.3483 33.6985 20.6405C33.736 18.7093 32.2641 17.4249 30.0422 16.4593L24.1688 15.1374C23.325 14.3091 22.7906 13.3107 20.2125 12.9188C19.2656 12.2883 18.0516 11.7793 17.0391 11.7943ZM20.4656 14.7999C20.911 15.8546 19.9781 18.128 19.9266 18.189C18.9328 18.039 19.786 15.4561 18.9985 14.7999C19.2563 14.1516 20.3297 14.3461 20.4656 14.7999ZM21.9469 15.4655C23.911 15.8358 25.5891 16.989 25.7625 17.9218C25.8656 18.4655 25.8328 18.8968 25.4672 19.1311C25.2938 18.7561 24.9656 18.5733 24.4219 18.6483C24.1078 17.5515 22.2422 18.2921 21.5813 18.4796C21.3891 17.2374 21.6281 16.6515 21.9469 15.4655ZM27.4219 17.5561C27.7266 17.5421 27.9985 17.6921 28.0594 18.039C28.0969 19.2061 26.5078 19.5671 26.5641 18.3343C26.6156 17.8515 27.0422 17.5702 27.4219 17.5561ZM29.9156 17.6124C29.9156 17.6124 31.6969 17.8843 32.311 18.4702C32.7047 18.8405 32.9391 19.9655 32.9391 19.9655C32.8031 19.464 30.1219 17.6733 29.9156 17.6124ZM16.6172 20.0733C17.5031 20.064 18.3797 20.1155 19.1578 20.2233L17.7188 21.6624C16.4578 21.564 14.8974 20.7999 13.9861 20.2561C14.8256 20.139 15.7313 20.078 16.6172 20.0733ZM14.9166 22.1311C15.3047 22.1171 15.7172 22.989 15.3 23.2702C15.0122 23.4296 14.5285 22.9749 14.5285 22.6468C14.6203 22.2765 14.768 22.1358 14.9166 22.1311Z" fill="white"/>
</svg>
