<svg width="45" height="44" viewBox="0 0 45 44" fill="none" xmlns="http://www.w3.org/2000/svg">
<path d="M30.2899 1.97189C28.5875 1.98427 26.7681 2.54295 26.1483 4.15118C25.6494 4.30932 25.2365 4.53267 24.9496 4.79959C24.6627 5.06651 24.5116 5.36795 24.5109 5.67468C24.5118 6.12568 24.8376 6.5597 25.4224 6.88907C26.0073 7.21845 26.8076 7.41863 27.6617 7.4492C29.1833 7.822 31.3315 7.12075 32.501 5.2865C34.4346 6.12181 36.8113 7.15478 37.3664 9.34103C38.4848 13.7453 35.7121 22.0117 34.0801 22.5714C29.3996 24.1768 24.2376 24.3906 20.9777 26.4979C17.2159 28.9295 14.7769 33.566 11.3742 34.4433C8.60526 35.1572 3.12141 33.8222 2.44612 35.991C2.34282 36.7387 2.96277 37.4202 4.6731 35.9974C7.1377 36.6661 13.7988 39.0348 20.0714 34.0084C20.4671 34.2541 20.8745 34.4807 21.292 34.6874C21.3774 37.0778 21.9886 39.6379 22.3683 42.0283H26.382L25.9596 38.2069C26.3882 36.8063 26.906 36.0032 27.2226 34.4822L28.7406 34.7797C28.5679 35.6609 28.405 35.8356 28.0911 36.6778C29.0093 36.7213 30.0562 36.6718 31.0038 36.5898C30.3408 35.0626 29.9825 33.0199 29.6386 31.6594L31.1382 31.2804C31.6124 33.156 32.3708 35.7618 32.6837 36.4621C32.9628 37.0869 33.655 42.0283 33.655 42.0283H36.8539L37.4997 34.66C39.9571 33.206 40.7739 31.4692 41.25 29.4853C42.9136 22.5547 43.3027 14.9834 40.6099 8.53013C38.9243 4.49063 35.68 3.30839 32.7144 2.34177C32.0731 2.11403 31.1982 1.96527 30.29 1.97189H30.2899ZM40.9797 33.5395C40.446 34.2045 39.7826 34.8531 38.9696 35.4536C38.799 37.5722 38.6401 39.891 38.4642 42.0283H41.2801C41.2801 42.0283 41.1109 37.1366 40.9797 33.5394V33.5395ZM31.1333 38.0931C30.1166 38.1934 28.9246 38.2007 27.7102 38.1183L28.126 42.0283H31.717L31.1333 38.0931Z" fill="#4A765C"/>
</svg>
